<svg width="350" height="350" viewBox="0 0 350 350" fill="none" xmlns="http://www.w3.org/2000/svg">
<rect width="350" height="350" fill="#36A18B"/>
<path d="M252.214 111H98.7857C95.3947 111 92.1426 112.349 89.7448 114.751C87.3471 117.153 86 120.41 86 123.807V226.264C86 229.661 87.3471 232.918 89.7448 235.32C92.1426 237.722 95.3947 239.071 98.7857 239.071H252.214C255.605 239.071 258.857 237.722 261.255 235.32C263.653 232.918 265 229.661 265 226.264V175.036V123.807C265 120.41 263.653 117.153 261.255 114.751C258.857 112.349 255.605 111 252.214 111ZM252.214 123.807V143.018H98.7857V123.807H252.214ZM252.214 226.264H98.7857V155.825H252.214V226.264ZM239.429 207.053C239.429 208.752 238.755 210.38 237.556 211.581C236.357 212.782 234.731 213.457 233.036 213.457H207.464C205.769 213.457 204.143 212.782 202.944 211.581C201.745 210.38 201.071 208.752 201.071 207.053C201.071 205.355 201.745 203.726 202.944 202.525C204.143 201.324 205.769 200.65 207.464 200.65H233.036C234.731 200.65 236.357 201.324 237.556 202.525C238.755 203.726 239.429 205.355 239.429 207.053ZM188.286 207.053C188.286 208.752 187.612 210.38 186.413 211.581C185.214 212.782 183.588 213.457 181.893 213.457H169.107C167.412 213.457 165.786 212.782 164.587 211.581C163.388 210.38 162.714 208.752 162.714 207.053C162.714 205.355 163.388 203.726 164.587 202.525C165.786 201.324 167.412 200.65 169.107 200.65H181.893C183.588 200.65 185.214 201.324 186.413 202.525C187.612 203.726 188.286 205.355 188.286 207.053Z" fill="white"/>
</svg>
