<svg width="350" height="350" viewBox="0 0 350 350" fill="none" xmlns="http://www.w3.org/2000/svg">
<rect width="350" height="350" fill="#87EA5C"/>
<path d="M150.259 123.151C148.872 121.765 147.158 120.751 145.275 120.203C143.392 119.655 141.401 119.59 139.486 120.016C137.571 120.441 135.795 121.342 134.321 122.635C132.848 123.928 131.724 125.572 131.055 127.415L86.6991 249.354C86.0618 251.111 85.856 252.995 86.0991 254.848C86.3421 256.701 87.027 258.469 88.0959 260.002C89.1648 261.535 90.5866 262.789 92.2417 263.659C93.8967 264.529 95.7366 264.989 97.6064 265C98.9813 264.997 100.345 264.754 101.636 264.282L223.62 219.954C225.46 219.281 227.101 218.155 228.39 216.68C229.68 215.205 230.577 213.429 230.998 211.516C231.419 209.603 231.351 207.615 230.799 205.736C230.248 203.856 229.232 202.146 227.844 200.763L150.259 123.151ZM98.1725 254.758C97.9012 254.858 97.6068 254.879 97.3243 254.817C97.0417 254.755 96.7828 254.614 96.5782 254.409C96.3737 254.205 96.2321 253.946 96.1703 253.664C96.1084 253.381 96.1289 253.087 96.2293 252.816L109.055 217.548L133.463 241.933L98.1725 254.758ZM143.973 238.116L112.882 207.036L125.276 172.967L178.072 225.73L143.973 238.116ZM221.161 209.333C221.11 209.584 220.994 209.817 220.825 210.01C220.657 210.202 220.44 210.347 220.198 210.43L188.583 221.939L129.07 162.455L140.585 130.91C140.667 130.667 140.812 130.45 141.005 130.281C141.198 130.112 141.432 129.997 141.684 129.948C141.799 129.933 141.915 129.933 142.03 129.948C142.227 129.947 142.423 129.986 142.604 130.063C142.786 130.14 142.95 130.253 143.086 130.395L220.713 207.973C220.898 208.142 221.037 208.356 221.115 208.594C221.194 208.833 221.209 209.087 221.161 209.333ZM194.125 138.349C194.245 134.045 195.291 129.818 197.192 125.954C201.366 117.612 209.274 113.019 219.471 113.019C225.782 113.019 230.058 110.705 232.55 105.943C233.815 103.412 234.54 100.646 234.679 97.8208C234.679 96.4772 235.213 95.1886 236.164 94.2385C237.114 93.2885 238.404 92.7547 239.748 92.7547C241.093 92.7547 242.382 93.2885 243.333 94.2385C244.283 95.1886 244.817 96.4772 244.817 97.8208C244.817 106.585 239.52 123.151 219.471 123.151C213.16 123.151 208.885 125.464 206.393 130.227C205.123 132.756 204.398 135.523 204.263 138.349C204.263 139.693 203.729 140.981 202.779 141.931C201.828 142.881 200.539 143.415 199.194 143.415C197.85 143.415 196.56 142.881 195.61 141.931C194.659 140.981 194.125 139.693 194.125 138.349ZM173.848 111.33V91.066C173.848 89.7224 174.382 88.4339 175.333 87.4838C176.283 86.5337 177.573 86 178.917 86C180.262 86 181.551 86.5337 182.502 87.4838C183.452 88.4339 183.986 89.7224 183.986 91.066V111.33C183.986 112.674 183.452 113.962 182.502 114.912C181.551 115.862 180.262 116.396 178.917 116.396C177.573 116.396 176.283 115.862 175.333 114.912C174.382 113.962 173.848 112.674 173.848 111.33ZM256.849 182.052C257.347 182.516 257.746 183.075 258.023 183.697C258.3 184.318 258.449 184.989 258.461 185.669C258.473 186.349 258.348 187.025 258.093 187.656C257.838 188.287 257.459 188.86 256.977 189.341C256.496 189.822 255.922 190.201 255.291 190.456C254.66 190.711 253.984 190.836 253.303 190.824C252.623 190.812 251.951 190.663 251.33 190.386C250.708 190.109 250.148 189.71 249.684 189.212L236.166 175.703C235.271 174.742 234.783 173.472 234.806 172.16C234.829 170.847 235.361 169.595 236.29 168.667C237.219 167.739 238.472 167.207 239.785 167.184C241.099 167.161 242.37 167.648 243.331 168.543L256.849 182.052ZM261.63 143.153L241.353 149.908C240.718 150.134 240.045 150.231 239.372 150.193C238.699 150.156 238.04 149.985 237.434 149.69C236.828 149.395 236.287 148.982 235.842 148.475C235.398 147.969 235.059 147.379 234.845 146.74C234.632 146.101 234.548 145.426 234.599 144.754C234.65 144.082 234.834 143.427 235.141 142.828C235.448 142.228 235.872 141.695 236.387 141.261C236.903 140.827 237.5 140.5 238.143 140.299L258.42 133.545C259.687 133.149 261.058 133.266 262.24 133.871C263.421 134.475 264.319 135.518 264.739 136.776C265.159 138.034 265.069 139.407 264.488 140.599C263.907 141.792 262.881 142.709 261.63 143.153Z" fill="#163300"/>
</svg>
