<svg width="350" height="350" viewBox="0 0 350 350" fill="none" xmlns="http://www.w3.org/2000/svg">
<rect width="350" height="350" fill="#12A454"/>
<path d="M163.947 277V252.633C153.932 250.367 145.288 246.022 138.013 239.6C130.739 233.178 125.401 224.111 122 212.4L142.973 203.9C145.807 212.967 150.012 219.861 155.586 224.583C161.16 229.306 168.481 231.667 177.551 231.667C185.298 231.667 191.864 229.919 197.249 226.425C202.634 222.931 205.326 217.5 205.326 210.133C205.326 203.522 203.248 198.281 199.091 194.408C194.934 190.536 185.298 186.144 170.182 181.233C153.932 176.133 142.784 170.042 136.738 162.958C130.692 155.875 127.668 147.233 127.668 137.033C127.668 124.756 131.636 115.217 139.572 108.417C147.508 101.617 155.633 97.7444 163.947 96.8V73H186.62V96.8C196.068 98.3111 203.862 101.758 210.003 107.142C216.143 112.525 220.631 119.089 223.465 126.833L202.492 135.9C200.225 129.856 197.012 125.322 192.856 122.3C188.699 119.278 183.03 117.767 175.85 117.767C167.537 117.767 161.207 119.608 156.861 123.292C152.515 126.975 150.342 131.556 150.342 137.033C150.342 143.267 153.176 148.178 158.845 151.767C164.513 155.356 174.339 159.133 188.321 163.1C201.358 166.878 211.231 172.875 217.938 181.092C224.646 189.308 228 198.8 228 209.567C228 222.978 224.032 233.178 216.096 240.167C208.16 247.156 198.335 251.5 186.62 253.2V277H163.947Z" fill="white"/>
</svg>
