<svg width="350" height="350" viewBox="0 0 350 350" fill="none" xmlns="http://www.w3.org/2000/svg">
<rect width="350" height="350" fill="#EE9EAD"/>
<path d="M225 169.263C228.542 169.263 231.51 168.068 233.906 165.677C236.302 163.286 237.5 160.324 237.5 156.789C237.5 153.255 236.302 150.293 233.906 147.902C231.51 145.511 228.542 144.316 225 144.316C221.458 144.316 218.49 145.511 216.094 147.902C213.698 150.293 212.5 153.255 212.5 156.789C212.5 160.324 213.698 163.286 216.094 165.677C218.49 168.068 221.458 169.263 225 169.263ZM125 144.316H187.5V119.368H125V144.316ZM81.25 294C74.1667 270.3 67.1875 246.652 60.3125 223.056C53.4375 199.46 50 175.292 50 150.553C50 131.426 56.6667 115.211 70 101.905C83.3333 88.6 99.5833 81.9474 118.75 81.9474H181.25C187.292 74.0474 194.635 67.9145 203.281 63.5487C211.927 59.1829 221.25 57 231.25 57C236.458 57 240.885 58.8191 244.531 62.4572C248.177 66.0954 250 70.5132 250 75.7105C250 76.9579 249.844 78.2053 249.531 79.4526C249.219 80.7 248.854 81.8434 248.438 82.8829C247.604 85.1697 246.823 87.5086 246.094 89.8993C245.365 92.2901 244.792 94.7329 244.375 97.2276L272.812 125.605H300V212.609L264.688 224.147L243.75 294H175V269.053H150V294H81.25ZM100 269.053H125V244.105H200V269.053H225L244.375 204.813L275 194.522V150.553H262.5L218.75 106.895C218.75 102.737 219.01 98.7349 219.531 94.8888C220.052 91.0428 220.833 87.1447 221.875 83.1947C215.833 84.8579 210.521 87.7164 205.938 91.7704C201.354 95.8243 198.021 100.866 195.938 106.895H118.75C106.667 106.895 96.3542 111.157 87.8125 119.68C79.2708 128.204 75 138.495 75 150.553C75 170.926 77.8125 190.832 83.4375 210.27C89.0625 229.709 94.5833 249.303 100 269.053Z" fill="white"/>
</svg>
