<svg width="512" height="512" viewBox="0 0 512 512" fill="none" xmlns="http://www.w3.org/2000/svg">
<rect width="512" height="512" rx="50" fill="#5636D3"/>
<path fill-rule="evenodd" clip-rule="evenodd" d="M324.738 208.259C325.719 209.652 326.561 211.154 327.249 212.747C367.805 223.689 397.661 259.896 397.661 302.76C397.661 354.262 354.562 396.162 301.587 396.162C273.93 396.162 248.969 384.738 231.424 366.493H164.822C150.488 366.493 138.825 355.155 138.825 341.22C138.825 333.216 142.676 326.074 148.667 321.44C142.676 316.807 138.825 309.665 138.825 301.661C138.825 293.658 142.676 286.516 148.667 281.882C142.676 277.248 138.825 270.106 138.825 262.103C138.825 254.099 142.676 246.957 148.667 242.323C142.676 237.69 138.825 230.548 138.825 222.544C138.825 208.609 150.488 197.271 164.822 197.271H179.561C176.683 193.204 174.994 188.284 174.994 182.986C174.994 177.688 176.684 172.768 179.561 168.701H134.304C119.97 168.701 108.308 157.363 108.308 143.427C108.308 129.492 119.97 118.154 134.304 118.154H272.764C287.098 118.154 298.761 129.492 298.761 143.427C298.761 148.725 297.072 153.645 294.194 157.712H339.451C353.785 157.712 365.448 169.05 365.448 182.986C365.448 196.921 353.785 208.259 339.451 208.259H324.738ZM354.145 182.986C354.145 175.109 347.553 168.701 339.451 168.701H200.991C192.889 168.701 186.297 175.109 186.297 182.986C186.297 190.862 192.889 197.271 200.991 197.271H303.282H339.451C347.553 197.271 354.145 190.862 354.145 182.986ZM119.61 143.427C119.61 151.304 126.202 157.712 134.304 157.712H272.764C280.867 157.712 287.458 151.304 287.458 143.427C287.458 135.551 280.867 129.142 272.764 129.142H134.304C126.202 129.142 119.61 135.551 119.61 143.427ZM303.282 208.259H164.822C156.72 208.259 150.128 214.668 150.128 222.544C150.128 230.421 156.72 236.829 164.822 236.829H233.601C251.004 219.868 275.056 209.359 301.587 209.359C304.318 209.359 307.02 209.476 309.693 209.694C307.738 208.773 305.558 208.259 303.282 208.259ZM223.944 247.818H164.822C156.719 247.818 150.128 254.226 150.128 262.103C150.128 269.98 156.719 276.388 164.822 276.388H209.418C212.569 266.001 217.529 256.363 223.944 247.818ZM206.823 287.376H164.822C156.719 287.376 150.128 293.784 150.128 301.661C150.128 309.538 156.719 315.946 164.822 315.946H206.475C205.846 311.637 205.513 307.236 205.513 302.76C205.513 297.521 205.966 292.383 206.823 287.376ZM150.128 341.22C150.128 349.097 156.719 355.505 164.822 355.505H222.342C216.266 346.904 211.634 337.271 208.782 326.935H164.822C156.719 326.935 150.128 333.342 150.128 341.22ZM216.816 302.76C216.816 348.203 254.844 385.174 301.587 385.174C348.33 385.174 386.358 348.203 386.358 302.76C386.358 257.318 348.33 220.347 301.587 220.347C254.844 220.347 216.816 257.318 216.816 302.76ZM287.171 283.98C287.171 290.655 293.626 296.087 301.56 296.087C316.707 296.087 329.029 307.223 329.029 320.911C329.029 332.563 320.099 342.36 308.1 345.019V347.766C308.1 351.277 305.172 354.124 301.56 354.124C297.949 354.124 295.02 351.277 295.02 347.766V345.019C283.021 342.36 274.091 332.563 274.091 320.911C274.091 317.4 277.02 314.553 280.631 314.553C284.243 314.553 287.171 317.4 287.171 320.911C287.171 327.587 293.626 333.019 301.56 333.019C309.494 333.019 315.949 327.587 315.949 320.911C315.949 314.235 309.494 308.803 301.56 308.803C286.413 308.803 274.091 297.667 274.091 283.98C274.091 272.328 283.021 262.531 295.02 259.872V256.565C295.02 253.054 297.949 250.207 301.56 250.207C305.172 250.207 308.1 253.054 308.1 256.565V259.872C320.099 262.531 329.029 272.328 329.029 283.98C329.029 287.491 326.1 290.338 322.489 290.338C318.877 290.338 315.949 287.491 315.949 283.98C315.949 277.303 309.494 271.872 301.56 271.872C293.626 271.872 287.171 277.303 287.171 283.98Z" fill="white"/>
<path d="M327.249 212.747L327.02 212.846L327.067 212.957L327.184 212.988L327.249 212.747ZM324.738 208.259V208.009H324.256L324.534 208.403L324.738 208.259ZM231.424 366.493L231.604 366.32L231.53 366.243H231.424V366.493ZM148.667 321.44L148.82 321.638L149.076 321.44L148.82 321.243L148.667 321.44ZM148.667 281.882L148.82 282.08L149.076 281.882L148.82 281.684L148.667 281.882ZM148.667 242.323L148.82 242.521L149.076 242.323L148.82 242.126L148.667 242.323ZM179.561 197.271V197.521H180.044L179.765 197.126L179.561 197.271ZM179.561 168.701L179.765 168.845L180.044 168.451H179.561V168.701ZM294.194 157.712L293.99 157.568L293.711 157.962H294.194V157.712ZM233.601 236.829V237.079H233.703L233.775 237.008L233.601 236.829ZM309.693 209.694L309.673 209.943L309.8 209.468L309.693 209.694ZM223.944 247.818L224.144 247.968L224.445 247.568H223.944V247.818ZM209.418 276.388V276.638H209.604L209.658 276.46L209.418 276.388ZM206.823 287.376L207.07 287.418L207.12 287.126H206.823V287.376ZM206.475 315.946V316.196H206.764L206.722 315.91L206.475 315.946ZM222.342 355.505V355.755H222.824L222.546 355.36L222.342 355.505ZM208.782 326.935L209.023 326.868L208.972 326.685H208.782V326.935ZM308.1 345.019L308.046 344.775L307.85 344.818V345.019H308.1ZM295.02 345.019H295.27V344.818L295.074 344.775L295.02 345.019ZM295.02 259.872L295.074 260.116L295.27 260.073V259.872H295.02ZM308.1 259.872H307.85V260.073L308.046 260.116L308.1 259.872ZM327.479 212.648C326.784 211.039 325.933 209.522 324.943 208.115L324.534 208.403C325.504 209.782 326.339 211.268 327.02 212.846L327.479 212.648ZM397.911 302.76C397.911 259.776 367.972 223.475 327.314 212.506L327.184 212.988C367.638 223.903 397.411 260.016 397.411 302.76H397.911ZM301.587 396.412C354.694 396.412 397.911 354.407 397.911 302.76H397.411C397.411 354.118 354.431 395.912 301.587 395.912V396.412ZM231.244 366.666C248.835 384.959 273.86 396.412 301.587 396.412V395.912C273.999 395.912 249.104 384.517 231.604 366.32L231.244 366.666ZM164.822 366.743H231.424V366.243H164.822V366.743ZM138.575 341.22C138.575 355.3 150.356 366.743 164.822 366.743V366.243C150.619 366.243 139.075 355.01 139.075 341.22H138.575ZM148.514 321.243C142.466 325.92 138.575 333.133 138.575 341.22H139.075C139.075 333.299 142.886 326.228 148.82 321.638L148.514 321.243ZM138.575 301.661C138.575 309.747 142.466 316.96 148.514 321.638L148.82 321.243C142.886 316.653 139.075 309.582 139.075 301.661H138.575ZM148.514 281.684C142.466 286.362 138.575 293.575 138.575 301.661H139.075C139.075 293.74 142.886 286.669 148.82 282.08L148.514 281.684ZM138.575 262.103C138.575 270.189 142.466 277.402 148.514 282.08L148.82 281.684C142.886 277.094 139.075 270.023 139.075 262.103H138.575ZM148.514 242.126C142.466 246.804 138.575 254.017 138.575 262.103H139.075C139.075 254.182 142.886 247.111 148.82 242.521L148.514 242.126ZM138.575 222.544C138.575 230.63 142.466 237.843 148.514 242.521L148.82 242.126C142.886 237.536 139.075 230.465 139.075 222.544H138.575ZM164.822 197.021C150.356 197.021 138.575 208.464 138.575 222.544H139.075C139.075 208.753 150.619 197.521 164.822 197.521V197.021ZM179.561 197.021H164.822V197.521H179.561V197.021ZM174.744 182.986C174.744 188.338 176.451 193.308 179.357 197.415L179.765 197.126C176.916 193.1 175.244 188.23 175.244 182.986H174.744ZM179.357 168.556C176.451 172.663 174.744 177.633 174.744 182.986H175.244C175.244 177.742 176.916 172.872 179.765 168.845L179.357 168.556ZM134.304 168.951H179.561V168.451H134.304V168.951ZM108.058 143.427C108.058 157.508 119.839 168.951 134.304 168.951V168.451C120.101 168.451 108.558 157.218 108.558 143.427H108.058ZM134.304 117.904C119.839 117.904 108.058 129.347 108.058 143.427H108.558C108.558 129.636 120.101 118.404 134.304 118.404V117.904ZM272.764 117.904H134.304V118.404H272.764V117.904ZM299.011 143.427C299.011 129.347 287.23 117.904 272.764 117.904V118.404C286.967 118.404 298.511 129.636 298.511 143.427H299.011ZM294.399 157.857C297.304 153.75 299.011 148.78 299.011 143.427H298.511C298.511 148.671 296.839 153.541 293.99 157.568L294.399 157.857ZM339.451 157.462H294.194V157.962H339.451V157.462ZM365.698 182.986C365.698 168.905 353.917 157.462 339.451 157.462V157.962C353.654 157.962 365.198 169.195 365.198 182.986H365.698ZM339.451 208.509C353.917 208.509 365.698 197.066 365.698 182.986H365.198C365.198 196.777 353.654 208.009 339.451 208.009V208.509ZM324.738 208.509H339.451V208.009H324.738V208.509ZM339.451 168.951C347.422 168.951 353.895 175.254 353.895 182.986H354.395C354.395 174.965 347.685 168.451 339.451 168.451V168.951ZM200.991 168.951H339.451V168.451H200.991V168.951ZM186.547 182.986C186.547 175.254 193.02 168.951 200.991 168.951V168.451C192.757 168.451 186.047 174.965 186.047 182.986H186.547ZM200.991 197.021C193.02 197.021 186.547 190.718 186.547 182.986H186.047C186.047 191.007 192.757 197.521 200.991 197.521V197.021ZM303.282 197.021H200.991V197.521H303.282V197.021ZM339.451 197.021H303.282V197.521H339.451V197.021ZM353.895 182.986C353.895 190.718 347.422 197.021 339.451 197.021V197.521C347.685 197.521 354.395 191.007 354.395 182.986H353.895ZM134.304 157.462C126.333 157.462 119.86 151.159 119.86 143.427H119.36C119.36 151.448 126.07 157.962 134.304 157.962V157.462ZM272.764 157.462H134.304V157.962H272.764V157.462ZM287.208 143.427C287.208 151.159 280.735 157.462 272.764 157.462V157.962C280.998 157.962 287.708 151.448 287.708 143.427H287.208ZM272.764 129.392C280.735 129.392 287.208 135.695 287.208 143.427H287.708C287.708 135.406 280.998 128.892 272.764 128.892V129.392ZM134.304 129.392H272.764V128.892H134.304V129.392ZM119.86 143.427C119.86 135.695 126.333 129.392 134.304 129.392V128.892C126.07 128.892 119.36 135.406 119.36 143.427H119.86ZM164.822 208.509H303.282V208.009H164.822V208.509ZM150.378 222.544C150.378 214.812 156.851 208.509 164.822 208.509V208.009C156.589 208.009 149.878 214.523 149.878 222.544H150.378ZM164.822 236.579C156.851 236.579 150.378 230.276 150.378 222.544H149.878C149.878 230.565 156.589 237.079 164.822 237.079V236.579ZM233.601 236.579H164.822V237.079H233.601V236.579ZM301.587 209.109C274.989 209.109 250.875 219.645 233.426 236.65L233.775 237.008C251.133 220.092 275.123 209.609 301.587 209.609V209.109ZM309.714 209.445C307.034 209.226 304.325 209.109 301.587 209.109V209.609C304.311 209.609 307.006 209.726 309.673 209.943L309.714 209.445ZM303.282 208.509C305.52 208.509 307.664 209.015 309.587 209.92L309.8 209.468C307.812 208.532 305.596 208.009 303.282 208.009V208.509ZM164.822 248.068H223.944V247.568H164.822V248.068ZM150.378 262.103C150.378 254.371 156.851 248.068 164.822 248.068V247.568C156.588 247.568 149.878 254.081 149.878 262.103H150.378ZM164.822 276.138C156.851 276.138 150.378 269.835 150.378 262.103H149.878C149.878 270.124 156.588 276.638 164.822 276.638V276.138ZM209.418 276.138H164.822V276.638H209.418V276.138ZM223.744 247.668C217.312 256.235 212.338 265.9 209.179 276.315L209.658 276.46C212.799 266.102 217.746 256.49 224.144 247.968L223.744 247.668ZM164.822 287.626H206.823V287.126H164.822V287.626ZM150.378 301.661C150.378 293.929 156.851 287.626 164.822 287.626V287.126C156.588 287.126 149.878 293.639 149.878 301.661H150.378ZM164.822 315.696C156.851 315.696 150.378 309.394 150.378 301.661H149.878C149.878 309.683 156.588 316.196 164.822 316.196V315.696ZM206.475 315.696H164.822V316.196H206.475V315.696ZM205.263 302.76C205.263 307.249 205.597 311.661 206.227 315.982L206.722 315.91C206.095 311.612 205.763 307.224 205.763 302.76H205.263ZM206.577 287.334C205.717 292.354 205.263 297.506 205.263 302.76H205.763C205.763 297.535 206.215 292.412 207.07 287.418L206.577 287.334ZM164.822 355.255C156.851 355.255 150.378 348.952 150.378 341.22H149.878C149.878 349.241 156.588 355.755 164.822 355.755V355.255ZM222.342 355.255H164.822V355.755H222.342V355.255ZM208.541 327.001C211.401 337.366 216.046 347.025 222.137 355.649L222.546 355.36C216.487 346.783 211.867 337.176 209.023 326.868L208.541 327.001ZM164.822 327.185H208.782V326.685H164.822V327.185ZM150.378 341.22C150.378 333.487 156.851 327.185 164.822 327.185V326.685C156.588 326.685 149.878 333.198 149.878 341.22H150.378ZM301.587 384.924C254.975 384.924 217.066 348.059 217.066 302.76H216.566C216.566 348.348 254.713 385.424 301.587 385.424V384.924ZM386.108 302.76C386.108 348.059 348.199 384.924 301.587 384.924V385.424C348.461 385.424 386.608 348.348 386.608 302.76H386.108ZM301.587 220.597C348.199 220.597 386.108 257.462 386.108 302.76H386.608C386.608 257.173 348.461 220.097 301.587 220.097V220.597ZM217.066 302.76C217.066 257.462 254.975 220.597 301.587 220.597V220.097C254.713 220.097 216.566 257.173 216.566 302.76H217.066ZM301.56 295.837C293.722 295.837 287.421 290.479 287.421 283.98H286.921C286.921 290.832 293.53 296.337 301.56 296.337V295.837ZM329.279 320.911C329.279 307.061 316.82 295.837 301.56 295.837V296.337C316.593 296.337 328.779 307.384 328.779 320.911H329.279ZM308.154 345.263C320.248 342.583 329.279 332.699 329.279 320.911H328.779C328.779 332.426 319.95 342.137 308.046 344.775L308.154 345.263ZM308.35 347.766V345.019H307.85V347.766H308.35ZM301.56 354.374C305.303 354.374 308.35 351.421 308.35 347.766H307.85C307.85 351.132 305.04 353.874 301.56 353.874V354.374ZM294.77 347.766C294.77 351.421 297.817 354.374 301.56 354.374V353.874C298.08 353.874 295.27 351.132 295.27 347.766H294.77ZM294.77 345.019V347.766H295.27V345.019H294.77ZM273.841 320.911C273.841 332.699 282.872 342.583 294.966 345.263L295.074 344.775C283.17 342.137 274.341 332.426 274.341 320.911H273.841ZM280.631 314.303C276.888 314.303 273.841 317.255 273.841 320.911H274.341C274.341 317.545 277.151 314.803 280.631 314.803V314.303ZM287.421 320.911C287.421 317.255 284.374 314.303 280.631 314.303V314.803C284.111 314.803 286.921 317.545 286.921 320.911H287.421ZM301.56 332.769C293.722 332.769 287.421 327.41 287.421 320.911H286.921C286.921 327.764 293.53 333.269 301.56 333.269V332.769ZM315.699 320.911C315.699 327.41 309.398 332.769 301.56 332.769V333.269C309.59 333.269 316.199 327.764 316.199 320.911H315.699ZM301.56 309.053C309.398 309.053 315.699 314.411 315.699 320.911H316.199C316.199 314.058 309.59 308.553 301.56 308.553V309.053ZM273.841 283.98C273.841 297.829 286.3 309.053 301.56 309.053V308.553C286.527 308.553 274.341 297.506 274.341 283.98H273.841ZM294.966 259.628C282.872 262.308 273.841 272.192 273.841 283.98H274.341C274.341 272.464 283.17 262.754 295.074 260.116L294.966 259.628ZM294.77 256.565V259.872H295.27V256.565H294.77ZM301.56 249.957C297.817 249.957 294.77 252.909 294.77 256.565H295.27C295.27 253.199 298.08 250.457 301.56 250.457V249.957ZM308.35 256.565C308.35 252.909 305.303 249.957 301.56 249.957V250.457C305.04 250.457 307.85 253.199 307.85 256.565H308.35ZM308.35 259.872V256.565H307.85V259.872H308.35ZM329.279 283.98C329.279 272.192 320.248 262.308 308.154 259.628L308.046 260.116C319.95 262.754 328.779 272.464 328.779 283.98H329.279ZM322.489 290.588C326.232 290.588 329.279 287.636 329.279 283.98H328.779C328.779 287.346 325.969 290.088 322.489 290.088V290.588ZM315.699 283.98C315.699 287.636 318.746 290.588 322.489 290.588V290.088C319.009 290.088 316.199 287.346 316.199 283.98H315.699ZM301.56 272.122C309.398 272.122 315.699 277.48 315.699 283.98H316.199C316.199 277.127 309.59 271.622 301.56 271.622V272.122ZM287.421 283.98C287.421 277.48 293.722 272.122 301.56 272.122V271.622C293.53 271.622 286.921 277.127 286.921 283.98H287.421Z" fill="white"/>
</svg>
