<svg width="52" height="52" viewBox="0 0 52 52" fill="none" xmlns="http://www.w3.org/2000/svg">
<rect width="52" height="52" fill="#5636D3"/>
<path fill-rule="evenodd" clip-rule="evenodd" d="M34.4691 20.0197C34.589 20.1901 34.6921 20.3737 34.7762 20.5686C39.7361 21.9067 43.3875 26.3349 43.3875 31.5771C43.3875 37.8757 38.1166 43 31.6378 43C28.2553 43 25.2027 41.6028 23.0569 39.3715H14.9116C13.1585 39.3715 11.7323 37.9849 11.7323 36.2806C11.7323 35.3018 12.2032 34.4283 12.9359 33.8616C12.2032 33.2949 11.7323 32.4215 11.7323 31.4426C11.7323 30.4638 12.2032 29.5904 12.9359 29.0237C12.2032 28.457 11.7323 27.5835 11.7323 26.6047C11.7323 25.6259 12.2032 24.7525 12.9359 24.1857C12.2032 23.619 11.7323 22.7456 11.7323 21.7668C11.7323 20.0625 13.1585 18.6759 14.9116 18.6759H16.7142C16.3622 18.1785 16.1557 17.5768 16.1557 16.9288C16.1557 16.2809 16.3623 15.6792 16.7142 15.1818H11.1793C9.42628 15.1818 8 13.7952 8 12.0909C8 10.3866 9.42628 9 11.1793 9H28.1128C29.8658 9 31.2921 10.3866 31.2921 12.0909C31.2921 12.7389 31.0855 13.3406 30.7337 13.8379H36.2685C38.0215 13.8379 39.4478 15.2245 39.4478 16.9288C39.4478 18.6331 38.0215 20.0197 36.2685 20.0197H34.4691ZM38.0655 16.9288C38.0655 15.9656 37.2594 15.1818 36.2685 15.1818H19.335C18.3441 15.1818 17.538 15.9656 17.538 16.9288C17.538 17.8921 18.3441 18.6759 19.335 18.6759H31.845H36.2685C37.2594 18.6759 38.0655 17.8921 38.0655 16.9288ZM9.38232 12.0909C9.38232 13.0542 10.1884 13.8379 11.1793 13.8379H28.1128C29.1037 13.8379 29.9098 13.0542 29.9098 12.0909C29.9098 11.1276 29.1037 10.3439 28.1128 10.3439H11.1793C10.1884 10.3439 9.38232 11.1276 9.38232 12.0909ZM31.845 20.0197H14.9116C13.9208 20.0197 13.1146 20.8035 13.1146 21.7668C13.1146 22.7301 13.9208 23.5138 14.9116 23.5138H23.3232C25.4515 21.4395 28.3931 20.1542 31.6378 20.1542C31.9717 20.1542 32.3022 20.1686 32.6292 20.1953C32.39 20.0826 32.1234 20.0197 31.845 20.0197ZM22.1422 24.8577H14.9116C13.9207 24.8577 13.1146 25.6414 13.1146 26.6047C13.1146 27.5681 13.9207 28.3517 14.9116 28.3517H20.3657C20.7509 27.0814 21.3576 25.9027 22.1422 24.8577ZM20.0483 29.6956H14.9116C13.9207 29.6956 13.1146 30.4793 13.1146 31.4426C13.1146 32.406 13.9207 33.1897 14.9116 33.1897H20.0057C19.9287 32.6627 19.888 32.1245 19.888 31.5771C19.888 30.9363 19.9435 30.3079 20.0483 29.6956ZM13.1146 36.2806C13.1146 37.2439 13.9207 38.0276 14.9116 38.0276H21.9462C21.2032 36.9758 20.6366 35.7977 20.2879 34.5335H14.9116C13.9207 34.5335 13.1146 35.3172 13.1146 36.2806ZM21.2704 31.5771C21.2704 37.1347 25.9212 41.6561 31.6378 41.6561C37.3543 41.6561 42.0052 37.1347 42.0052 31.5771C42.0052 26.0195 37.3543 21.4981 31.6378 21.4981C25.9212 21.4981 21.2704 26.0195 21.2704 31.5771ZM29.8747 29.2802C29.8747 30.0967 30.6641 30.7609 31.6344 30.7609C33.4869 30.7609 34.9939 32.1228 34.9939 33.7969C34.9939 35.2219 33.9017 36.42 32.4343 36.7452V37.0811C32.4343 37.5105 32.0761 37.8588 31.6344 37.8588C31.1928 37.8588 30.8346 37.5105 30.8346 37.0811V36.7452C29.3671 36.42 28.275 35.2219 28.275 33.7969C28.275 33.3675 28.6332 33.0193 29.0749 33.0193C29.5166 33.0193 29.8747 33.3675 29.8747 33.7969C29.8747 34.6134 30.6641 35.2776 31.6344 35.2776C32.6048 35.2776 33.3941 34.6134 33.3941 33.7969C33.3941 32.9804 32.6048 32.3161 31.6344 32.3161C29.782 32.3161 28.275 30.9542 28.275 29.2802C28.275 27.8553 29.3671 26.6571 30.8346 26.3319V25.9275C30.8346 25.4981 31.1928 25.1499 31.6344 25.1499C32.0761 25.1499 32.4343 25.4981 32.4343 25.9275V26.3319C33.9017 26.6571 34.9939 27.8553 34.9939 29.2802C34.9939 29.7096 34.6357 30.0579 34.194 30.0579C33.7523 30.0579 33.3941 29.7096 33.3941 29.2802C33.3941 28.4637 32.6048 27.7995 31.6344 27.7995C30.6641 27.7995 29.8747 28.4637 29.8747 29.2802Z" fill="#FFFFFF"/>
<path d="M34.7762 20.5686L34.5466 20.6677L34.5945 20.7785L34.7111 20.8099L34.7762 20.5686ZM34.4691 20.0197V19.7697H33.9874L34.2647 20.1637L34.4691 20.0197ZM23.0569 39.3715L23.2371 39.1982L23.1634 39.1215H23.0569V39.3715ZM12.9359 33.8616L13.0889 34.0594L13.3445 33.8616L13.0889 33.6639L12.9359 33.8616ZM12.9359 29.0237L13.0889 29.2214L13.3445 29.0237L13.0889 28.8259L12.9359 29.0237ZM12.9359 24.1857L13.0889 24.3835L13.3445 24.1857L13.0889 23.988L12.9359 24.1857ZM16.7142 18.6759V18.9259H17.1973L16.9182 18.5315L16.7142 18.6759ZM16.7142 15.1818L16.9182 15.3262L17.1973 14.9318H16.7142V15.1818ZM30.7337 13.8379L30.5296 13.6935L30.2505 14.0879H30.7337V13.8379ZM23.3232 23.5138V23.7638H23.4248L23.4977 23.6928L23.3232 23.5138ZM32.6292 20.1953L32.6088 20.4444L32.7357 19.9691L32.6292 20.1953ZM22.1422 24.8577L22.3421 25.0078L22.6425 24.6077H22.1422V24.8577ZM20.3657 28.3517V28.6017H20.5511L20.6049 28.4243L20.3657 28.3517ZM20.0483 29.6956L20.2947 29.7378L20.3448 29.4456H20.0483V29.6956ZM20.0057 33.1897V33.4397H20.2948L20.253 33.1536L20.0057 33.1897ZM21.9462 38.0276V38.2776H22.4288L22.1504 37.8834L21.9462 38.0276ZM20.2879 34.5335L20.5289 34.4671L20.4782 34.2835H20.2879V34.5335ZM32.4343 36.7452L32.3802 36.5011L32.1843 36.5445V36.7452H32.4343ZM30.8346 36.7452H31.0846V36.5445L30.8887 36.5011L30.8346 36.7452ZM30.8346 26.3319L30.8887 26.576L31.0846 26.5326V26.3319H30.8346ZM32.4343 26.3319H32.1843V26.5326L32.3802 26.576L32.4343 26.3319ZM35.0057 20.4695C34.9148 20.2589 34.8033 20.0602 34.6735 19.8758L34.2647 20.1637C34.3747 20.3199 34.4693 20.4886 34.5466 20.6677L35.0057 20.4695ZM43.6375 31.5771C43.6375 26.2145 39.9031 21.6928 34.8413 20.3272L34.7111 20.8099C39.5691 22.1206 43.1375 26.4552 43.1375 31.5771H43.6375ZM31.6378 43.25C38.2479 43.25 43.6375 38.0204 43.6375 31.5771H43.1375C43.1375 37.731 37.9852 42.75 31.6378 42.75V43.25ZM22.8767 39.5448C25.0683 41.8237 28.1854 43.25 31.6378 43.25V42.75C28.3252 42.75 25.3371 41.3819 23.2371 39.1982L22.8767 39.5448ZM14.9116 39.6215H23.0569V39.1215H14.9116V39.6215ZM11.4823 36.2806C11.4823 38.1295 13.0272 39.6215 14.9116 39.6215V39.1215C13.2899 39.1215 11.9823 37.8402 11.9823 36.2806H11.4823ZM12.783 33.6639C11.9933 34.2746 11.4823 35.2192 11.4823 36.2806H11.9823C11.9823 35.3844 12.4131 34.582 13.0889 34.0594L12.783 33.6639ZM11.4823 31.4426C11.4823 32.5041 11.9933 33.4486 12.783 34.0594L13.0889 33.6639C12.4131 33.1412 11.9823 32.3388 11.9823 31.4426H11.4823ZM12.783 28.8259C11.9933 29.4367 11.4823 30.3812 11.4823 31.4426H11.9823C11.9823 30.5465 12.4131 29.7441 13.0889 29.2214L12.783 28.8259ZM11.4823 26.6047C11.4823 27.6661 11.9933 28.6107 12.783 29.2214L13.0889 28.8259C12.4131 28.3033 11.9823 27.5009 11.9823 26.6047H11.4823ZM12.783 23.988C11.9933 24.5987 11.4823 25.5433 11.4823 26.6047H11.9823C11.9823 25.7085 12.4131 24.9062 13.0889 24.3835L12.783 23.988ZM11.4823 21.7668C11.4823 22.8282 11.9933 23.7727 12.783 24.3835L13.0889 23.988C12.4131 23.4653 11.9823 22.663 11.9823 21.7668H11.4823ZM14.9116 18.4259C13.0272 18.4259 11.4823 19.9178 11.4823 21.7668H11.9823C11.9823 20.2071 13.2899 18.9259 14.9116 18.9259V18.4259ZM16.7142 18.4259H14.9116V18.9259H16.7142V18.4259ZM15.9057 16.9288C15.9057 17.6309 16.1297 18.2827 16.5101 18.8203L16.9182 18.5315C16.5947 18.0743 16.4057 17.5227 16.4057 16.9288H15.9057ZM16.5101 15.0374C16.1298 15.575 15.9057 16.2267 15.9057 16.9288H16.4057C16.4057 16.335 16.5948 15.7834 16.9182 15.3262L16.5101 15.0374ZM11.1793 15.4318H16.7142V14.9318H11.1793V15.4318ZM7.75 12.0909C7.75 13.9399 9.2949 15.4318 11.1793 15.4318V14.9318C9.55766 14.9318 8.25 13.6505 8.25 12.0909H7.75ZM11.1793 8.75C9.2949 8.75 7.75 10.2419 7.75 12.0909H8.25C8.25 10.5313 9.55766 9.25 11.1793 9.25V8.75ZM28.1128 8.75H11.1793V9.25H28.1128V8.75ZM31.5421 12.0909C31.5421 10.2419 29.9972 8.75 28.1128 8.75V9.25C29.7345 9.25 31.0421 10.5313 31.0421 12.0909H31.5421ZM30.9377 13.9823C31.318 13.4448 31.5421 12.793 31.5421 12.0909H31.0421C31.0421 12.6847 30.853 13.2364 30.5296 13.6935L30.9377 13.9823ZM36.2685 13.5879H30.7337V14.0879H36.2685V13.5879ZM39.6978 16.9288C39.6978 15.0799 38.1529 13.5879 36.2685 13.5879V14.0879C37.8901 14.0879 39.1978 15.3692 39.1978 16.9288H39.6978ZM36.2685 20.2697C38.1529 20.2697 39.6978 18.7778 39.6978 16.9288H39.1978C39.1978 18.4885 37.8901 19.7697 36.2685 19.7697V20.2697ZM34.4691 20.2697H36.2685V19.7697H34.4691V20.2697ZM36.2685 15.4318C37.128 15.4318 37.8155 16.1102 37.8155 16.9288H38.3155C38.3155 15.8209 37.3908 14.9318 36.2685 14.9318V15.4318ZM19.335 15.4318H36.2685V14.9318H19.335V15.4318ZM17.788 16.9288C17.788 16.1102 18.4755 15.4318 19.335 15.4318V14.9318C18.2127 14.9318 17.288 15.8209 17.288 16.9288H17.788ZM19.335 18.4259C18.4755 18.4259 17.788 17.7475 17.788 16.9288H17.288C17.288 18.0368 18.2127 18.9259 19.335 18.9259V18.4259ZM31.845 18.4259H19.335V18.9259H31.845V18.4259ZM36.2685 18.4259H31.845V18.9259H36.2685V18.4259ZM37.8155 16.9288C37.8155 17.7475 37.128 18.4259 36.2685 18.4259V18.9259C37.3908 18.9259 38.3155 18.0368 38.3155 16.9288H37.8155ZM11.1793 13.5879C10.3198 13.5879 9.63232 12.9095 9.63232 12.0909H9.13232C9.13232 13.1989 10.057 14.0879 11.1793 14.0879V13.5879ZM28.1128 13.5879H11.1793V14.0879H28.1128V13.5879ZM29.6598 12.0909C29.6598 12.9095 28.9723 13.5879 28.1128 13.5879V14.0879C29.2351 14.0879 30.1598 13.1989 30.1598 12.0909H29.6598ZM28.1128 10.5939C28.9723 10.5939 29.6598 11.2723 29.6598 12.0909H30.1598C30.1598 10.983 29.2351 10.0939 28.1128 10.0939V10.5939ZM11.1793 10.5939H28.1128V10.0939H11.1793V10.5939ZM9.63232 12.0909C9.63232 11.2723 10.3198 10.5939 11.1793 10.5939V10.0939C10.057 10.0939 9.13232 10.983 9.13232 12.0909H9.63232ZM14.9116 20.2697H31.845V19.7697H14.9116V20.2697ZM13.3646 21.7668C13.3646 20.9482 14.0521 20.2697 14.9116 20.2697V19.7697C13.7894 19.7697 12.8646 20.6588 12.8646 21.7668H13.3646ZM14.9116 23.2638C14.0521 23.2638 13.3646 22.5854 13.3646 21.7668H12.8646C12.8646 22.8747 13.7894 23.7638 14.9116 23.7638V23.2638ZM23.3232 23.2638H14.9116V23.7638H23.3232V23.2638ZM31.6378 19.9042C28.3261 19.9042 25.3224 21.2163 23.1487 23.3348L23.4977 23.6928C25.5807 21.6628 28.4601 20.4042 31.6378 20.4042V19.9042ZM32.6495 19.9461C32.3162 19.9189 31.9789 19.9042 31.6378 19.9042V20.4042C31.9645 20.4042 32.2883 20.4183 32.6088 20.4444L32.6495 19.9461ZM31.845 20.2697C32.0856 20.2697 32.3159 20.3241 32.5226 20.4214L32.7357 19.9691C32.4642 19.8412 32.1613 19.7697 31.845 19.7697V20.2697ZM14.9116 25.1077H22.1422V24.6077H14.9116V25.1077ZM13.3646 26.6047C13.3646 25.7861 14.0521 25.1077 14.9116 25.1077V24.6077C13.7893 24.6077 12.8646 25.4968 12.8646 26.6047H13.3646ZM14.9116 28.1017C14.0521 28.1017 13.3646 27.4234 13.3646 26.6047H12.8646C12.8646 27.7127 13.7893 28.6017 14.9116 28.6017V28.1017ZM20.3657 28.1017H14.9116V28.6017H20.3657V28.1017ZM21.9423 24.7076C21.1406 25.7753 20.5204 26.9802 20.1265 28.2792L20.6049 28.4243C20.9815 27.1827 21.5745 26.0301 22.3421 25.0078L21.9423 24.7076ZM14.9116 29.9456H20.0483V29.4456H14.9116V29.9456ZM13.3646 31.4426C13.3646 30.624 14.0521 29.9456 14.9116 29.9456V29.4456C13.7893 29.4456 12.8646 30.3346 12.8646 31.4426H13.3646ZM14.9116 32.9397C14.0521 32.9397 13.3646 32.2613 13.3646 31.4426H12.8646C12.8646 32.5507 13.7893 33.4397 14.9116 33.4397V32.9397ZM20.0057 32.9397H14.9116V33.4397H20.0057V32.9397ZM19.638 31.5771C19.638 32.1369 19.6797 32.6872 19.7583 33.2258L20.253 33.1536C20.1778 32.6382 20.138 32.112 20.138 31.5771H19.638ZM19.8019 29.6534C19.6947 30.2794 19.638 30.9218 19.638 31.5771H20.138C20.138 30.9507 20.1922 30.3365 20.2947 29.7378L19.8019 29.6534ZM14.9116 37.7776C14.0521 37.7776 13.3646 37.0993 13.3646 36.2806H12.8646C12.8646 37.3886 13.7893 38.2776 14.9116 38.2776V37.7776ZM21.9462 37.7776H14.9116V38.2776H21.9462V37.7776ZM20.0469 34.6C20.4035 35.8927 20.9828 37.0971 21.742 38.1718L22.1504 37.8834C21.4236 36.8545 20.8697 35.7026 20.5289 34.4671L20.0469 34.6ZM14.9116 34.7835H20.2879V34.2835H14.9116V34.7835ZM13.3646 36.2806C13.3646 35.4619 14.0521 34.7835 14.9116 34.7835V34.2835C13.7893 34.2835 12.8646 35.1726 12.8646 36.2806H13.3646ZM31.6378 41.4061C26.0525 41.4061 21.5204 36.99 21.5204 31.5771H21.0204C21.0204 37.2794 25.7898 41.9061 31.6378 41.9061V41.4061ZM41.7552 31.5771C41.7552 36.99 37.223 41.4061 31.6378 41.4061V41.9061C37.4857 41.9061 42.2552 37.2794 42.2552 31.5771H41.7552ZM31.6378 21.7481C37.223 21.7481 41.7552 26.1642 41.7552 31.5771H42.2552C42.2552 25.8748 37.4857 21.2481 31.6378 21.2481V21.7481ZM21.5204 31.5771C21.5204 26.1642 26.0525 21.7481 31.6378 21.7481V21.2481C25.7898 21.2481 21.0204 25.8748 21.0204 31.5771H21.5204ZM31.6344 30.5109C30.76 30.5109 30.1247 29.9199 30.1247 29.2802H29.6247C29.6247 30.2734 30.5682 31.0109 31.6344 31.0109V30.5109ZM35.2439 33.7969C35.2439 31.9615 33.6005 30.5109 31.6344 30.5109V31.0109C33.3732 31.0109 34.7439 32.2841 34.7439 33.7969H35.2439ZM32.4884 36.9893C34.0507 36.6431 35.2439 35.358 35.2439 33.7969H34.7439C34.7439 35.0857 33.7528 36.197 32.3802 36.5011L32.4884 36.9893ZM32.6843 37.0811V36.7452H32.1843V37.0811H32.6843ZM31.6344 38.1088C32.2075 38.1088 32.6843 37.6552 32.6843 37.0811H32.1843C32.1843 37.3659 31.9448 37.6088 31.6344 37.6088V38.1088ZM30.5846 37.0811C30.5846 37.6552 31.0614 38.1088 31.6344 38.1088V37.6088C31.3241 37.6088 31.0846 37.3659 31.0846 37.0811H30.5846ZM30.5846 36.7452V37.0811H31.0846V36.7452H30.5846ZM28.025 33.7969C28.025 35.358 29.2182 36.6431 30.7805 36.9893L30.8887 36.5011C29.5161 36.197 28.525 35.0857 28.525 33.7969H28.025ZM29.0749 32.7693C28.5018 32.7693 28.025 33.2228 28.025 33.7969H28.525C28.525 33.5121 28.7646 33.2693 29.0749 33.2693V32.7693ZM30.1247 33.7969C30.1247 33.2228 29.6479 32.7693 29.0749 32.7693V33.2693C29.3852 33.2693 29.6247 33.5121 29.6247 33.7969H30.1247ZM31.6344 35.0276C30.76 35.0276 30.1247 34.4366 30.1247 33.7969H29.6247C29.6247 34.7901 30.5682 35.5276 31.6344 35.5276V35.0276ZM33.1441 33.7969C33.1441 34.4366 32.5089 35.0276 31.6344 35.0276V35.5276C32.7007 35.5276 33.6441 34.7901 33.6441 33.7969H33.1441ZM31.6344 32.5661C32.5089 32.5661 33.1441 33.1571 33.1441 33.7969H33.6441C33.6441 32.8036 32.7007 32.0661 31.6344 32.0661V32.5661ZM28.025 29.2802C28.025 31.1155 29.6684 32.5661 31.6344 32.5661V32.0661C29.8957 32.0661 28.525 30.7929 28.525 29.2802H28.025ZM30.7805 26.0878C29.2182 26.4341 28.025 27.7191 28.025 29.2802H28.525C28.525 27.9915 29.5161 26.8802 30.8887 26.576L30.7805 26.0878ZM30.5846 25.9275V26.3319H31.0846V25.9275H30.5846ZM31.6344 24.8999C31.0614 24.8999 30.5846 25.3534 30.5846 25.9275H31.0846C31.0846 25.6427 31.3241 25.3999 31.6344 25.3999V24.8999ZM32.6843 25.9275C32.6843 25.3534 32.2075 24.8999 31.6344 24.8999V25.3999C31.9448 25.3999 32.1843 25.6427 32.1843 25.9275H32.6843ZM32.6843 26.3319V25.9275H32.1843V26.3319H32.6843ZM35.2439 29.2802C35.2439 27.7191 34.0507 26.4341 32.4884 26.0878L32.3802 26.576C33.7528 26.8802 34.7439 27.9915 34.7439 29.2802H35.2439ZM34.194 30.3079C34.7671 30.3079 35.2439 29.8543 35.2439 29.2802H34.7439C34.7439 29.565 34.5043 29.8079 34.194 29.8079V30.3079ZM33.1441 29.2802C33.1441 29.8543 33.6209 30.3079 34.194 30.3079V29.8079C33.8837 29.8079 33.6441 29.565 33.6441 29.2802H33.1441ZM31.6344 28.0495C32.5089 28.0495 33.1441 28.6405 33.1441 29.2802H33.6441C33.6441 28.287 32.7007 27.5495 31.6344 27.5495V28.0495ZM30.1247 29.2802C30.1247 28.6405 30.76 28.0495 31.6344 28.0495V27.5495C30.5682 27.5495 29.6247 28.287 29.6247 29.2802H30.1247Z" fill="#FFFFFF"/>
</svg>
