<svg width="61" height="76" viewBox="0 0 61 76" fill="none" xmlns="http://www.w3.org/2000/svg">
<path fill-rule="evenodd" clip-rule="evenodd" d="M38.4691 12.0197C38.589 12.1901 38.6921 12.3737 38.7762 12.5686C43.7361 13.9067 47.3875 18.3349 47.3875 23.5771C47.3875 29.8757 42.1166 35 35.6378 35C32.2553 35 29.2027 33.6028 27.0569 31.3715H18.9116C17.1585 31.3715 15.7323 29.9849 15.7323 28.2806C15.7323 27.3018 16.2032 26.4283 16.9359 25.8616C16.2032 25.2949 15.7323 24.4215 15.7323 23.4426C15.7323 22.4638 16.2032 21.5904 16.9359 21.0237C16.2032 20.457 15.7323 19.5835 15.7323 18.6047C15.7323 17.6259 16.2032 16.7525 16.9359 16.1857C16.2032 15.619 15.7323 14.7456 15.7323 13.7668C15.7323 12.0625 17.1585 10.6759 18.9116 10.6759H20.7142C20.3622 10.1785 20.1557 9.57679 20.1557 8.92884C20.1557 8.28089 20.3623 7.67917 20.7142 7.18181H15.1793C13.4263 7.18181 12 5.7952 12 4.0909C12 2.38661 13.4263 1 15.1793 1H32.1128C33.8658 1 35.2921 2.38661 35.2921 4.0909C35.2921 4.73885 35.0855 5.34057 34.7337 5.83794H40.2685C42.0215 5.83794 43.4478 7.22454 43.4478 8.92884C43.4478 10.6331 42.0215 12.0197 40.2685 12.0197H38.4691ZM42.0655 8.92884C42.0655 7.96555 41.2594 7.18181 40.2685 7.18181H23.335C22.3441 7.18181 21.538 7.96555 21.538 8.92884C21.538 9.89213 22.3441 10.6759 23.335 10.6759H35.845H40.2685C41.2594 10.6759 42.0655 9.89213 42.0655 8.92884ZM13.3823 4.0909C13.3823 5.05419 14.1884 5.83794 15.1793 5.83794H32.1128C33.1037 5.83794 33.9098 5.05419 33.9098 4.0909C33.9098 3.12762 33.1037 2.34387 32.1128 2.34387H15.1793C14.1884 2.34387 13.3823 3.12762 13.3823 4.0909ZM35.845 12.0197H18.9116C17.9208 12.0197 17.1146 12.8035 17.1146 13.7668C17.1146 14.7301 17.9208 15.5138 18.9116 15.5138H27.3232C29.4515 13.4395 32.3931 12.1542 35.6378 12.1542C35.9717 12.1542 36.3022 12.1686 36.6292 12.1953C36.39 12.0826 36.1234 12.0197 35.845 12.0197ZM26.1422 16.8577H18.9116C17.9207 16.8577 17.1146 17.6414 17.1146 18.6047C17.1146 19.5681 17.9207 20.3517 18.9116 20.3517H24.3657C24.7509 19.0814 25.3576 17.9027 26.1422 16.8577ZM24.0483 21.6956H18.9116C17.9207 21.6956 17.1146 22.4793 17.1146 23.4426C17.1146 24.406 17.9207 25.1897 18.9116 25.1897H24.0057C23.9287 24.6627 23.888 24.1245 23.888 23.5771C23.888 22.9363 23.9435 22.3079 24.0483 21.6956ZM17.1146 28.2806C17.1146 29.2439 17.9207 30.0276 18.9116 30.0276H25.9462C25.2032 28.9758 24.6366 27.7977 24.2879 26.5335H18.9116C17.9207 26.5335 17.1146 27.3172 17.1146 28.2806ZM25.2704 23.5771C25.2704 29.1347 29.9212 33.6561 35.6378 33.6561C41.3543 33.6561 46.0052 29.1347 46.0052 23.5771C46.0052 18.0195 41.3543 13.4981 35.6378 13.4981C29.9212 13.4981 25.2704 18.0195 25.2704 23.5771ZM33.8747 21.2802C33.8747 22.0967 34.6641 22.7609 35.6344 22.7609C37.4869 22.7609 38.9939 24.1228 38.9939 25.7969C38.9939 27.2219 37.9017 28.42 36.4343 28.7452V29.0811C36.4343 29.5105 36.0761 29.8588 35.6344 29.8588C35.1928 29.8588 34.8346 29.5105 34.8346 29.0811V28.7452C33.3671 28.42 32.275 27.2219 32.275 25.7969C32.275 25.3675 32.6332 25.0193 33.0749 25.0193C33.5166 25.0193 33.8747 25.3675 33.8747 25.7969C33.8747 26.6134 34.6641 27.2776 35.6344 27.2776C36.6048 27.2776 37.3941 26.6134 37.3941 25.7969C37.3941 24.9804 36.6048 24.3161 35.6344 24.3161C33.782 24.3161 32.275 22.9542 32.275 21.2802C32.275 19.8553 33.3671 18.6571 34.8346 18.3319V17.9275C34.8346 17.4981 35.1928 17.1499 35.6344 17.1499C36.0761 17.1499 36.4343 17.4981 36.4343 17.9275V18.3319C37.9017 18.6571 38.9939 19.8553 38.9939 21.2802C38.9939 21.7096 38.6357 22.0579 38.194 22.0579C37.7523 22.0579 37.3941 21.7096 37.3941 21.2802C37.3941 20.4637 36.6048 19.7995 35.6344 19.7995C34.6641 19.7995 33.8747 20.4637 33.8747 21.2802Z" fill="#FF872C"/>
<path d="M38.7762 12.5686L38.5466 12.6677L38.5945 12.7785L38.7111 12.8099L38.7762 12.5686ZM38.4691 12.0197V11.7697H37.9874L38.2647 12.1637L38.4691 12.0197ZM27.0569 31.3715L27.2371 31.1982L27.1634 31.1215H27.0569V31.3715ZM16.9359 25.8616L17.0889 26.0594L17.3445 25.8616L17.0889 25.6639L16.9359 25.8616ZM16.9359 21.0237L17.0889 21.2214L17.3445 21.0237L17.0889 20.8259L16.9359 21.0237ZM16.9359 16.1857L17.0889 16.3835L17.3445 16.1857L17.0889 15.988L16.9359 16.1857ZM20.7142 10.6759V10.9259H21.1973L20.9182 10.5315L20.7142 10.6759ZM20.7142 7.18181L20.9182 7.32619L21.1973 6.93181H20.7142V7.18181ZM34.7337 5.83794L34.5296 5.69355L34.2505 6.08794H34.7337V5.83794ZM27.3232 15.5138V15.7638H27.4248L27.4977 15.6928L27.3232 15.5138ZM36.6292 12.1953L36.6088 12.4444L36.7357 11.9691L36.6292 12.1953ZM26.1422 16.8577L26.3421 17.0078L26.6425 16.6077H26.1422V16.8577ZM24.3657 20.3517V20.6017H24.5511L24.6049 20.4243L24.3657 20.3517ZM24.0483 21.6956L24.2947 21.7378L24.3448 21.4456H24.0483V21.6956ZM24.0057 25.1897V25.4397H24.2948L24.253 25.1536L24.0057 25.1897ZM25.9462 30.0276V30.2776H26.4288L26.1504 29.8834L25.9462 30.0276ZM24.2879 26.5335L24.5289 26.4671L24.4782 26.2835H24.2879V26.5335ZM36.4343 28.7452L36.3802 28.5011L36.1843 28.5445V28.7452H36.4343ZM34.8346 28.7452H35.0846V28.5445L34.8887 28.5011L34.8346 28.7452ZM34.8346 18.3319L34.8887 18.576L35.0846 18.5326V18.3319H34.8346ZM36.4343 18.3319H36.1843V18.5326L36.3802 18.576L36.4343 18.3319ZM39.0057 12.4695C38.9148 12.2589 38.8033 12.0602 38.6735 11.8758L38.2647 12.1637C38.3747 12.3199 38.4693 12.4886 38.5466 12.6677L39.0057 12.4695ZM47.6375 23.5771C47.6375 18.2145 43.9031 13.6928 38.8413 12.3272L38.7111 12.8099C43.5691 14.1206 47.1375 18.4552 47.1375 23.5771H47.6375ZM35.6378 35.25C42.2479 35.25 47.6375 30.0204 47.6375 23.5771H47.1375C47.1375 29.731 41.9852 34.75 35.6378 34.75V35.25ZM26.8767 31.5448C29.0683 33.8237 32.1854 35.25 35.6378 35.25V34.75C32.3252 34.75 29.3371 33.3819 27.2371 31.1982L26.8767 31.5448ZM18.9116 31.6215H27.0569V31.1215H18.9116V31.6215ZM15.4823 28.2806C15.4823 30.1295 17.0272 31.6215 18.9116 31.6215V31.1215C17.2899 31.1215 15.9823 29.8402 15.9823 28.2806H15.4823ZM16.783 25.6639C15.9933 26.2746 15.4823 27.2192 15.4823 28.2806H15.9823C15.9823 27.3844 16.4131 26.582 17.0889 26.0594L16.783 25.6639ZM15.4823 23.4426C15.4823 24.5041 15.9933 25.4486 16.783 26.0594L17.0889 25.6639C16.4131 25.1412 15.9823 24.3388 15.9823 23.4426H15.4823ZM16.783 20.8259C15.9933 21.4367 15.4823 22.3812 15.4823 23.4426H15.9823C15.9823 22.5465 16.4131 21.7441 17.0889 21.2214L16.783 20.8259ZM15.4823 18.6047C15.4823 19.6661 15.9933 20.6107 16.783 21.2214L17.0889 20.8259C16.4131 20.3033 15.9823 19.5009 15.9823 18.6047H15.4823ZM16.783 15.988C15.9933 16.5987 15.4823 17.5433 15.4823 18.6047H15.9823C15.9823 17.7085 16.4131 16.9062 17.0889 16.3835L16.783 15.988ZM15.4823 13.7668C15.4823 14.8282 15.9933 15.7727 16.783 16.3835L17.0889 15.988C16.4131 15.4653 15.9823 14.663 15.9823 13.7668H15.4823ZM18.9116 10.4259C17.0272 10.4259 15.4823 11.9178 15.4823 13.7668H15.9823C15.9823 12.2071 17.2899 10.9259 18.9116 10.9259V10.4259ZM20.7142 10.4259H18.9116V10.9259H20.7142V10.4259ZM19.9057 8.92884C19.9057 9.63092 20.1297 10.2827 20.5101 10.8203L20.9182 10.5315C20.5947 10.0743 20.4057 9.52265 20.4057 8.92884H19.9057ZM20.5101 7.03742C20.1298 7.57498 19.9057 8.22674 19.9057 8.92884H20.4057C20.4057 8.33504 20.5948 7.78337 20.9182 7.32619L20.5101 7.03742ZM15.1793 7.43181H20.7142V6.93181H15.1793V7.43181ZM11.75 4.0909C11.75 5.93987 13.2949 7.43181 15.1793 7.43181V6.93181C13.5577 6.93181 12.25 5.65053 12.25 4.0909H11.75ZM15.1793 0.75C13.2949 0.75 11.75 2.24193 11.75 4.0909H12.25C12.25 2.53128 13.5577 1.25 15.1793 1.25V0.75ZM32.1128 0.75H15.1793V1.25H32.1128V0.75ZM35.5421 4.0909C35.5421 2.24193 33.9972 0.75 32.1128 0.75V1.25C33.7345 1.25 35.0421 2.53128 35.0421 4.0909H35.5421ZM34.9377 5.98232C35.318 5.44476 35.5421 4.793 35.5421 4.0909H35.0421C35.0421 4.6847 34.853 5.23637 34.5296 5.69355L34.9377 5.98232ZM40.2685 5.58794H34.7337V6.08794H40.2685V5.58794ZM43.6978 8.92884C43.6978 7.07987 42.1529 5.58794 40.2685 5.58794V6.08794C41.8901 6.08794 43.1978 7.36921 43.1978 8.92884H43.6978ZM40.2685 12.2697C42.1529 12.2697 43.6978 10.7778 43.6978 8.92884H43.1978C43.1978 10.4885 41.8901 11.7697 40.2685 11.7697V12.2697ZM38.4691 12.2697H40.2685V11.7697H38.4691V12.2697ZM40.2685 7.43181C41.128 7.43181 41.8155 8.11022 41.8155 8.92884H42.3155C42.3155 7.82089 41.3908 6.93181 40.2685 6.93181V7.43181ZM23.335 7.43181H40.2685V6.93181H23.335V7.43181ZM21.788 8.92884C21.788 8.11022 22.4755 7.43181 23.335 7.43181V6.93181C22.2127 6.93181 21.288 7.82089 21.288 8.92884H21.788ZM23.335 10.4259C22.4755 10.4259 21.788 9.74746 21.788 8.92884H21.288C21.288 10.0368 22.2127 10.9259 23.335 10.9259V10.4259ZM35.845 10.4259H23.335V10.9259H35.845V10.4259ZM40.2685 10.4259H35.845V10.9259H40.2685V10.4259ZM41.8155 8.92884C41.8155 9.74746 41.128 10.4259 40.2685 10.4259V10.9259C41.3908 10.9259 42.3155 10.0368 42.3155 8.92884H41.8155ZM15.1793 5.58794C14.3198 5.58794 13.6323 4.90952 13.6323 4.0909H13.1323C13.1323 5.19886 14.057 6.08794 15.1793 6.08794V5.58794ZM32.1128 5.58794H15.1793V6.08794H32.1128V5.58794ZM33.6598 4.0909C33.6598 4.90952 32.9723 5.58794 32.1128 5.58794V6.08794C33.2351 6.08794 34.1598 5.19886 34.1598 4.0909H33.6598ZM32.1128 2.59387C32.9723 2.59387 33.6598 3.27228 33.6598 4.0909H34.1598C34.1598 2.98295 33.2351 2.09387 32.1128 2.09387V2.59387ZM15.1793 2.59387H32.1128V2.09387H15.1793V2.59387ZM13.6323 4.0909C13.6323 3.27228 14.3198 2.59387 15.1793 2.59387V2.09387C14.057 2.09387 13.1323 2.98295 13.1323 4.0909H13.6323ZM18.9116 12.2697H35.845V11.7697H18.9116V12.2697ZM17.3646 13.7668C17.3646 12.9482 18.0521 12.2697 18.9116 12.2697V11.7697C17.7894 11.7697 16.8646 12.6588 16.8646 13.7668H17.3646ZM18.9116 15.2638C18.0521 15.2638 17.3646 14.5854 17.3646 13.7668H16.8646C16.8646 14.8747 17.7894 15.7638 18.9116 15.7638V15.2638ZM27.3232 15.2638H18.9116V15.7638H27.3232V15.2638ZM35.6378 11.9042C32.3261 11.9042 29.3224 13.2163 27.1487 15.3348L27.4977 15.6928C29.5807 13.6628 32.4601 12.4042 35.6378 12.4042V11.9042ZM36.6495 11.9461C36.3162 11.9189 35.9789 11.9042 35.6378 11.9042V12.4042C35.9645 12.4042 36.2883 12.4183 36.6088 12.4444L36.6495 11.9461ZM35.845 12.2697C36.0856 12.2697 36.3159 12.3241 36.5226 12.4214L36.7357 11.9691C36.4642 11.8412 36.1613 11.7697 35.845 11.7697V12.2697ZM18.9116 17.1077H26.1422V16.6077H18.9116V17.1077ZM17.3646 18.6047C17.3646 17.7861 18.0521 17.1077 18.9116 17.1077V16.6077C17.7893 16.6077 16.8646 17.4968 16.8646 18.6047H17.3646ZM18.9116 20.1017C18.0521 20.1017 17.3646 19.4234 17.3646 18.6047H16.8646C16.8646 19.7127 17.7893 20.6017 18.9116 20.6017V20.1017ZM24.3657 20.1017H18.9116V20.6017H24.3657V20.1017ZM25.9423 16.7076C25.1406 17.7753 24.5204 18.9802 24.1265 20.2792L24.6049 20.4243C24.9815 19.1827 25.5745 18.0301 26.3421 17.0078L25.9423 16.7076ZM18.9116 21.9456H24.0483V21.4456H18.9116V21.9456ZM17.3646 23.4426C17.3646 22.624 18.0521 21.9456 18.9116 21.9456V21.4456C17.7893 21.4456 16.8646 22.3346 16.8646 23.4426H17.3646ZM18.9116 24.9397C18.0521 24.9397 17.3646 24.2613 17.3646 23.4426H16.8646C16.8646 24.5507 17.7893 25.4397 18.9116 25.4397V24.9397ZM24.0057 24.9397H18.9116V25.4397H24.0057V24.9397ZM23.638 23.5771C23.638 24.1369 23.6797 24.6872 23.7583 25.2258L24.253 25.1536C24.1778 24.6382 24.138 24.112 24.138 23.5771H23.638ZM23.8019 21.6534C23.6947 22.2794 23.638 22.9218 23.638 23.5771H24.138C24.138 22.9507 24.1922 22.3365 24.2947 21.7378L23.8019 21.6534ZM18.9116 29.7776C18.0521 29.7776 17.3646 29.0993 17.3646 28.2806H16.8646C16.8646 29.3886 17.7893 30.2776 18.9116 30.2776V29.7776ZM25.9462 29.7776H18.9116V30.2776H25.9462V29.7776ZM24.0469 26.6C24.4035 27.8927 24.9828 29.0971 25.742 30.1718L26.1504 29.8834C25.4236 28.8545 24.8697 27.7026 24.5289 26.4671L24.0469 26.6ZM18.9116 26.7835H24.2879V26.2835H18.9116V26.7835ZM17.3646 28.2806C17.3646 27.4619 18.0521 26.7835 18.9116 26.7835V26.2835C17.7893 26.2835 16.8646 27.1726 16.8646 28.2806H17.3646ZM35.6378 33.4061C30.0525 33.4061 25.5204 28.99 25.5204 23.5771H25.0204C25.0204 29.2794 29.7898 33.9061 35.6378 33.9061V33.4061ZM45.7552 23.5771C45.7552 28.99 41.223 33.4061 35.6378 33.4061V33.9061C41.4857 33.9061 46.2552 29.2794 46.2552 23.5771H45.7552ZM35.6378 13.7481C41.223 13.7481 45.7552 18.1642 45.7552 23.5771H46.2552C46.2552 17.8748 41.4857 13.2481 35.6378 13.2481V13.7481ZM25.5204 23.5771C25.5204 18.1642 30.0525 13.7481 35.6378 13.7481V13.2481C29.7898 13.2481 25.0204 17.8748 25.0204 23.5771H25.5204ZM35.6344 22.5109C34.76 22.5109 34.1247 21.9199 34.1247 21.2802H33.6247C33.6247 22.2734 34.5682 23.0109 35.6344 23.0109V22.5109ZM39.2439 25.7969C39.2439 23.9615 37.6005 22.5109 35.6344 22.5109V23.0109C37.3732 23.0109 38.7439 24.2841 38.7439 25.7969H39.2439ZM36.4884 28.9893C38.0507 28.6431 39.2439 27.358 39.2439 25.7969H38.7439C38.7439 27.0857 37.7528 28.197 36.3802 28.5011L36.4884 28.9893ZM36.6843 29.0811V28.7452H36.1843V29.0811H36.6843ZM35.6344 30.1088C36.2075 30.1088 36.6843 29.6552 36.6843 29.0811H36.1843C36.1843 29.3659 35.9448 29.6088 35.6344 29.6088V30.1088ZM34.5846 29.0811C34.5846 29.6552 35.0614 30.1088 35.6344 30.1088V29.6088C35.3241 29.6088 35.0846 29.3659 35.0846 29.0811H34.5846ZM34.5846 28.7452V29.0811H35.0846V28.7452H34.5846ZM32.025 25.7969C32.025 27.358 33.2182 28.6431 34.7805 28.9893L34.8887 28.5011C33.5161 28.197 32.525 27.0857 32.525 25.7969H32.025ZM33.0749 24.7693C32.5018 24.7693 32.025 25.2228 32.025 25.7969H32.525C32.525 25.5121 32.7646 25.2693 33.0749 25.2693V24.7693ZM34.1247 25.7969C34.1247 25.2228 33.6479 24.7693 33.0749 24.7693V25.2693C33.3852 25.2693 33.6247 25.5121 33.6247 25.7969H34.1247ZM35.6344 27.0276C34.76 27.0276 34.1247 26.4366 34.1247 25.7969H33.6247C33.6247 26.7901 34.5682 27.5276 35.6344 27.5276V27.0276ZM37.1441 25.7969C37.1441 26.4366 36.5089 27.0276 35.6344 27.0276V27.5276C36.7007 27.5276 37.6441 26.7901 37.6441 25.7969H37.1441ZM35.6344 24.5661C36.5089 24.5661 37.1441 25.1571 37.1441 25.7969H37.6441C37.6441 24.8036 36.7007 24.0661 35.6344 24.0661V24.5661ZM32.025 21.2802C32.025 23.1155 33.6684 24.5661 35.6344 24.5661V24.0661C33.8957 24.0661 32.525 22.7929 32.525 21.2802H32.025ZM34.7805 18.0878C33.2182 18.4341 32.025 19.7191 32.025 21.2802H32.525C32.525 19.9915 33.5161 18.8802 34.8887 18.576L34.7805 18.0878ZM34.5846 17.9275V18.3319H35.0846V17.9275H34.5846ZM35.6344 16.8999C35.0614 16.8999 34.5846 17.3534 34.5846 17.9275H35.0846C35.0846 17.6427 35.3241 17.3999 35.6344 17.3999V16.8999ZM36.6843 17.9275C36.6843 17.3534 36.2075 16.8999 35.6344 16.8999V17.3999C35.9448 17.3999 36.1843 17.6427 36.1843 17.9275H36.6843ZM36.6843 18.3319V17.9275H36.1843V18.3319H36.6843ZM39.2439 21.2802C39.2439 19.7191 38.0507 18.4341 36.4884 18.0878L36.3802 18.576C37.7528 18.8802 38.7439 19.9915 38.7439 21.2802H39.2439ZM38.194 22.3079C38.7671 22.3079 39.2439 21.8543 39.2439 21.2802H38.7439C38.7439 21.565 38.5043 21.8079 38.194 21.8079V22.3079ZM37.1441 21.2802C37.1441 21.8543 37.6209 22.3079 38.194 22.3079V21.8079C37.8837 21.8079 37.6441 21.565 37.6441 21.2802H37.1441ZM35.6344 20.0495C36.5089 20.0495 37.1441 20.6405 37.1441 21.2802H37.6441C37.6441 20.287 36.7007 19.5495 35.6344 19.5495V20.0495ZM34.1247 21.2802C34.1247 20.6405 34.76 20.0495 35.6344 20.0495V19.5495C34.5682 19.5495 33.6247 20.287 33.6247 21.2802H34.1247Z" fill="#FF872C"/>
<path d="M12.5715 51.944V64H10.5695V62.218C10.1882 62.834 9.65288 63.318 8.96355 63.67C8.28888 64.0073 7.54088 64.176 6.71955 64.176C5.78088 64.176 4.93755 63.9853 4.18955 63.604C3.44155 63.208 2.84755 62.6213 2.40755 61.844C1.98221 61.0667 1.76955 60.1207 1.76955 59.006V51.944H3.74955V58.742C3.74955 59.93 4.05021 60.8467 4.65155 61.492C5.25288 62.1227 6.07421 62.438 7.11555 62.438C8.18621 62.438 9.02955 62.108 9.64555 61.448C10.2615 60.788 10.5695 59.8273 10.5695 58.566V51.944H12.5715ZM21.2098 64.198C20.0805 64.198 19.0538 63.9413 18.1298 63.428C17.2205 62.9147 16.5018 62.1887 15.9738 61.25C15.4605 60.2967 15.2038 59.1967 15.2038 57.95C15.2038 56.718 15.4678 55.6327 15.9958 54.694C16.5385 53.7407 17.2718 53.0147 18.1958 52.516C19.1198 52.0027 20.1538 51.746 21.2978 51.746C22.4418 51.746 23.4758 52.0027 24.3998 52.516C25.3238 53.0147 26.0498 53.7333 26.5778 54.672C27.1205 55.6107 27.3918 56.7033 27.3918 57.95C27.3918 59.1967 27.1131 60.2967 26.5558 61.25C26.0131 62.1887 25.2725 62.9147 24.3338 63.428C23.3951 63.9413 22.3538 64.198 21.2098 64.198ZM21.2098 62.438C21.9285 62.438 22.6031 62.2693 23.2338 61.932C23.8645 61.5947 24.3705 61.0887 24.7518 60.414C25.1478 59.7393 25.3458 58.918 25.3458 57.95C25.3458 56.982 25.1551 56.1607 24.7738 55.486C24.3925 54.8113 23.8938 54.3127 23.2778 53.99C22.6618 53.6527 21.9945 53.484 21.2758 53.484C20.5425 53.484 19.8678 53.6527 19.2518 53.99C18.6505 54.3127 18.1665 54.8113 17.7998 55.486C17.4331 56.1607 17.2498 56.982 17.2498 57.95C17.2498 58.9327 17.4258 59.7613 17.7778 60.436C18.1445 61.1107 18.6285 61.6167 19.2298 61.954C19.8311 62.2767 20.4911 62.438 21.2098 62.438ZM32.0261 47.72V64H30.0241V47.72H32.0261ZM37.4401 47.72V64H35.4381V47.72H37.4401ZM51.8522 57.51C51.8522 57.8913 51.8302 58.2947 51.7862 58.72H42.1502C42.2235 59.908 42.6269 60.8393 43.3602 61.514C44.1082 62.174 45.0102 62.504 46.0662 62.504C46.9315 62.504 47.6502 62.306 48.2222 61.91C48.8089 61.4993 49.2195 60.9567 49.4542 60.282H51.6102C51.2875 61.4407 50.6422 62.3867 49.6742 63.12C48.7062 63.8387 47.5035 64.198 46.0662 64.198C44.9222 64.198 43.8955 63.9413 42.9862 63.428C42.0915 62.9147 41.3875 62.1887 40.8742 61.25C40.3609 60.2967 40.1042 59.1967 40.1042 57.95C40.1042 56.7033 40.3535 55.6107 40.8522 54.672C41.3509 53.7333 42.0475 53.0147 42.9422 52.516C43.8515 52.0027 44.8929 51.746 46.0662 51.746C47.2102 51.746 48.2222 51.9953 49.1022 52.494C49.9822 52.9927 50.6569 53.682 51.1262 54.562C51.6102 55.4273 51.8522 56.41 51.8522 57.51ZM49.7842 57.092C49.7842 56.3293 49.6155 55.6767 49.2782 55.134C48.9409 54.5767 48.4789 54.1587 47.8922 53.88C47.3202 53.5867 46.6822 53.44 45.9782 53.44C44.9662 53.44 44.1009 53.7627 43.3822 54.408C42.6782 55.0533 42.2749 55.948 42.1722 57.092H49.7842ZM56.9368 53.594V60.7C56.9368 61.2867 57.0614 61.7047 57.3108 61.954C57.5601 62.1887 57.9928 62.306 58.6088 62.306H60.0828V64H58.2788C57.1641 64 56.3281 63.7433 55.7708 63.23C55.2134 62.7167 54.9348 61.8733 54.9348 60.7V53.594H53.3728V51.944H54.9348V48.908H56.9368V51.944H60.0828V53.594H56.9368Z" fill="white"/>
</svg>
