<svg width="120" height="69" viewBox="0 0 120 69" fill="none" xmlns="http://www.w3.org/2000/svg">
<path fill-rule="evenodd" clip-rule="evenodd" d="M68.4691 12.0197C68.589 12.1901 68.6921 12.3737 68.7762 12.5686C73.7361 13.9067 77.3875 18.3349 77.3875 23.5771C77.3875 29.8757 72.1166 35 65.6378 35C62.2553 35 59.2027 33.6028 57.0569 31.3715H48.9116C47.1585 31.3715 45.7323 29.9849 45.7323 28.2806C45.7323 27.3018 46.2032 26.4283 46.9359 25.8616C46.2032 25.2949 45.7323 24.4215 45.7323 23.4426C45.7323 22.4638 46.2032 21.5904 46.9359 21.0237C46.2032 20.457 45.7323 19.5835 45.7323 18.6047C45.7323 17.6259 46.2032 16.7525 46.9359 16.1857C46.2032 15.619 45.7323 14.7456 45.7323 13.7668C45.7323 12.0625 47.1585 10.6759 48.9116 10.6759H50.7142C50.3622 10.1785 50.1557 9.57679 50.1557 8.92884C50.1557 8.28089 50.3623 7.67917 50.7142 7.18181H45.1793C43.4263 7.18181 42 5.7952 42 4.0909C42 2.38661 43.4263 1 45.1793 1H62.1128C63.8658 1 65.2921 2.38661 65.2921 4.0909C65.2921 4.73885 65.0855 5.34057 64.7337 5.83794H70.2685C72.0215 5.83794 73.4478 7.22454 73.4478 8.92884C73.4478 10.6331 72.0215 12.0197 70.2685 12.0197H68.4691ZM72.0655 8.92884C72.0655 7.96555 71.2594 7.18181 70.2685 7.18181H53.335C52.3441 7.18181 51.538 7.96555 51.538 8.92884C51.538 9.89213 52.3441 10.6759 53.335 10.6759H65.845H70.2685C71.2594 10.6759 72.0655 9.89213 72.0655 8.92884ZM43.3823 4.0909C43.3823 5.05419 44.1884 5.83794 45.1793 5.83794H62.1128C63.1037 5.83794 63.9098 5.05419 63.9098 4.0909C63.9098 3.12762 63.1037 2.34387 62.1128 2.34387H45.1793C44.1884 2.34387 43.3823 3.12762 43.3823 4.0909ZM65.845 12.0197H48.9116C47.9208 12.0197 47.1146 12.8035 47.1146 13.7668C47.1146 14.7301 47.9208 15.5138 48.9116 15.5138H57.3232C59.4515 13.4395 62.3931 12.1542 65.6378 12.1542C65.9717 12.1542 66.3022 12.1686 66.6292 12.1953C66.39 12.0826 66.1234 12.0197 65.845 12.0197ZM56.1422 16.8577H48.9116C47.9207 16.8577 47.1146 17.6414 47.1146 18.6047C47.1146 19.5681 47.9207 20.3517 48.9116 20.3517H54.3657C54.7509 19.0814 55.3576 17.9027 56.1422 16.8577ZM54.0483 21.6956H48.9116C47.9207 21.6956 47.1146 22.4793 47.1146 23.4426C47.1146 24.406 47.9207 25.1897 48.9116 25.1897H54.0057C53.9287 24.6627 53.888 24.1245 53.888 23.5771C53.888 22.9363 53.9435 22.3079 54.0483 21.6956ZM47.1146 28.2806C47.1146 29.2439 47.9207 30.0276 48.9116 30.0276H55.9462C55.2032 28.9758 54.6366 27.7977 54.2879 26.5335H48.9116C47.9207 26.5335 47.1146 27.3172 47.1146 28.2806ZM55.2704 23.5771C55.2704 29.1347 59.9212 33.6561 65.6378 33.6561C71.3543 33.6561 76.0052 29.1347 76.0052 23.5771C76.0052 18.0195 71.3543 13.4981 65.6378 13.4981C59.9212 13.4981 55.2704 18.0195 55.2704 23.5771ZM63.8747 21.2802C63.8747 22.0967 64.6641 22.7609 65.6344 22.7609C67.4869 22.7609 68.9939 24.1228 68.9939 25.7969C68.9939 27.2219 67.9017 28.42 66.4343 28.7452V29.0811C66.4343 29.5105 66.0761 29.8588 65.6344 29.8588C65.1928 29.8588 64.8346 29.5105 64.8346 29.0811V28.7452C63.3671 28.42 62.275 27.2219 62.275 25.7969C62.275 25.3675 62.6332 25.0193 63.0749 25.0193C63.5166 25.0193 63.8747 25.3675 63.8747 25.7969C63.8747 26.6134 64.6641 27.2776 65.6344 27.2776C66.6048 27.2776 67.3941 26.6134 67.3941 25.7969C67.3941 24.9804 66.6048 24.3161 65.6344 24.3161C63.782 24.3161 62.275 22.9542 62.275 21.2802C62.275 19.8553 63.3671 18.6571 64.8346 18.3319V17.9275C64.8346 17.4981 65.1928 17.1499 65.6344 17.1499C66.0761 17.1499 66.4343 17.4981 66.4343 17.9275V18.3319C67.9017 18.6571 68.9939 19.8553 68.9939 21.2802C68.9939 21.7096 68.6357 22.0579 68.194 22.0579C67.7523 22.0579 67.3941 21.7096 67.3941 21.2802C67.3941 20.4637 66.6048 19.7995 65.6344 19.7995C64.6641 19.7995 63.8747 20.4637 63.8747 21.2802Z" fill="#FF872C"/>
<path d="M68.7762 12.5686L68.5466 12.6677L68.5945 12.7785L68.7111 12.8099L68.7762 12.5686ZM68.4691 12.0197V11.7697H67.9874L68.2647 12.1637L68.4691 12.0197ZM57.0569 31.3715L57.2371 31.1982L57.1634 31.1215H57.0569V31.3715ZM46.9359 25.8616L47.0889 26.0594L47.3445 25.8616L47.0889 25.6639L46.9359 25.8616ZM46.9359 21.0237L47.0889 21.2214L47.3445 21.0237L47.0889 20.8259L46.9359 21.0237ZM46.9359 16.1857L47.0889 16.3835L47.3445 16.1857L47.0889 15.988L46.9359 16.1857ZM50.7142 10.6759V10.9259H51.1973L50.9182 10.5315L50.7142 10.6759ZM50.7142 7.18181L50.9182 7.32619L51.1973 6.93181H50.7142V7.18181ZM64.7337 5.83794L64.5296 5.69355L64.2505 6.08794H64.7337V5.83794ZM57.3232 15.5138V15.7638H57.4248L57.4977 15.6928L57.3232 15.5138ZM66.6292 12.1953L66.6088 12.4444L66.7357 11.9691L66.6292 12.1953ZM56.1422 16.8577L56.3421 17.0078L56.6425 16.6077H56.1422V16.8577ZM54.3657 20.3517V20.6017H54.5511L54.6049 20.4243L54.3657 20.3517ZM54.0483 21.6956L54.2947 21.7378L54.3448 21.4456H54.0483V21.6956ZM54.0057 25.1897V25.4397H54.2948L54.253 25.1536L54.0057 25.1897ZM55.9462 30.0276V30.2776H56.4288L56.1504 29.8834L55.9462 30.0276ZM54.2879 26.5335L54.5289 26.4671L54.4782 26.2835H54.2879V26.5335ZM66.4343 28.7452L66.3802 28.5011L66.1843 28.5445V28.7452H66.4343ZM64.8346 28.7452H65.0846V28.5445L64.8887 28.5011L64.8346 28.7452ZM64.8346 18.3319L64.8887 18.576L65.0846 18.5326V18.3319H64.8346ZM66.4343 18.3319H66.1843V18.5326L66.3802 18.576L66.4343 18.3319ZM69.0057 12.4695C68.9148 12.2589 68.8033 12.0602 68.6735 11.8758L68.2647 12.1637C68.3747 12.3199 68.4693 12.4886 68.5466 12.6677L69.0057 12.4695ZM77.6375 23.5771C77.6375 18.2145 73.9031 13.6928 68.8413 12.3272L68.7111 12.8099C73.5691 14.1206 77.1375 18.4552 77.1375 23.5771H77.6375ZM65.6378 35.25C72.2479 35.25 77.6375 30.0204 77.6375 23.5771H77.1375C77.1375 29.731 71.9852 34.75 65.6378 34.75V35.25ZM56.8767 31.5448C59.0683 33.8237 62.1854 35.25 65.6378 35.25V34.75C62.3252 34.75 59.3371 33.3819 57.2371 31.1982L56.8767 31.5448ZM48.9116 31.6215H57.0569V31.1215H48.9116V31.6215ZM45.4823 28.2806C45.4823 30.1295 47.0272 31.6215 48.9116 31.6215V31.1215C47.2899 31.1215 45.9823 29.8402 45.9823 28.2806H45.4823ZM46.783 25.6639C45.9933 26.2746 45.4823 27.2192 45.4823 28.2806H45.9823C45.9823 27.3844 46.4131 26.582 47.0889 26.0594L46.783 25.6639ZM45.4823 23.4426C45.4823 24.5041 45.9933 25.4486 46.783 26.0594L47.0889 25.6639C46.4131 25.1412 45.9823 24.3388 45.9823 23.4426H45.4823ZM46.783 20.8259C45.9933 21.4367 45.4823 22.3812 45.4823 23.4426H45.9823C45.9823 22.5465 46.4131 21.7441 47.0889 21.2214L46.783 20.8259ZM45.4823 18.6047C45.4823 19.6661 45.9933 20.6107 46.783 21.2214L47.0889 20.8259C46.4131 20.3033 45.9823 19.5009 45.9823 18.6047H45.4823ZM46.783 15.988C45.9933 16.5987 45.4823 17.5433 45.4823 18.6047H45.9823C45.9823 17.7085 46.4131 16.9062 47.0889 16.3835L46.783 15.988ZM45.4823 13.7668C45.4823 14.8282 45.9933 15.7727 46.783 16.3835L47.0889 15.988C46.4131 15.4653 45.9823 14.663 45.9823 13.7668H45.4823ZM48.9116 10.4259C47.0272 10.4259 45.4823 11.9178 45.4823 13.7668H45.9823C45.9823 12.2071 47.2899 10.9259 48.9116 10.9259V10.4259ZM50.7142 10.4259H48.9116V10.9259H50.7142V10.4259ZM49.9057 8.92884C49.9057 9.63092 50.1297 10.2827 50.5101 10.8203L50.9182 10.5315C50.5947 10.0743 50.4057 9.52265 50.4057 8.92884H49.9057ZM50.5101 7.03742C50.1298 7.57498 49.9057 8.22674 49.9057 8.92884H50.4057C50.4057 8.33504 50.5948 7.78337 50.9182 7.32619L50.5101 7.03742ZM45.1793 7.43181H50.7142V6.93181H45.1793V7.43181ZM41.75 4.0909C41.75 5.93987 43.2949 7.43181 45.1793 7.43181V6.93181C43.5577 6.93181 42.25 5.65053 42.25 4.0909H41.75ZM45.1793 0.75C43.2949 0.75 41.75 2.24193 41.75 4.0909H42.25C42.25 2.53128 43.5577 1.25 45.1793 1.25V0.75ZM62.1128 0.75H45.1793V1.25H62.1128V0.75ZM65.5421 4.0909C65.5421 2.24193 63.9972 0.75 62.1128 0.75V1.25C63.7345 1.25 65.0421 2.53128 65.0421 4.0909H65.5421ZM64.9377 5.98232C65.318 5.44476 65.5421 4.793 65.5421 4.0909H65.0421C65.0421 4.6847 64.853 5.23637 64.5296 5.69355L64.9377 5.98232ZM70.2685 5.58794H64.7337V6.08794H70.2685V5.58794ZM73.6978 8.92884C73.6978 7.07987 72.1529 5.58794 70.2685 5.58794V6.08794C71.8901 6.08794 73.1978 7.36921 73.1978 8.92884H73.6978ZM70.2685 12.2697C72.1529 12.2697 73.6978 10.7778 73.6978 8.92884H73.1978C73.1978 10.4885 71.8901 11.7697 70.2685 11.7697V12.2697ZM68.4691 12.2697H70.2685V11.7697H68.4691V12.2697ZM70.2685 7.43181C71.128 7.43181 71.8155 8.11022 71.8155 8.92884H72.3155C72.3155 7.82089 71.3908 6.93181 70.2685 6.93181V7.43181ZM53.335 7.43181H70.2685V6.93181H53.335V7.43181ZM51.788 8.92884C51.788 8.11022 52.4755 7.43181 53.335 7.43181V6.93181C52.2127 6.93181 51.288 7.82089 51.288 8.92884H51.788ZM53.335 10.4259C52.4755 10.4259 51.788 9.74746 51.788 8.92884H51.288C51.288 10.0368 52.2127 10.9259 53.335 10.9259V10.4259ZM65.845 10.4259H53.335V10.9259H65.845V10.4259ZM70.2685 10.4259H65.845V10.9259H70.2685V10.4259ZM71.8155 8.92884C71.8155 9.74746 71.128 10.4259 70.2685 10.4259V10.9259C71.3908 10.9259 72.3155 10.0368 72.3155 8.92884H71.8155ZM45.1793 5.58794C44.3198 5.58794 43.6323 4.90952 43.6323 4.0909H43.1323C43.1323 5.19886 44.057 6.08794 45.1793 6.08794V5.58794ZM62.1128 5.58794H45.1793V6.08794H62.1128V5.58794ZM63.6598 4.0909C63.6598 4.90952 62.9723 5.58794 62.1128 5.58794V6.08794C63.2351 6.08794 64.1598 5.19886 64.1598 4.0909H63.6598ZM62.1128 2.59387C62.9723 2.59387 63.6598 3.27228 63.6598 4.0909H64.1598C64.1598 2.98295 63.2351 2.09387 62.1128 2.09387V2.59387ZM45.1793 2.59387H62.1128V2.09387H45.1793V2.59387ZM43.6323 4.0909C43.6323 3.27228 44.3198 2.59387 45.1793 2.59387V2.09387C44.057 2.09387 43.1323 2.98295 43.1323 4.0909H43.6323ZM48.9116 12.2697H65.845V11.7697H48.9116V12.2697ZM47.3646 13.7668C47.3646 12.9482 48.0521 12.2697 48.9116 12.2697V11.7697C47.7894 11.7697 46.8646 12.6588 46.8646 13.7668H47.3646ZM48.9116 15.2638C48.0521 15.2638 47.3646 14.5854 47.3646 13.7668H46.8646C46.8646 14.8747 47.7894 15.7638 48.9116 15.7638V15.2638ZM57.3232 15.2638H48.9116V15.7638H57.3232V15.2638ZM65.6378 11.9042C62.3261 11.9042 59.3224 13.2163 57.1487 15.3348L57.4977 15.6928C59.5807 13.6628 62.4601 12.4042 65.6378 12.4042V11.9042ZM66.6495 11.9461C66.3162 11.9189 65.9789 11.9042 65.6378 11.9042V12.4042C65.9645 12.4042 66.2883 12.4183 66.6088 12.4444L66.6495 11.9461ZM65.845 12.2697C66.0856 12.2697 66.3159 12.3241 66.5226 12.4214L66.7357 11.9691C66.4642 11.8412 66.1613 11.7697 65.845 11.7697V12.2697ZM48.9116 17.1077H56.1422V16.6077H48.9116V17.1077ZM47.3646 18.6047C47.3646 17.7861 48.0521 17.1077 48.9116 17.1077V16.6077C47.7893 16.6077 46.8646 17.4968 46.8646 18.6047H47.3646ZM48.9116 20.1017C48.0521 20.1017 47.3646 19.4234 47.3646 18.6047H46.8646C46.8646 19.7127 47.7893 20.6017 48.9116 20.6017V20.1017ZM54.3657 20.1017H48.9116V20.6017H54.3657V20.1017ZM55.9423 16.7076C55.1406 17.7753 54.5204 18.9802 54.1265 20.2792L54.6049 20.4243C54.9815 19.1827 55.5745 18.0301 56.3421 17.0078L55.9423 16.7076ZM48.9116 21.9456H54.0483V21.4456H48.9116V21.9456ZM47.3646 23.4426C47.3646 22.624 48.0521 21.9456 48.9116 21.9456V21.4456C47.7893 21.4456 46.8646 22.3346 46.8646 23.4426H47.3646ZM48.9116 24.9397C48.0521 24.9397 47.3646 24.2613 47.3646 23.4426H46.8646C46.8646 24.5507 47.7893 25.4397 48.9116 25.4397V24.9397ZM54.0057 24.9397H48.9116V25.4397H54.0057V24.9397ZM53.638 23.5771C53.638 24.1369 53.6797 24.6872 53.7583 25.2258L54.253 25.1536C54.1778 24.6382 54.138 24.112 54.138 23.5771H53.638ZM53.8019 21.6534C53.6947 22.2794 53.638 22.9218 53.638 23.5771H54.138C54.138 22.9507 54.1922 22.3365 54.2947 21.7378L53.8019 21.6534ZM48.9116 29.7776C48.0521 29.7776 47.3646 29.0993 47.3646 28.2806H46.8646C46.8646 29.3886 47.7893 30.2776 48.9116 30.2776V29.7776ZM55.9462 29.7776H48.9116V30.2776H55.9462V29.7776ZM54.0469 26.6C54.4035 27.8927 54.9828 29.0971 55.742 30.1718L56.1504 29.8834C55.4236 28.8545 54.8697 27.7026 54.5289 26.4671L54.0469 26.6ZM48.9116 26.7835H54.2879V26.2835H48.9116V26.7835ZM47.3646 28.2806C47.3646 27.4619 48.0521 26.7835 48.9116 26.7835V26.2835C47.7893 26.2835 46.8646 27.1726 46.8646 28.2806H47.3646ZM65.6378 33.4061C60.0525 33.4061 55.5204 28.99 55.5204 23.5771H55.0204C55.0204 29.2794 59.7898 33.9061 65.6378 33.9061V33.4061ZM75.7552 23.5771C75.7552 28.99 71.223 33.4061 65.6378 33.4061V33.9061C71.4857 33.9061 76.2552 29.2794 76.2552 23.5771H75.7552ZM65.6378 13.7481C71.223 13.7481 75.7552 18.1642 75.7552 23.5771H76.2552C76.2552 17.8748 71.4857 13.2481 65.6378 13.2481V13.7481ZM55.5204 23.5771C55.5204 18.1642 60.0525 13.7481 65.6378 13.7481V13.2481C59.7898 13.2481 55.0204 17.8748 55.0204 23.5771H55.5204ZM65.6344 22.5109C64.76 22.5109 64.1247 21.9199 64.1247 21.2802H63.6247C63.6247 22.2734 64.5682 23.0109 65.6344 23.0109V22.5109ZM69.2439 25.7969C69.2439 23.9615 67.6005 22.5109 65.6344 22.5109V23.0109C67.3732 23.0109 68.7439 24.2841 68.7439 25.7969H69.2439ZM66.4884 28.9893C68.0507 28.6431 69.2439 27.358 69.2439 25.7969H68.7439C68.7439 27.0857 67.7528 28.197 66.3802 28.5011L66.4884 28.9893ZM66.6843 29.0811V28.7452H66.1843V29.0811H66.6843ZM65.6344 30.1088C66.2075 30.1088 66.6843 29.6552 66.6843 29.0811H66.1843C66.1843 29.3659 65.9448 29.6088 65.6344 29.6088V30.1088ZM64.5846 29.0811C64.5846 29.6552 65.0614 30.1088 65.6344 30.1088V29.6088C65.3241 29.6088 65.0846 29.3659 65.0846 29.0811H64.5846ZM64.5846 28.7452V29.0811H65.0846V28.7452H64.5846ZM62.025 25.7969C62.025 27.358 63.2182 28.6431 64.7805 28.9893L64.8887 28.5011C63.5161 28.197 62.525 27.0857 62.525 25.7969H62.025ZM63.0749 24.7693C62.5018 24.7693 62.025 25.2228 62.025 25.7969H62.525C62.525 25.5121 62.7646 25.2693 63.0749 25.2693V24.7693ZM64.1247 25.7969C64.1247 25.2228 63.6479 24.7693 63.0749 24.7693V25.2693C63.3852 25.2693 63.6247 25.5121 63.6247 25.7969H64.1247ZM65.6344 27.0276C64.76 27.0276 64.1247 26.4366 64.1247 25.7969H63.6247C63.6247 26.7901 64.5682 27.5276 65.6344 27.5276V27.0276ZM67.1441 25.7969C67.1441 26.4366 66.5089 27.0276 65.6344 27.0276V27.5276C66.7007 27.5276 67.6441 26.7901 67.6441 25.7969H67.1441ZM65.6344 24.5661C66.5089 24.5661 67.1441 25.1571 67.1441 25.7969H67.6441C67.6441 24.8036 66.7007 24.0661 65.6344 24.0661V24.5661ZM62.025 21.2802C62.025 23.1155 63.6684 24.5661 65.6344 24.5661V24.0661C63.8957 24.0661 62.525 22.7929 62.525 21.2802H62.025ZM64.7805 18.0878C63.2182 18.4341 62.025 19.7191 62.025 21.2802H62.525C62.525 19.9915 63.5161 18.8802 64.8887 18.576L64.7805 18.0878ZM64.5846 17.9275V18.3319H65.0846V17.9275H64.5846ZM65.6344 16.8999C65.0614 16.8999 64.5846 17.3534 64.5846 17.9275H65.0846C65.0846 17.6427 65.3241 17.3999 65.6344 17.3999V16.8999ZM66.6843 17.9275C66.6843 17.3534 66.2075 16.8999 65.6344 16.8999V17.3999C65.9448 17.3999 66.1843 17.6427 66.1843 17.9275H66.6843ZM66.6843 18.3319V17.9275H66.1843V18.3319H66.6843ZM69.2439 21.2802C69.2439 19.7191 68.0507 18.4341 66.4884 18.0878L66.3802 18.576C67.7528 18.8802 68.7439 19.9915 68.7439 21.2802H69.2439ZM68.194 22.3079C68.7671 22.3079 69.2439 21.8543 69.2439 21.2802H68.7439C68.7439 21.565 68.5043 21.8079 68.194 21.8079V22.3079ZM67.1441 21.2802C67.1441 21.8543 67.6209 22.3079 68.194 22.3079V21.8079C67.8837 21.8079 67.6441 21.565 67.6441 21.2802H67.1441ZM65.6344 20.0495C66.5089 20.0495 67.1441 20.6405 67.1441 21.2802H67.6441C67.6441 20.287 66.7007 19.5495 65.6344 19.5495V20.0495ZM64.1247 21.2802C64.1247 20.6405 64.76 20.0495 65.6344 20.0495V19.5495C64.5682 19.5495 63.6247 20.287 63.6247 21.2802H64.1247Z" fill="#FF872C"/>
<path d="M0 57.6626C0 61.1925 2.42671 63.5804 5.58357 63.5804C7.7311 63.5804 9.25584 62.4799 9.96452 61.2548V63.6427C9.96452 66.0721 8.39683 67.3595 6.31373 67.3595C4.38095 67.3595 2.98506 66.4251 2.55556 65.0547H0.622783C1.00934 67.4841 3.22129 68.9999 6.31373 68.9999C9.77125 68.9999 11.9402 66.7781 11.9402 63.6427V52.0147H9.96452V54.0912C9.27731 52.8661 7.7311 51.8279 5.58357 51.8279C2.42671 51.8279 0 54.1119 0 57.6626ZM9.96452 57.6834C9.96452 60.362 8.11765 61.9193 5.97012 61.9193C3.8226 61.9193 1.9972 60.3412 1.9972 57.6626C1.9972 54.984 3.8226 53.4682 5.97012 53.4682C8.11765 53.4682 9.96452 55.0463 9.96452 57.6834Z" fill="white"/>
<path d="M26.4099 57.6834C26.4099 54.0912 23.8114 51.8279 20.4612 51.8279C17.1326 51.8279 14.5126 54.0912 14.5126 57.6834C14.5126 61.2964 17.0467 63.5804 20.3753 63.5804C23.7255 63.5804 26.4099 61.2964 26.4099 57.6834ZM16.5098 57.6834C16.5098 54.8179 18.3781 53.4682 20.4398 53.4682C22.4584 53.4682 24.4127 54.8179 24.4127 57.6834C24.4127 60.5696 22.4155 61.9193 20.3753 61.9193C18.3352 61.9193 16.5098 60.5696 16.5098 57.6834Z" fill="white"/>
<path d="M30.1032 63.3937H32.5729V53.8837H34.7634V51.9526H32.5729V51.1428C32.5729 49.8346 33.0883 49.3363 34.5916 49.3363V47.3637C31.4991 47.3637 30.1032 48.5057 30.1032 51.1428V51.9526H28.7073V53.8837H30.1032V63.3937Z" fill="white"/>
<path d="M36.933 63.3937H39.3812V51.9526H36.933V63.3937ZM38.1786 50.4368C39.0376 50.4368 39.7248 49.7723 39.7248 48.921C39.7248 48.0697 39.0376 47.4052 38.1786 47.4052C37.2981 47.4052 36.6109 48.0697 36.6109 48.921C36.6109 49.7723 37.2981 50.4368 38.1786 50.4368Z" fill="white"/>
<path d="M50.9923 63.3937H53.419V56.6453C53.419 53.4476 51.3359 51.7657 48.5656 51.7657C47.1482 51.7657 45.8382 52.3264 45.0436 53.2607V51.9526H42.5955V63.3937H45.0436V56.9983C45.0436 54.9011 46.2248 53.8214 48.0287 53.8214C49.8111 53.8214 50.9923 54.9011 50.9923 56.9983V63.3937Z" fill="white"/>
<path d="M55.7257 57.6212C55.7257 61.1512 58.1954 63.5806 61.2663 63.5806C63.2421 63.5806 64.6594 62.667 65.4111 61.691V63.3937H67.8807V51.9526H65.4111V53.6137C64.6809 52.6793 63.3065 51.7657 61.3093 51.7657C58.1954 51.7657 55.7257 54.0913 55.7257 57.6212ZM65.4111 57.6628C65.4111 60.1337 63.6716 61.5249 61.8247 61.5249C59.9993 61.5249 58.2383 60.0922 58.2383 57.6212C58.2383 55.1503 59.9993 53.8214 61.8247 53.8214C63.6716 53.8214 65.4111 55.2126 65.4111 57.6628Z" fill="white"/>
<path d="M79.4931 63.3937H81.9198V56.6453C81.9198 53.4476 79.8367 51.7657 77.0664 51.7657C75.6491 51.7657 74.3391 52.3264 73.5445 53.2607V51.9526H71.0963V63.3937H73.5445V56.9983C73.5445 54.9011 74.7256 53.8214 76.5296 53.8214C78.312 53.8214 79.4931 54.9011 79.4931 56.9983V63.3937Z" fill="white"/>
<path d="M84.2266 57.6628C84.2266 61.255 86.6318 63.5806 90.0249 63.5806C92.9241 63.5806 94.8139 62.0233 95.4796 59.7807H92.8382C92.3872 60.9643 91.4852 61.5872 90.0249 61.5872C88.0492 61.5872 86.7392 60.1752 86.7392 57.6628C86.7392 55.1711 88.0492 53.7591 90.0249 53.7591C91.4852 53.7591 92.4301 54.4651 92.8382 55.5656H95.4796C94.8139 53.1569 92.9241 51.7657 90.0249 51.7657C86.6318 51.7657 84.2266 54.0913 84.2266 57.6628Z" fill="white"/>
<path d="M102.902 53.7591C104.727 53.7591 106.166 54.8804 106.209 56.6453H99.6589C99.9166 54.8388 101.248 53.7591 102.902 53.7591ZM108.442 59.9884H105.801C105.35 60.8812 104.512 61.5872 103.009 61.5872C101.205 61.5872 99.8092 60.4452 99.6374 58.5556H108.679C108.743 58.1611 108.764 57.7874 108.764 57.3928C108.764 54.029 106.381 51.7657 103.009 51.7657C99.5086 51.7657 97.1034 54.0705 97.1034 57.6628C97.1034 61.255 99.616 63.5806 103.009 63.5806C105.908 63.5806 107.777 61.9817 108.442 59.9884Z" fill="white"/>
<path d="M120 60.196C119.871 56.0639 113.192 57.3513 113.192 55.0465C113.192 54.2782 113.88 53.7591 115.19 53.7591C116.521 53.7591 117.316 54.4443 117.401 55.441H119.85C119.721 53.1569 117.96 51.7657 115.275 51.7657C112.484 51.7657 110.723 53.24 110.723 55.0672C110.723 59.2616 117.595 57.9742 117.595 60.2168C117.595 61.0058 116.843 61.5872 115.426 61.5872C114.073 61.5872 113.149 60.8189 113.063 59.8845H110.529C110.637 61.961 112.634 63.5806 115.469 63.5806C118.261 63.5806 120 62.1271 120 60.196Z" fill="white"/>
</svg>
