<svg xmlns="http://www.w3.org/2000/svg" width="864" height="192" fill="none" viewBox="0 0 864 192"><path fill="#FFC9CC" d="M0 46.533C0 34.641 9.558 25 21.348 25H99.8c33.896 0 61.374 27.717 61.374 61.907 0 34.191-27.478 61.907-61.374 61.907H21.348C9.558 148.814 0 139.174 0 127.282V46.533Z"/><path fill="#FB505A" d="M101.935 182.191V108.44s-.134-4.615-1.601-6.998c-1.65-2.679-6.404-4.845-6.404-4.845L3.202 49.225c-2.14-1.287-2.67-1.23-3.202-3.23v95.283c.76 3.768 1.96 5.162 4.803 6.998l81.655 42.528s5.337 2.691 10.674 0c5.032-2.538 4.803-8.613 4.803-8.613Z"/><path fill="#FFC9CC" d="M75.784 100.627c-1.972-.692-2.947-.023-3.202 2.153v11.844c.11 1.182.593 1.566 1.6 2.153l12.81 5.921c1.828.466 2.46.289 2.668-1.076v-11.843c-.06-1.3-.363-1.912-1.601-2.692l-12.275-6.46Zm11.741 55.724S4.803 113.016 3.202 112.208c-1.6-.807-3.202-5.383-3.202-5.383v18.842c.11 1.182.593 3.18 1.601 3.768l84.857 44.681c1.829.465 2.46.288 2.668-1.077v-13.996c-.06-1.3-.363-1.912-1.6-2.692Z"/><path fill="#FB505A" d="M286.64 53.934c8.215 0 15.823 2.087 22.826 6.262 7.003 4.175 12.524 9.898 16.564 17.17 4.175 7.272 6.262 15.217 6.262 23.836 0 8.753-2.087 16.766-6.262 24.038-4.04 7.137-9.561 12.861-16.564 17.17-7.003 4.175-14.611 6.262-22.826 6.262-6.06 0-11.716-1.145-16.968-3.434-5.117-2.424-9.561-5.723-13.332-9.898v56.56h-20.402V57.368l18.786-2.828v14.746c3.771-4.848 8.349-8.619 13.736-11.312 5.521-2.693 11.581-4.04 18.18-4.04Zm-3.232 76.76c5.387 0 10.235-1.279 14.544-3.838 4.444-2.693 7.945-6.262 10.504-10.706 2.559-4.579 3.838-9.561 3.838-14.948 0-5.387-1.279-10.302-3.838-14.746-2.559-4.444-6.06-7.945-10.504-10.504-4.309-2.693-9.157-4.04-14.544-4.04-5.252 0-10.1 1.347-14.544 4.04-4.309 2.559-7.743 6.06-10.302 10.504-2.559 4.444-3.838 9.36-3.838 14.746 0 5.387 1.279 10.369 3.838 14.948 2.559 4.444 5.993 8.013 10.302 10.706 4.444 2.559 9.292 3.838 14.544 3.838Zm83.074-61.004c5.925-10.1 16.025-15.15 30.3-15.15v19.19c-19.392 0-29.088 9.427-29.088 28.28v44.44h-20.402V57.57l19.19-2.828V69.69Zm48.532-11.918 20.402-3.232v91.91h-20.402V57.772Zm10.1-22.018c-3.771 0-6.935-1.212-9.494-3.636-2.559-2.559-3.838-5.656-3.838-9.292s1.279-6.666 3.838-9.09c2.559-2.559 5.723-3.838 9.494-3.838s6.935 1.28 9.494 3.838c2.559 2.424 3.838 5.454 3.838 9.09s-1.279 6.733-3.838 9.292c-2.559 2.424-5.723 3.636-9.494 3.636Zm129.13 18.18c6.599 0 12.389 1.481 17.372 4.444 4.983 2.828 8.821 7.003 11.514 12.524 2.693 5.387 4.04 11.783 4.04 19.19v56.358h-20.402V92.314c0-6.464-1.549-11.447-4.646-14.948-3.097-3.636-7.272-5.454-12.524-5.454-3.636 0-6.935.943-9.898 2.828-2.828 1.75-5.05 4.31-6.666 7.676-1.616 3.232-2.424 7.07-2.424 11.514v52.52h-20.604V92.314c0-6.464-1.549-11.447-4.646-14.948-3.097-3.636-7.272-5.454-12.524-5.454-3.636 0-6.935.943-9.898 2.828-2.828 1.75-5.05 4.31-6.666 7.676-1.616 3.232-2.424 7.07-2.424 11.514v52.52h-20.402V57.57l19.594-3.03v11.716c3.097-3.905 6.801-6.935 11.11-9.09 4.309-2.155 9.09-3.232 14.342-3.232 5.791 0 10.908 1.28 15.352 3.838 4.579 2.559 8.215 6.262 10.908 11.11 3.232-4.713 7.407-8.35 12.524-10.908 5.117-2.693 10.773-4.04 16.968-4.04Zm97.012 78.174c12.255 0 23.432-5.252 33.532-15.756l6.666 16.362c-5.656 5.117-11.918 9.09-18.786 11.918-6.868 2.693-14.073 4.04-21.614 4.04-9.292 0-17.641-2.087-25.048-6.262-7.407-4.175-13.265-9.831-17.574-16.968-4.175-7.272-6.262-15.285-6.262-24.038s2.087-16.766 6.262-24.038c4.309-7.272 10.1-12.995 17.372-17.17 7.407-4.175 15.554-6.262 24.442-6.262 7.676 0 14.611 1.616 20.806 4.848 6.329 3.232 11.514 7.878 15.554 13.938 4.04 5.925 6.531 12.995 7.474 21.21l-69.892 22.624c2.559 4.848 6.127 8.686 10.706 11.514 4.713 2.693 10.167 4.04 16.362 4.04Zm-1.01-61.812c-5.387 0-10.302 1.347-14.746 4.04-4.444 2.559-8.013 6.195-10.706 10.908-2.559 4.579-3.905 9.696-4.04 15.352l51.914-16.968c-1.885-4.175-4.848-7.407-8.888-9.696-4.04-2.424-8.551-3.636-13.534-3.636Zm105.748-51.914c-5.791 0-10.235 1.683-13.332 5.05-3.097 3.367-4.646 8.282-4.646 14.746v17.978h19.594v17.372h-19.594v72.922h-20.604V73.528H704.08l3.03-17.372h10.302V37.168c0-11.85 3.366-21.008 10.1-27.472C734.245 3.232 743.672 0 755.792 0h2.626v18.382h-2.424Zm107.364 37.774L800.334 191.9h-22.018l27.27-54.54-37.168-81.204h22.018l25.452 59.792 25.452-59.792h22.018Z"/></svg>