<svg width="290" height="216" viewBox="0 0 290 216" fill="none" xmlns="http://www.w3.org/2000/svg">
<g filter="url(#filter0_dd_1319_6931)">
<rect x="41" y="21" width="208" height="134" rx="24" fill="#000008"/>
<rect x="40.5" y="20.5" width="209" height="135" rx="24.5" stroke="#D6DCE5"/>
<path d="M157.449 124.959C157.465 125.555 157.35 126.146 157.113 126.693C156.91 127.149 156.607 127.554 156.228 127.878C155.86 128.187 155.432 128.417 154.972 128.555C154.027 128.844 153.016 128.844 152.07 128.555C151.609 128.417 151.18 128.186 150.81 127.878C150.429 127.556 150.126 127.15 149.925 126.693C149.691 126.146 149.578 125.554 149.593 124.959V120.075H151.451V124.791C151.443 125.144 151.496 125.496 151.61 125.831C151.701 126.093 151.851 126.33 152.048 126.525C152.235 126.702 152.461 126.834 152.707 126.91C153.238 127.069 153.804 127.069 154.335 126.91C154.582 126.834 154.807 126.702 154.994 126.525C155.192 126.33 155.341 126.093 155.432 125.831C155.546 125.496 155.6 125.144 155.591 124.791V120.075H157.449V124.959ZM140.321 119.863C139.872 119.85 139.427 119.958 139.034 120.176C138.641 120.395 138.314 120.715 138.088 121.104V120.076H136.262V128.548H138.106V123.798C138.106 122.398 138.708 121.618 139.914 121.618C140.308 121.612 140.7 121.685 141.066 121.83L141.633 120.093C141.212 119.943 140.768 119.865 140.321 119.863ZM146.886 119.863C146.436 119.85 145.992 119.958 145.599 120.176C145.206 120.395 144.879 120.715 144.653 121.104V120.076H142.827V128.548H144.67V123.798C144.67 122.398 145.273 121.618 146.478 121.618C146.873 121.612 147.264 121.685 147.63 121.83L148.198 120.093C147.777 119.943 147.333 119.865 146.886 119.863ZM122.437 124.312C122.413 124.909 122.513 125.504 122.733 126.06C122.952 126.615 123.285 127.119 123.711 127.538C124.137 127.957 124.646 128.282 125.205 128.493C125.764 128.703 126.361 128.795 126.957 128.761C128.064 128.816 129.151 128.456 130.005 127.75L129.119 126.261C128.482 126.747 127.705 127.015 126.904 127.024C126.213 126.982 125.564 126.678 125.09 126.174C124.616 125.67 124.351 125.004 124.351 124.312C124.351 123.62 124.616 122.954 125.09 122.45C125.564 121.946 126.213 121.642 126.904 121.6C127.705 121.609 128.482 121.876 129.119 122.362L130.005 120.873C129.151 120.168 128.064 119.807 126.957 119.863C126.361 119.829 125.764 119.92 125.205 120.131C124.646 120.341 124.137 120.667 123.711 121.086C123.285 121.505 122.952 122.008 122.733 122.564C122.513 123.12 122.413 123.715 122.437 124.312ZM166.298 120.749C165.255 120.129 164.055 119.821 162.842 119.863C160.697 119.863 159.315 120.891 159.315 122.575C159.315 123.957 160.343 124.808 162.239 125.074L163.108 125.198C164.118 125.34 164.596 125.606 164.596 126.084C164.596 126.74 163.923 127.112 162.664 127.112C161.652 127.141 160.66 126.829 159.846 126.226L158.978 127.662C160.051 128.412 161.338 128.797 162.647 128.761C165.093 128.761 166.511 127.608 166.511 125.996C166.511 124.507 165.394 123.727 163.551 123.461L162.682 123.337C161.885 123.231 161.246 123.071 161.246 122.504C161.246 121.884 161.849 121.511 162.859 121.511C163.787 121.525 164.696 121.775 165.5 122.238L166.298 120.749ZM169.396 127.32C169.51 127.319 169.623 127.341 169.728 127.386C169.83 127.428 169.922 127.489 170 127.566C170.078 127.642 170.14 127.733 170.183 127.833C170.228 127.936 170.25 128.047 170.25 128.159C170.25 128.271 170.228 128.382 170.183 128.485C170.14 128.585 170.078 128.675 170 128.752C169.922 128.829 169.83 128.89 169.728 128.933C169.623 128.978 169.51 129.001 169.396 129C169.228 129.002 169.063 128.954 168.921 128.862C168.78 128.771 168.669 128.639 168.602 128.485C168.558 128.382 168.535 128.271 168.535 128.159C168.535 128.047 168.558 127.936 168.602 127.833C168.645 127.733 168.707 127.643 168.785 127.566C168.863 127.489 168.955 127.427 169.057 127.386C169.165 127.341 169.28 127.319 169.396 127.32ZM169.396 128.815C169.483 128.815 169.569 128.798 169.649 128.763C169.726 128.73 169.796 128.682 169.855 128.623C169.931 128.547 169.987 128.454 170.018 128.352C170.05 128.249 170.056 128.141 170.035 128.036C170.015 127.931 169.969 127.832 169.902 127.749C169.835 127.665 169.748 127.6 169.649 127.558C169.569 127.524 169.483 127.506 169.396 127.507C169.307 127.506 169.219 127.524 169.137 127.558C169.059 127.59 168.988 127.637 168.929 127.697C168.837 127.788 168.774 127.905 168.749 128.033C168.724 128.16 168.738 128.292 168.788 128.412C168.838 128.532 168.922 128.634 169.031 128.706C169.139 128.777 169.266 128.815 169.396 128.815ZM169.445 127.767C169.528 127.761 169.61 127.785 169.677 127.833C169.704 127.856 169.725 127.883 169.739 127.915C169.753 127.947 169.76 127.981 169.758 128.016C169.759 128.045 169.754 128.075 169.743 128.102C169.732 128.13 169.715 128.155 169.693 128.175C169.642 128.221 169.577 128.248 169.509 128.252L169.764 128.547H169.565L169.328 128.254H169.252V128.547H169.085V127.767H169.445ZM169.252 127.913V128.121H169.443C169.48 128.123 169.517 128.114 169.548 128.095C169.561 128.086 169.572 128.074 169.578 128.061C169.585 128.047 169.588 128.031 169.587 128.016C169.588 128.001 169.585 127.985 169.578 127.972C169.571 127.958 169.561 127.947 169.548 127.938C169.517 127.92 169.48 127.911 169.443 127.913H169.252ZM134.092 117.148C134.093 117.32 134.06 117.49 133.995 117.648C133.929 117.807 133.833 117.95 133.711 118.071C133.588 118.191 133.443 118.286 133.284 118.349C133.125 118.413 132.954 118.443 132.783 118.44C132.612 118.443 132.443 118.412 132.284 118.348C132.126 118.285 131.982 118.19 131.862 118.069C131.741 117.948 131.646 117.805 131.582 117.646C131.519 117.488 131.488 117.319 131.491 117.148C131.487 116.977 131.518 116.806 131.581 116.647C131.645 116.487 131.739 116.342 131.86 116.22C131.98 116.098 132.124 116.002 132.283 115.936C132.441 115.871 132.611 115.838 132.783 115.839C132.955 115.837 133.126 115.87 133.286 115.935C133.445 116 133.59 116.096 133.712 116.218C133.834 116.34 133.931 116.485 133.996 116.645C134.061 116.805 134.093 116.976 134.092 117.148ZM133.72 128.549H131.863V120.075H133.72V128.549Z" fill="white"/>
<path d="M158.426 55.8052H130.575V105.855H158.426V55.8052Z" fill="#007AD0"/>
<path d="M132.343 80.8301C132.339 76.0099 133.431 71.252 135.537 66.9164C137.643 62.5808 140.708 58.7812 144.5 55.8053C139.805 52.1144 134.165 49.8192 128.227 49.1818C122.289 48.5444 116.291 49.5907 110.919 52.201C105.547 54.8113 101.018 58.8803 97.849 63.9429C94.6804 69.0056 93 74.8576 93 80.8301C93 86.8026 94.6804 92.6546 97.849 97.7172C101.018 102.78 105.547 106.849 110.919 109.459C116.291 112.069 122.289 113.116 128.227 112.478C134.165 111.841 139.805 109.546 144.5 105.855C140.708 102.879 137.643 99.0793 135.537 94.7437C133.431 90.4081 132.339 85.6502 132.343 80.8301Z" fill="#0066BA"/>
<path d="M192.962 100.554V99.5293H193.375V99.3205H192.323V99.5293H192.736V100.554H192.962ZM195.005 100.554V99.3185H194.682L194.311 100.168L193.94 99.3185H193.618V100.554H193.845V99.622L194.193 100.425H194.429L194.777 99.62V100.554H195.005Z" fill="#00A2E5"/>
<path d="M195.999 80.8301C195.999 86.8025 194.319 92.6545 191.15 97.7171C187.982 102.78 183.453 106.849 178.081 109.459C172.709 112.069 166.712 113.116 160.773 112.478C154.835 111.841 149.196 109.546 144.5 105.855C148.289 102.876 151.351 99.0757 153.457 94.7408C155.563 90.4059 156.657 85.6494 156.657 80.8301C156.657 76.0107 155.563 71.2542 153.457 66.9193C151.351 62.5844 148.289 58.7842 144.5 55.8053C149.196 52.1144 154.835 49.8191 160.773 49.1818C166.712 48.5444 172.709 49.5907 178.081 52.201C183.453 54.8113 187.982 58.8804 191.15 63.943C194.319 69.0057 195.999 74.8576 195.999 80.8301Z" fill="#00A2E5"/>
</g>
<defs>
<filter id="filter0_dd_1319_6931" x="0" y="0" width="290" height="216" filterUnits="userSpaceOnUse" color-interpolation-filters="sRGB">
<feFlood flood-opacity="0" result="BackgroundImageFix"/>
<feColorMatrix in="SourceAlpha" type="matrix" values="0 0 0 0 0 0 0 0 0 0 0 0 0 0 0 0 0 0 127 0" result="hardAlpha"/>
<feOffset dy="2"/>
<feGaussianBlur stdDeviation="10"/>
<feColorMatrix type="matrix" values="0 0 0 0 0.717647 0 0 0 0 0.717647 0 0 0 0 0.717647 0 0 0 0.08 0"/>
<feBlend mode="normal" in2="BackgroundImageFix" result="effect1_dropShadow_1319_6931"/>
<feColorMatrix in="SourceAlpha" type="matrix" values="0 0 0 0 0 0 0 0 0 0 0 0 0 0 0 0 0 0 127 0" result="hardAlpha"/>
<feOffset dy="20"/>
<feGaussianBlur stdDeviation="20"/>
<feColorMatrix type="matrix" values="0 0 0 0 0.717647 0 0 0 0 0.717647 0 0 0 0 0.717647 0 0 0 0.08 0"/>
<feBlend mode="normal" in2="effect1_dropShadow_1319_6931" result="effect2_dropShadow_1319_6931"/>
<feBlend mode="normal" in="SourceGraphic" in2="effect2_dropShadow_1319_6931" result="shape"/>
</filter>
</defs>
</svg>
