<svg width="290" height="216" viewBox="0 0 290 216" fill="none" xmlns="http://www.w3.org/2000/svg">
<g filter="url(#filter0_dd_1319_6957)">
<rect x="41" y="21" width="208" height="134" rx="24" fill="#006699"/>
<rect x="40.5" y="20.5" width="209" height="135" rx="24.5" stroke="#D6DCE5"/>
<path d="M91.314 111.103C91.314 112.973 92.6504 113.189 93.8385 113.189C99.0819 113.189 100.801 109.235 100.801 105.618C100.801 101.083 97.8909 97.8066 93.2075 97.8066C92.212 97.8066 91.7535 97.8761 91.314 97.9026V111.103ZM88.9374 99.7203C88.9374 97.5382 87.7956 97.682 86.706 97.6573V97.0303C87.6504 97.0741 88.6212 97.0741 89.5684 97.0741C90.587 97.0741 91.9712 97.0303 93.7675 97.0303C100.05 97.0303 103.472 101.225 103.472 105.523C103.472 107.925 102.066 113.967 93.4759 113.967C92.2411 113.967 91.0964 113.92 89.9575 113.92C88.865 113.92 87.7956 113.945 86.706 113.967V113.334C88.1582 113.189 88.865 113.141 88.9374 111.492V99.7203Z" fill="white"/>
<path d="M106.921 99.1407C106.287 99.1407 105.73 98.5572 105.73 97.9276C105.73 97.3198 106.312 96.7597 106.921 96.7597C107.55 96.7597 108.111 97.2705 108.111 97.9276C108.111 98.5822 107.576 99.1407 106.921 99.1407ZM104.323 113.335H104.784C105.463 113.335 105.948 113.335 105.948 112.531V105.958C105.948 104.891 105.586 104.744 104.685 104.262V103.873C105.828 103.531 107.186 103.074 107.284 102.997C107.454 102.903 107.597 102.878 107.721 102.878C107.841 102.878 107.889 103.022 107.889 103.216V112.531C107.889 113.335 108.426 113.335 109.102 113.335H109.515V113.967C108.69 113.967 107.841 113.919 106.968 113.919C106.094 113.919 105.221 113.944 104.323 113.967V113.335Z" fill="white"/>
<path d="M111.821 106.103C111.821 105.208 111.554 104.964 110.415 104.505V104.041C111.457 103.702 112.451 103.384 113.618 102.877C113.69 102.877 113.761 102.925 113.761 103.117V104.698C115.147 103.702 116.336 102.877 117.963 102.877C120.024 102.877 120.753 104.381 120.753 106.274V112.532C120.753 113.335 121.288 113.335 121.966 113.335H122.403V113.966C121.551 113.966 120.702 113.92 119.831 113.92C118.957 113.92 118.083 113.945 117.21 113.966V113.335H117.646C118.327 113.335 118.809 113.335 118.809 112.532V106.251C118.809 104.865 117.963 104.187 116.577 104.187C115.801 104.187 114.565 104.817 113.761 105.352V112.532C113.761 113.335 114.299 113.335 114.978 113.335H115.415V113.966C114.565 113.966 113.713 113.92 112.838 113.92C111.968 113.92 111.093 113.945 110.219 113.966V113.335H110.659C111.336 113.335 111.821 113.335 111.821 112.532V106.103Z" fill="white"/>
<path d="M128.545 106.492C129.148 106.492 129.219 106.177 129.219 105.887C129.219 104.646 128.468 103.652 127.11 103.652C125.631 103.652 124.611 104.743 124.32 106.492H128.545ZM124.249 107.271C124.198 107.489 124.198 107.851 124.249 108.677C124.391 110.984 125.874 112.876 127.813 112.876C129.148 112.876 130.196 112.146 131.091 111.249L131.431 111.589C130.313 113.069 128.932 114.329 126.943 114.329C123.082 114.329 122.307 110.594 122.307 109.041C122.307 104.285 125.509 102.878 127.205 102.878C129.173 102.878 131.287 104.114 131.309 106.685C131.309 106.834 131.309 106.978 131.287 107.124L131.065 107.271H124.249Z" fill="white"/>
<path d="M131.866 113.335H132.524C133.202 113.335 133.684 113.335 133.684 112.531V105.715C133.684 104.965 132.789 104.818 132.425 104.622V104.262C134.194 103.508 135.169 102.878 135.387 102.878C135.531 102.878 135.604 102.948 135.604 103.193V105.375H135.656C136.259 104.431 137.279 102.878 138.759 102.878C139.366 102.878 140.141 103.288 140.141 104.162C140.141 104.818 139.684 105.403 139.002 105.403C138.247 105.403 138.247 104.818 137.4 104.818C136.988 104.818 135.628 105.375 135.628 106.835V112.531C135.628 113.335 136.113 113.335 136.792 113.335H138.151V113.968C136.817 113.944 135.8 113.919 134.756 113.919C133.759 113.919 132.741 113.944 131.866 113.968V113.335Z" fill="white"/>
<path d="M141.208 110.594C141.526 112.194 142.496 113.555 144.268 113.555C145.698 113.555 146.23 112.68 146.23 111.831C146.23 108.969 140.944 109.887 140.944 105.983C140.944 104.622 142.036 102.878 144.706 102.878C145.481 102.878 146.524 103.096 147.47 103.58L147.641 106.056H147.084C146.842 104.528 145.99 103.651 144.438 103.651C143.466 103.651 142.546 104.211 142.546 105.255C142.546 108.096 148.174 107.22 148.174 111.03C148.174 112.631 146.888 114.33 144.002 114.33C143.027 114.33 141.888 113.992 141.039 113.508L140.773 110.716L141.208 110.594Z" fill="white"/>
<path d="M170.086 101.42H169.479C169.019 98.5822 167.004 97.4418 164.289 97.4418C161.495 97.4418 157.441 99.3088 157.441 105.13C157.441 110.035 160.942 113.555 164.676 113.555C167.078 113.555 169.069 111.906 169.555 109.356L170.111 109.5L169.555 113.045C168.535 113.677 165.79 114.33 164.188 114.33C158.511 114.33 154.922 110.666 154.922 105.207C154.922 100.232 159.361 96.6637 164.118 96.6637C166.084 96.6637 167.975 97.2951 169.844 97.9493L170.086 101.42Z" fill="white"/>
<path d="M170.959 113.335H171.422C172.102 113.335 172.588 113.335 172.588 112.531V99.022C172.588 97.4418 172.224 97.3926 171.301 97.1271V96.738C172.271 96.4221 173.291 95.9886 173.801 95.6933C174.067 95.5484 174.263 95.4248 174.334 95.4248C174.482 95.4248 174.528 95.5716 174.528 95.7672V112.531C174.528 113.335 175.063 113.335 175.743 113.335H176.155V113.968C175.333 113.968 174.482 113.919 173.605 113.919C172.735 113.919 171.861 113.944 170.959 113.968V113.335Z" fill="white"/>
<path d="M186.543 112.63C186.543 113.07 186.807 113.092 187.221 113.092C187.51 113.092 187.878 113.07 188.194 113.07V113.581C187.146 113.677 185.158 114.186 184.694 114.331L184.575 114.258V112.295C183.122 113.484 182.001 114.331 180.276 114.331C178.968 114.331 177.611 113.484 177.611 111.447V105.233C177.611 104.6 177.512 103.992 176.157 103.873V103.412C177.032 103.385 178.968 103.243 179.285 103.243C179.555 103.243 179.555 103.412 179.555 103.945V110.205C179.555 110.932 179.555 113.019 181.665 113.019C182.487 113.019 183.58 112.387 184.599 111.544V105.01C184.599 104.527 183.435 104.262 182.563 104.017V103.58C184.746 103.433 186.107 103.243 186.348 103.243C186.543 103.243 186.543 103.412 186.543 103.68V112.63Z" fill="white"/>
<path d="M191.369 111.224C191.369 112.147 192.243 113.699 193.871 113.699C196.469 113.699 197.56 111.15 197.56 108.99C197.56 106.371 195.57 104.187 193.678 104.187C192.775 104.187 192.025 104.771 191.369 105.331V111.224ZM191.369 104.622C192.34 103.8 193.653 102.879 194.987 102.879C197.801 102.879 199.5 105.331 199.5 107.973C199.5 111.15 197.171 114.33 193.698 114.33C191.902 114.33 190.959 113.749 190.326 113.483L189.599 114.039L189.091 113.773C189.304 112.343 189.428 110.933 189.428 109.454V99.022C189.428 97.4422 189.065 97.3915 188.142 97.126V96.7373C189.116 96.4221 190.132 95.9886 190.642 95.6926C190.908 95.5488 191.102 95.4256 191.178 95.4256C191.323 95.4256 191.369 95.5719 191.369 95.7679V104.622Z" fill="white"/>
<path d="M86.6785 128.075H86.8631C87.3374 128.075 87.8409 128.012 87.8409 127.323V120.407C87.8409 119.718 87.3374 119.655 86.8631 119.655H86.6785V119.253C87.1951 119.253 87.9861 119.308 88.6344 119.308C89.2945 119.308 90.0855 119.253 90.7051 119.253V119.655H90.5205C90.0461 119.655 89.5427 119.718 89.5427 120.407V127.323C89.5427 128.012 90.0461 128.075 90.5205 128.075H90.7051V128.474C90.0722 128.474 89.2787 128.421 88.6201 128.421C87.9714 128.421 87.1951 128.474 86.6785 128.474V128.075Z" fill="white"/>
<path d="M90.6485 128.417L90.6499 128.135H90.5223C90.0509 128.135 89.4879 128.053 89.485 127.323V120.406C89.4879 119.677 90.0509 119.595 90.5223 119.595H90.6485V119.315C90.0391 119.315 89.2746 119.366 88.6348 119.366C88.0082 119.366 87.2477 119.317 86.7369 119.315V119.595H86.8631C87.3334 119.595 87.896 119.677 87.896 120.406V127.323C87.896 128.053 87.3334 128.135 86.8631 128.135H86.7369V128.417C87.2477 128.409 87.9949 128.363 88.6204 128.363C89.2629 128.363 90.0277 128.412 90.6485 128.417ZM90.7051 128.53C90.0682 128.53 89.2761 128.478 88.6204 128.478C87.9732 128.478 87.197 128.53 86.6788 128.53H86.6211V128.021H86.8631C87.3422 128.009 87.7787 127.97 87.7816 127.323V120.406C87.7787 119.761 87.3422 119.717 86.8631 119.709H86.6211V119.201H86.6788C87.197 119.201 87.9876 119.251 88.6348 119.251C89.2919 119.251 90.0814 119.201 90.7051 119.201H90.7632V119.709H90.5223C90.0421 119.717 89.6026 119.761 89.6012 120.406V127.323C89.6026 127.97 90.0421 128.009 90.5223 128.021H90.7632V128.53H90.7051Z" fill="white"/>
<path d="M99.7777 125.872L99.8038 125.846V120.894C99.8038 119.811 99.0507 119.654 98.6532 119.654H98.3645V119.254C98.9838 119.254 99.5934 119.308 100.213 119.308C100.753 119.308 101.297 119.254 101.835 119.254V119.654H101.641C101.083 119.654 100.461 119.758 100.461 121.329V127.339C100.461 127.8 100.477 128.261 100.542 128.67H100.04L93.2398 121.093V126.53C93.2398 127.682 93.4634 128.074 94.4805 128.074H94.7038V128.473C94.1382 128.473 93.5693 128.421 93.0004 128.421C92.4099 128.421 91.8005 128.473 91.207 128.473V128.074H91.3913C92.3025 128.074 92.5812 127.458 92.5812 126.4V120.84C92.5812 120.1 91.9704 119.654 91.3784 119.654H91.207V119.254C91.7064 119.254 92.2227 119.308 92.7232 119.308C93.1207 119.308 93.5053 119.254 93.8999 119.254L99.7777 125.872Z" fill="white"/>
<path d="M99.7461 125.845V125.84L99.7343 125.832L99.7461 125.845ZM100.039 128.613H100.477C100.418 128.217 100.408 127.776 100.408 127.339V121.328C100.408 119.744 101.071 119.596 101.639 119.596H101.779V119.314C101.258 119.317 100.737 119.367 100.213 119.367C99.6085 119.367 99.0191 119.317 98.4215 119.314V119.596H98.6521C99.0599 119.596 99.8593 119.776 99.8593 120.894L99.8431 125.886L99.8159 125.91L99.7707 125.952L93.9006 119.314C93.5072 119.314 93.1244 119.367 92.7239 119.367C92.2407 119.367 91.7428 119.317 91.2644 119.314L91.2629 119.596H91.3788C91.9984 119.596 92.6368 120.069 92.6368 120.841V126.4C92.6368 127.458 92.3422 128.131 91.392 128.136L91.2644 128.131V128.417C91.8359 128.41 92.4235 128.362 93.0008 128.362C93.5539 128.362 94.1022 128.41 94.646 128.417V128.136H94.4795C93.4406 128.131 93.1821 127.682 93.1821 126.531V120.944L100.039 128.613ZM100.541 128.729L99.9972 128.709L93.2954 121.241V126.531C93.3126 127.682 93.487 128.007 94.4795 128.021H94.7637V128.529H94.7041C94.1342 128.529 93.5653 128.478 93.0008 128.478C92.4117 128.478 91.8053 128.529 91.2048 128.529H91.1467V128.021H91.392C92.2654 128.014 92.5136 127.454 92.525 126.4V120.841C92.522 120.138 91.9447 119.71 91.3788 119.709H91.1467V119.2H91.2048C91.7108 119.2 92.226 119.252 92.7239 119.252C93.1155 119.252 93.4987 119.2 93.944 119.22L99.7461 125.751V120.894C99.7391 119.844 99.0397 119.718 98.6521 119.709H98.3038V119.2H98.3634C98.986 119.2 99.5953 119.252 100.213 119.252C100.749 119.252 101.291 119.2 101.835 119.2H101.895V119.709H101.639C101.093 119.725 100.536 119.774 100.519 121.328V127.339C100.519 127.798 100.533 128.259 100.596 128.662L100.608 128.729H100.541Z" fill="white"/>
<path d="M103.813 119.916C102.822 119.916 102.785 120.153 102.585 121.117H102.19C102.244 120.748 102.308 120.378 102.35 119.994C102.401 119.625 102.428 119.254 102.428 118.874H102.746C102.852 119.27 103.181 119.254 103.538 119.254H110.351C110.707 119.254 111.038 119.242 111.066 118.846L111.379 118.901C111.331 119.254 111.277 119.612 111.237 119.969C111.209 120.324 111.209 120.683 111.209 121.039L110.814 121.186C110.788 120.696 110.72 119.916 109.836 119.916H107.672V126.941C107.672 127.961 108.135 128.075 108.767 128.075H109.017V128.473C108.503 128.473 107.577 128.421 106.865 128.421C106.074 128.421 105.147 128.473 104.632 128.473V128.075H104.883C105.611 128.075 105.978 128.011 105.978 126.97V119.916H103.813Z" fill="white"/>
<path d="M109.02 128.529C108.499 128.529 107.575 128.477 106.865 128.477C106.075 128.477 105.153 128.529 104.632 128.529H104.577V128.02H104.885C105.613 128.003 105.906 127.994 105.921 126.969V119.972H103.812V119.86H106.037V126.969C106.037 128.027 105.61 128.136 104.885 128.136H104.69V128.414C105.213 128.41 106.099 128.363 106.865 128.363C107.554 128.363 108.437 128.41 108.959 128.414V128.136H108.767C108.129 128.136 107.613 127.981 107.613 126.941V119.86H109.837C110.723 119.861 110.839 120.613 110.867 121.104L111.156 120.998C111.156 120.655 111.157 120.31 111.179 119.96C111.216 119.624 111.266 119.286 111.315 118.948L111.115 118.914C111.05 119.297 110.679 119.319 110.35 119.315H103.47C103.158 119.315 102.821 119.299 102.704 118.932H102.483C102.483 119.297 102.457 119.65 102.405 120.004C102.367 120.365 102.309 120.715 102.26 121.06H102.542C102.717 120.143 102.829 119.844 103.812 119.86V119.972C102.838 119.992 102.859 120.155 102.642 121.131L102.635 121.176H102.124L102.132 121.108C102.183 120.74 102.253 120.369 102.293 119.985C102.346 119.62 102.372 119.252 102.372 118.873V118.816H102.791L102.8 118.858C102.891 119.191 103.134 119.193 103.47 119.2H110.35C110.716 119.193 110.986 119.187 111.007 118.841L111.012 118.781L111.071 118.792L111.443 118.85L111.437 118.907C111.385 119.262 111.332 119.62 111.295 119.972C111.267 120.326 111.267 120.683 111.267 121.038V121.079L111.229 121.095L110.761 121.266L110.76 121.186C110.723 120.691 110.671 119.972 109.837 119.972H107.729V126.941C107.742 127.937 108.138 128.007 108.767 128.02H109.073V128.529H109.02Z" fill="white"/>
<path d="M111.803 128.075H111.987C112.462 128.075 112.964 128.012 112.964 127.323V120.407C112.964 119.718 112.462 119.655 111.987 119.655H111.803V119.253C112.606 119.253 113.984 119.308 115.09 119.308C116.201 119.308 117.572 119.253 118.467 119.253C118.445 119.823 118.458 120.697 118.498 121.277L118.099 121.383C118.036 120.526 117.877 119.839 116.489 119.839H114.659V123.295H116.225C117.019 123.295 117.192 122.85 117.269 122.136H117.663C117.639 122.651 117.624 123.165 117.624 123.68C117.624 124.183 117.639 124.684 117.663 125.184L117.269 125.264C117.192 124.472 117.151 123.957 116.239 123.957H114.659V127.033C114.659 127.892 115.422 127.892 116.264 127.892C117.852 127.892 118.55 127.786 118.946 126.281L119.314 126.374C119.143 127.076 118.985 127.771 118.866 128.474C118.023 128.474 116.503 128.421 115.314 128.421C114.125 128.421 112.555 128.474 111.803 128.474V128.075Z" fill="white"/>
<path d="M118.818 128.414C118.931 127.749 119.082 127.081 119.246 126.417L118.985 126.351C118.589 127.83 117.824 127.96 116.264 127.949C115.432 127.949 114.6 127.949 114.596 127.033V123.901H116.239C117.161 123.889 117.253 124.448 117.318 125.199L117.604 125.14C117.581 124.654 117.568 124.164 117.568 123.68C117.568 123.185 117.581 122.691 117.604 122.19H117.318C117.246 122.881 117.032 123.362 116.224 123.354H114.596V119.779H116.489C117.864 119.771 118.093 120.481 118.149 121.308L118.434 121.231C118.412 120.858 118.399 120.384 118.399 119.943C118.399 119.712 118.403 119.501 118.409 119.315C117.512 119.317 116.175 119.367 115.09 119.367C114.005 119.367 112.668 119.317 111.86 119.315V119.596H111.987C112.459 119.596 113.02 119.677 113.024 120.405V127.323C113.02 128.052 112.459 128.13 111.987 128.136H111.86V128.414C112.627 128.412 114.155 128.362 115.314 128.362C116.479 128.362 117.965 128.412 118.818 128.414ZM118.866 128.529C118.019 128.529 116.501 128.476 115.314 128.476C114.125 128.476 112.558 128.529 111.803 128.529H111.745V128.021H111.987C112.465 128.013 112.902 127.969 112.906 127.323V120.405C112.902 119.763 112.465 119.719 111.987 119.708H111.745V119.2H111.803C112.607 119.2 113.984 119.252 115.09 119.252C116.198 119.252 117.569 119.2 118.467 119.2H118.527V119.258C118.515 119.457 118.511 119.69 118.511 119.943C118.511 120.397 118.527 120.896 118.551 121.272V121.32L118.509 121.333L118.045 121.454L118.043 121.385C117.965 120.53 117.852 119.906 116.489 119.895H114.711V123.238H116.224C116.987 123.232 117.121 122.842 117.211 122.129L117.216 122.079H117.724V122.136C117.697 122.651 117.681 123.165 117.681 123.68C117.681 124.179 117.697 124.681 117.724 125.185V125.23L117.676 125.241L117.216 125.331L117.211 125.27C117.121 124.465 117.116 124.024 116.239 124.014L114.711 124.011V127.033C114.712 127.836 115.403 127.831 116.264 127.836C117.856 127.827 118.492 127.749 118.889 126.265L118.903 126.212L118.959 126.224L119.381 126.332L119.37 126.388C119.199 127.084 119.042 127.785 118.923 128.481L118.914 128.529H118.866Z" fill="white"/>
<path d="M122.789 123.718H123.433C124.755 123.718 125.467 123.219 125.467 121.66C125.467 120.487 124.714 119.731 123.539 119.731C123.14 119.731 122.971 119.773 122.789 119.785V123.718ZM121.098 120.655C121.098 119.69 120.57 119.654 120.161 119.654H119.92V119.254C120.343 119.254 121.162 119.308 121.969 119.308C122.758 119.308 123.394 119.254 124.096 119.254C125.756 119.254 127.234 119.704 127.234 121.581C127.234 122.768 126.445 123.493 125.402 123.907L127.661 127.283C128.03 127.843 128.291 127.998 128.939 128.075V128.473C128.504 128.473 128.082 128.421 127.646 128.421C127.234 128.421 126.813 128.473 126.405 128.473C125.389 127.141 124.516 125.713 123.658 124.193H122.789V127.019C122.789 128.039 123.262 128.075 123.868 128.075H124.109V128.473C123.353 128.473 122.589 128.421 121.836 128.421C121.203 128.421 120.582 128.473 119.92 128.473V128.075H120.161C120.646 128.075 121.098 127.853 121.098 127.363V120.655Z" fill="white"/>
<path d="M123.434 123.662C124.739 123.649 125.4 123.196 125.411 121.661C125.405 120.509 124.687 119.794 123.538 119.787C123.181 119.787 123.014 119.819 122.846 119.838V123.662H123.434ZM123.434 123.774H122.73V119.73L122.779 119.726C122.96 119.711 123.137 119.677 123.538 119.677C124.739 119.677 125.523 120.458 125.526 121.661C125.521 123.237 124.764 123.774 123.434 123.774ZM122.73 124.136H123.689L123.705 124.165C124.564 125.684 125.433 127.109 126.405 128.417C126.808 128.417 127.233 128.363 127.643 128.363C128.065 128.363 128.473 128.408 128.883 128.414V128.124C128.262 128.049 127.973 127.864 127.614 127.317L125.314 123.878L125.38 123.851C126.414 123.445 127.178 122.739 127.18 121.578C127.178 119.749 125.754 119.321 124.097 119.315C123.399 119.315 122.761 119.366 121.969 119.366C121.19 119.366 120.409 119.317 119.977 119.315V119.597H120.16C120.569 119.597 121.151 119.663 121.151 120.656V127.363C121.151 127.895 120.658 128.135 120.16 128.135H119.977V128.414C120.614 128.412 121.213 128.363 121.833 128.363C122.573 128.363 123.317 128.412 124.048 128.414V128.135H123.869C123.266 128.135 122.73 128.061 122.73 127.019V124.136ZM128.94 128.528C128.497 128.528 128.078 128.478 127.643 128.478C127.242 128.478 126.819 128.528 126.357 128.509C125.347 127.179 124.479 125.761 123.625 124.251H122.846V127.019C122.859 128.013 123.258 128.004 123.869 128.021H124.165V128.528H124.105C123.349 128.528 122.582 128.478 121.833 128.478C121.202 128.478 120.584 128.528 119.919 128.528H119.866V128.021H120.16C120.636 128.016 121.033 127.809 121.038 127.363V120.656C121.029 119.72 120.569 119.721 120.16 119.709H119.866V119.201H119.919C120.35 119.201 121.164 119.251 121.969 119.251C122.756 119.251 123.391 119.201 124.097 119.201C125.758 119.201 127.291 119.663 127.296 121.578C127.296 122.771 126.506 123.516 125.489 123.93L127.706 127.252C128.075 127.8 128.304 127.938 128.947 128.021L128.995 128.025V128.528H128.94Z" fill="white"/>
<path d="M137.903 125.872L137.928 125.846V120.894C137.928 119.811 137.176 119.654 136.782 119.654H136.49V119.254C137.113 119.254 137.716 119.308 138.34 119.308C138.883 119.308 139.422 119.254 139.965 119.254V119.654H139.769C139.214 119.654 138.591 119.758 138.591 121.329V127.339C138.591 127.8 138.603 128.261 138.668 128.67H138.169L131.368 121.093V126.53C131.368 127.682 131.594 128.074 132.611 128.074H132.837V128.473C132.267 128.473 131.698 128.421 131.131 128.421C130.536 128.421 129.929 128.473 129.336 128.473V128.074H129.517C130.431 128.074 130.707 127.458 130.707 126.4V120.84C130.707 120.1 130.099 119.654 129.507 119.654H129.336V119.254C129.835 119.254 130.354 119.308 130.854 119.308C131.248 119.308 131.631 119.254 132.027 119.254L137.903 125.872Z" fill="white"/>
<path d="M137.872 125.845V125.84L137.864 125.832L137.872 125.845ZM138.169 128.613H138.6C138.545 128.218 138.533 127.776 138.533 127.339V121.328C138.533 119.744 139.202 119.599 139.768 119.596H139.906V119.314C139.386 119.317 138.864 119.367 138.34 119.367C137.735 119.367 137.143 119.317 136.549 119.314V119.596H136.782C137.188 119.599 137.989 119.776 137.989 120.894L137.97 125.886L137.946 125.91L137.904 125.955L132.027 119.314C131.636 119.314 131.25 119.367 130.854 119.367C130.363 119.367 129.87 119.317 129.391 119.314V119.596H129.506C130.127 119.599 130.764 120.066 130.764 120.841V126.399C130.764 127.458 130.464 128.131 129.516 128.136H129.391V128.414C129.963 128.41 130.551 128.362 131.131 128.362C131.682 128.362 132.231 128.41 132.778 128.414V128.136H132.611C131.57 128.136 131.311 127.683 131.308 126.531V120.944L138.169 128.613ZM138.668 128.729L138.126 128.709L131.425 121.241V126.531C131.441 127.683 131.616 128.007 132.611 128.021H132.891V128.529H132.834C132.262 128.529 131.695 128.475 131.131 128.475C130.54 128.475 129.928 128.529 129.336 128.529H129.274V128.021H129.516C130.388 128.017 130.64 127.454 130.649 126.399V120.841C130.646 120.135 130.073 119.71 129.506 119.709H129.274V119.2H129.336C129.838 119.2 130.356 119.252 130.854 119.252C131.243 119.252 131.624 119.2 132.067 119.216L137.872 125.751V120.894C137.87 119.844 137.165 119.715 136.782 119.709H136.432V119.2H136.491C137.116 119.2 137.724 119.252 138.34 119.252C138.877 119.252 139.42 119.2 139.964 119.2H140.02V119.709H139.768C139.224 119.722 138.662 119.774 138.648 121.328V127.339C138.648 127.798 138.659 128.255 138.726 128.662L138.732 128.729H138.668Z" fill="white"/>
<path d="M144.017 120.734H143.991L142.762 124.472H145.23L144.017 120.734ZM142.092 126.585C141.957 127.033 141.796 127.38 141.796 127.613C141.796 128.011 142.354 128.075 142.788 128.075H142.935V128.472C142.404 128.446 141.864 128.421 141.334 128.421C140.858 128.421 140.386 128.446 139.911 128.472V128.075H139.988C140.503 128.075 140.941 127.771 141.134 127.217L143.249 121.16C143.421 120.669 143.662 120.011 143.739 119.519C144.161 119.375 144.69 119.112 144.941 118.953C144.982 118.938 145.002 118.928 145.046 118.928C145.084 118.928 145.111 118.928 145.139 118.966C145.178 119.072 145.217 119.191 145.259 119.297L147.686 126.203C147.845 126.664 148.004 127.155 148.174 127.551C148.333 127.92 148.612 128.075 149.047 128.075H149.124V128.472C148.532 128.446 147.937 128.421 147.305 128.421C146.659 128.421 145.998 128.446 145.326 128.472V128.075H145.471C145.773 128.075 146.288 128.025 146.288 127.694C146.288 127.522 146.17 127.165 146.021 126.743L145.507 125.21H142.51L142.092 126.585Z" fill="white"/>
<path d="M142.839 124.416H145.15L144.001 120.876L142.839 124.416ZM142.681 124.531L143.946 120.679H144.056L145.309 124.531H142.681ZM145.38 128.41C146.032 128.39 146.675 128.363 147.305 128.363C147.92 128.363 148.493 128.39 149.067 128.41V128.136H149.047C148.597 128.141 148.287 127.959 148.121 127.573C147.95 127.173 147.789 126.682 147.634 126.221L145.204 119.315C145.163 119.209 145.122 119.09 145.09 118.995C145.077 118.982 145.082 118.982 145.07 118.982H145.045C145.019 118.982 145.004 118.99 144.97 119C144.715 119.164 144.183 119.425 143.792 119.528C143.712 120.03 143.474 120.687 143.302 121.176L141.191 127.238C140.989 127.811 140.526 128.136 139.988 128.136H139.967V128.41C140.419 128.39 140.877 128.363 141.335 128.363C141.846 128.363 142.367 128.39 142.872 128.41V128.136H142.788C142.357 128.13 141.756 128.084 141.742 127.615C141.742 127.352 141.901 127.013 142.033 126.569L142.092 126.585L142.033 126.568L142.469 125.156H145.544L146.074 126.724C146.224 127.15 146.344 127.501 146.344 127.695C146.324 128.1 145.768 128.129 145.471 128.136H145.38V128.41ZM149.121 128.529C148.531 128.505 147.937 128.476 147.305 128.476C146.659 128.476 146.002 128.505 145.326 128.529L145.266 128.534V128.016H145.471C145.774 128.016 146.227 127.949 146.227 127.695C146.23 127.544 146.115 127.181 145.968 126.762L145.466 125.269H142.553L142.141 126.601C142.006 127.054 141.851 127.402 141.851 127.615C141.855 127.937 142.35 128.016 142.788 128.016H142.989V128.534L142.93 128.529C142.402 128.505 141.861 128.476 141.335 128.476C140.861 128.476 140.385 128.505 139.912 128.529L139.854 128.534V128.016H139.988C140.48 128.016 140.889 127.734 141.079 127.199L143.194 121.14C143.368 120.65 143.605 119.992 143.719 119.467C144.133 119.324 144.662 119.058 144.919 118.898C144.957 118.885 144.992 118.866 145.045 118.866C145.077 118.865 145.15 118.875 145.189 118.946C145.23 119.054 145.27 119.171 145.309 119.277L147.743 126.185C147.898 126.646 148.056 127.133 148.227 127.522C148.379 127.877 148.623 128.016 149.047 128.016H149.183V128.534L149.121 128.529Z" fill="white"/>
<path d="M149.708 119.916C148.715 119.916 148.678 120.153 148.479 121.117H148.082C148.135 120.748 148.202 120.378 148.241 119.994C148.295 119.625 148.321 119.254 148.321 118.874H148.637C148.743 119.27 149.074 119.254 149.429 119.254H156.243C156.598 119.254 156.926 119.242 156.954 118.846L157.271 118.901C157.221 119.254 157.17 119.612 157.126 119.969C157.094 120.324 157.094 120.683 157.094 121.039L156.703 121.186C156.681 120.696 156.611 119.916 155.728 119.916H153.562V126.941C153.562 127.961 154.024 128.075 154.659 128.075H154.908V128.473C154.395 128.473 153.47 128.421 152.756 128.421C151.965 128.421 151.039 128.473 150.522 128.473V128.075H150.774C151.504 128.075 151.874 128.011 151.874 126.97V119.916H149.708Z" fill="white"/>
<path d="M154.907 128.529C154.392 128.529 153.467 128.477 152.757 128.477C151.967 128.477 151.044 128.529 150.523 128.529H150.467V128.02H150.775C151.503 128.003 151.793 127.994 151.812 126.969V119.972H149.707V119.86H151.927V126.969C151.927 128.027 151.502 128.13 150.775 128.136H150.58V128.416C151.103 128.41 151.989 128.363 152.757 128.363C153.446 128.363 154.329 128.41 154.852 128.416L154.849 128.136H154.656C154.02 128.13 153.507 127.981 153.506 126.941V119.86H155.727C156.616 119.861 156.729 120.613 156.756 121.104L157.043 120.998C157.043 120.655 157.043 120.31 157.07 119.963C157.106 119.624 157.159 119.286 157.205 118.95L157.008 118.914C156.944 119.297 156.574 119.319 156.241 119.315H149.362C149.05 119.316 148.715 119.299 148.594 118.927H148.378C148.374 119.297 148.35 119.65 148.297 120.004C148.26 120.368 148.196 120.715 148.147 121.06H148.432C148.606 120.143 148.717 119.841 149.707 119.86V119.972C148.726 119.989 148.749 120.155 148.535 121.131L148.524 121.176H148.014L148.022 121.108C148.076 120.74 148.143 120.369 148.182 119.989C148.236 119.62 148.26 119.252 148.26 118.873V118.816H148.678L148.69 118.858C148.783 119.191 149.026 119.193 149.362 119.2H156.241C156.607 119.193 156.876 119.187 156.897 118.841L156.899 118.781L156.963 118.792L157.339 118.85L157.327 118.907C157.27 119.262 157.223 119.62 157.184 119.972C157.159 120.326 157.159 120.683 157.159 121.038V121.079L157.118 121.095L156.65 121.266V121.186C156.616 120.691 156.562 119.972 155.727 119.972H153.618V126.941C153.632 127.937 154.028 128.007 154.656 128.02H154.965V128.529H154.907Z" fill="white"/>
<path d="M157.758 128.075H157.942C158.421 128.075 158.92 128.012 158.92 127.323V120.407C158.92 119.718 158.421 119.655 157.942 119.655H157.758V119.253C158.273 119.253 159.064 119.308 159.711 119.308C160.371 119.308 161.163 119.253 161.787 119.253V119.655H161.603C161.124 119.655 160.621 119.718 160.621 120.407V127.323C160.621 128.012 161.124 128.075 161.603 128.075H161.787V128.474C161.152 128.474 160.36 128.421 159.699 128.421C159.051 128.421 158.273 128.474 157.758 128.474V128.075Z" fill="white"/>
<path d="M161.726 128.414V128.136H161.603C161.128 128.136 160.567 128.052 160.567 127.323V120.405C160.567 119.677 161.128 119.596 161.603 119.596H161.726V119.315C161.117 119.317 160.355 119.367 159.711 119.367C159.084 119.367 158.327 119.317 157.816 119.315V119.596H157.942C158.411 119.596 158.977 119.677 158.977 120.405V127.323C158.977 128.052 158.411 128.136 157.942 128.136H157.816V128.414C158.327 128.407 159.071 128.362 159.699 128.362C160.341 128.362 161.105 128.41 161.726 128.414ZM161.787 128.529C161.149 128.529 160.358 128.476 159.699 128.476C159.054 128.476 158.273 128.529 157.758 128.529H157.703V128.021H157.942C158.421 128.013 158.858 127.969 158.859 127.323V120.405C158.858 119.763 158.421 119.718 157.942 119.708H157.703V119.2H157.758C158.273 119.2 159.067 119.252 159.711 119.252C160.371 119.252 161.161 119.2 161.787 119.2H161.841V119.708H161.603C161.12 119.718 160.684 119.763 160.68 120.405V127.323C160.684 127.969 161.12 128.013 161.603 128.021H161.841V128.529H161.787Z" fill="white"/>
<path d="M167.25 128.09C169.815 128.09 170.258 125.831 170.258 123.907C170.258 121.976 169.219 119.64 167.027 119.64C164.717 119.64 164.031 121.699 164.031 123.466C164.031 125.831 165.113 128.09 167.25 128.09ZM167.053 119.058C169.866 119.058 172.111 120.802 172.111 123.616C172.111 126.653 169.933 128.671 167.12 128.671C164.317 128.671 162.184 126.771 162.184 123.929C162.184 121.187 164.308 119.058 167.053 119.058Z" fill="white"/>
<path d="M163.971 123.466C163.975 121.691 164.671 119.581 167.026 119.581C169.271 119.585 170.316 121.966 170.317 123.907C170.316 125.831 169.861 128.145 167.25 128.145V128.034C169.765 128.032 170.198 125.831 170.204 123.907C170.204 121.992 169.172 119.7 167.026 119.697C164.762 119.7 164.091 121.709 164.087 123.466C164.09 125.821 165.162 128.028 167.25 128.034V128.145C165.061 128.142 163.975 125.844 163.971 123.466ZM162.122 123.93C162.13 121.154 164.278 119.005 167.053 118.999V119.116C164.335 119.116 162.234 121.214 162.234 123.93C162.239 126.738 164.346 128.611 167.119 128.613C169.904 128.611 172.05 126.62 172.057 123.613C172.055 120.836 169.844 119.119 167.053 119.116V118.999C169.888 119.005 172.161 120.766 172.165 123.613C172.164 126.681 169.96 128.723 167.119 128.729C164.296 128.723 162.13 126.799 162.122 123.93Z" fill="white"/>
<path d="M181.011 125.872L181.036 125.846V120.894C181.036 119.811 180.283 119.654 179.883 119.654H179.599V119.254C180.216 119.254 180.826 119.308 181.444 119.308C181.99 119.308 182.53 119.254 183.069 119.254V119.654H182.871C182.315 119.654 181.694 119.758 181.694 121.329V127.339C181.694 127.8 181.71 128.261 181.775 128.67H181.272L174.473 121.093V126.53C174.473 127.682 174.696 128.074 175.715 128.074H175.938V128.473C175.371 128.473 174.805 128.421 174.235 128.421C173.641 128.421 173.032 128.473 172.437 128.473V128.074H172.624C173.538 128.074 173.81 127.458 173.81 126.4V120.84C173.81 120.1 173.206 119.654 172.609 119.654H172.437V119.254C172.941 119.254 173.454 119.308 173.958 119.308C174.352 119.308 174.735 119.254 175.132 119.254L181.011 125.872Z" fill="white"/>
<path d="M180.977 125.845V125.84L180.965 125.832L180.977 125.845ZM181.271 128.613H181.708C181.649 128.217 181.638 127.776 181.638 127.339V121.328C181.638 119.742 182.306 119.599 182.871 119.596H183.014V119.314C182.489 119.317 181.969 119.367 181.441 119.367C180.843 119.367 180.252 119.317 179.653 119.314V119.596H179.883C180.295 119.599 181.091 119.779 181.091 120.894L181.075 125.886L181.052 125.91L181.01 125.955L175.131 119.314C174.742 119.314 174.356 119.367 173.957 119.367C173.47 119.367 172.972 119.317 172.495 119.314V119.596H172.608C173.231 119.599 173.869 120.066 173.869 120.841V126.4C173.869 127.458 173.574 128.131 172.624 128.136H172.495V128.414C173.068 128.41 173.654 128.362 174.236 128.362C174.787 128.362 175.336 128.41 175.881 128.414V128.136H175.71C174.674 128.136 174.416 127.683 174.416 126.531V120.944L181.271 128.613ZM181.775 128.729L181.228 128.709L174.528 121.241V126.531C174.543 127.683 174.719 128.005 175.71 128.017H175.997V128.529H175.939C175.368 128.529 174.8 128.478 174.236 128.478C173.644 128.478 173.037 128.529 172.437 128.529H172.383V128.017H172.624C173.494 128.014 173.746 127.454 173.753 126.4V120.841C173.753 120.135 173.178 119.71 172.608 119.709H172.383V119.2H172.437C172.943 119.2 173.458 119.252 173.957 119.252C174.348 119.252 174.728 119.2 175.177 119.22L180.977 125.751V120.894C180.974 119.844 180.273 119.718 179.883 119.709H179.539V119.2H179.597C180.218 119.2 180.83 119.252 181.441 119.252C181.985 119.252 182.52 119.2 183.069 119.2H183.126V119.709H182.871C182.329 119.725 181.766 119.774 181.754 121.328V127.339C181.754 127.798 181.766 128.259 181.827 128.662L181.838 128.729H181.775Z" fill="white"/>
<path d="M187.119 120.734H187.094L185.865 124.472H188.338L187.119 120.734ZM185.191 126.585C185.062 127.033 184.903 127.38 184.903 127.613C184.903 128.011 185.461 128.075 185.891 128.075H186.039V128.472C185.509 128.446 184.969 128.421 184.44 128.421C183.96 128.421 183.488 128.446 183.017 128.472V128.075H183.089C183.607 128.075 184.045 127.771 184.241 127.217L186.356 121.16C186.528 120.669 186.764 120.011 186.843 119.519C187.265 119.375 187.793 119.112 188.044 118.953C188.084 118.938 188.112 118.928 188.151 118.928C188.189 118.928 188.214 118.928 188.243 118.966C188.283 119.072 188.321 119.191 188.365 119.297L190.792 126.203C190.947 126.664 191.11 127.155 191.281 127.551C191.437 127.92 191.718 128.075 192.153 128.075H192.231V128.472C191.638 128.446 191.041 128.421 190.409 128.421C189.762 128.421 189.1 128.446 188.427 128.472V128.075H188.573C188.875 128.075 189.393 128.025 189.393 127.694C189.393 127.522 189.273 127.165 189.126 126.743L188.614 125.21H185.619L185.191 126.585Z" fill="white"/>
<path d="M185.946 124.413H188.257L187.105 120.879L185.946 124.413ZM185.785 124.526L187.057 120.679H187.163L188.411 124.526H185.785ZM188.485 128.412C189.136 128.39 189.78 128.363 190.41 128.363C191.023 128.363 191.597 128.39 192.172 128.41V128.136H192.151C191.705 128.136 191.391 127.959 191.227 127.573C191.05 127.173 190.893 126.682 190.737 126.221L188.309 119.315C188.27 119.209 188.227 119.09 188.195 119C188.185 118.982 188.185 118.982 188.174 118.982H188.151C188.124 118.982 188.109 118.99 188.074 119C187.819 119.161 187.292 119.426 186.896 119.528C186.818 120.03 186.577 120.687 186.409 121.176L184.293 127.238C184.092 127.811 183.634 128.136 183.091 128.136H183.069V128.41C183.526 128.39 183.981 128.363 184.441 128.363C184.952 128.363 185.472 128.39 185.984 128.41V128.136H185.89C185.463 128.13 184.86 128.084 184.845 127.614C184.847 127.352 185.012 127.015 185.141 126.569L185.191 126.585L185.141 126.568L185.573 125.156H188.655L189.181 126.724C189.329 127.149 189.447 127.501 189.447 127.695C189.428 128.1 188.874 128.129 188.571 128.136H188.485V128.412ZM192.228 128.529C191.633 128.506 191.037 128.477 190.41 128.477C189.765 128.477 189.103 128.506 188.43 128.529L188.372 128.534V128.021H188.571C188.878 128.021 189.334 127.949 189.336 127.695C189.338 127.544 189.221 127.183 189.07 126.762L188.569 125.269H185.654L185.248 126.601C185.116 127.055 184.956 127.402 184.961 127.614C184.961 127.937 185.455 128.021 185.89 128.021H186.094V128.534L186.034 128.529C185.508 128.506 184.965 128.477 184.441 128.477C183.965 128.477 183.493 128.506 183.017 128.529L182.959 128.534V128.021H183.091C183.582 128.015 183.996 127.733 184.187 127.199L186.301 121.14C186.469 120.65 186.708 119.992 186.822 119.467C187.239 119.324 187.77 119.058 188.024 118.898C188.059 118.885 188.099 118.869 188.151 118.869C188.185 118.865 188.254 118.875 188.296 118.948C188.334 119.052 188.373 119.171 188.415 119.277L190.846 126.185C191.002 126.646 191.162 127.133 191.334 127.525C191.49 127.876 191.726 128.015 192.151 128.021H192.286V128.534L192.228 128.529Z" fill="white"/>
<path d="M195.56 127.179C195.56 127.707 195.927 127.865 196.349 127.919C196.89 127.96 197.484 127.96 198.095 127.893C198.646 127.829 199.125 127.51 199.36 127.179C199.57 126.887 199.686 126.52 199.77 126.227H200.153C200.006 126.98 199.821 127.722 199.661 128.473C198.501 128.473 197.337 128.421 196.18 128.421C195.016 128.421 193.852 128.473 192.691 128.473V128.074H192.873C193.353 128.074 193.867 128.012 193.867 127.191V120.406C193.867 119.717 193.353 119.655 192.873 119.655H192.691V119.254C193.391 119.254 194.078 119.308 194.776 119.308C195.451 119.308 196.111 119.254 196.786 119.254V119.655H196.454C195.953 119.655 195.56 119.668 195.56 120.369V127.179Z" fill="white"/>
<path d="M199.617 128.414C199.77 127.699 199.944 126.997 200.082 126.283H199.811C199.73 126.575 199.613 126.927 199.404 127.213C199.159 127.557 198.668 127.879 198.095 127.949C197.748 127.986 197.406 128.003 197.084 128.003C196.829 128.003 196.578 127.991 196.34 127.975C195.913 127.927 195.495 127.744 195.5 127.18V120.368C195.5 119.632 195.963 119.596 196.455 119.596H196.727V119.315C196.077 119.317 195.433 119.367 194.777 119.367C194.091 119.367 193.422 119.317 192.748 119.315V119.596H192.874C193.347 119.596 193.922 119.677 193.922 120.404V127.19C193.922 128.045 193.348 128.136 192.874 128.136H192.748V128.414C193.886 128.412 195.031 128.362 196.18 128.362C197.326 128.362 198.471 128.412 199.617 128.414ZM199.662 128.529C198.498 128.529 197.338 128.477 196.18 128.477C195.017 128.477 193.853 128.529 192.689 128.529H192.636V128.021H192.874C193.352 128.01 193.808 127.975 193.812 127.19V120.404C193.808 119.763 193.357 119.718 192.874 119.708H192.636V119.2H192.689C193.393 119.2 194.079 119.252 194.777 119.252C195.449 119.252 196.109 119.2 196.787 119.2H196.839V119.708H196.455C195.942 119.722 195.623 119.699 195.611 120.368V127.18C195.617 127.672 195.938 127.802 196.354 127.863C196.583 127.879 196.832 127.888 197.084 127.888C197.406 127.888 197.741 127.872 198.087 127.836C198.623 127.772 199.085 127.463 199.314 127.148C199.517 126.863 199.633 126.502 199.71 126.214L199.724 126.168H200.222L200.209 126.241C200.061 126.994 199.88 127.733 199.72 128.487L199.706 128.529H199.662Z" fill="white"/>
<path d="M199.77 120.276H199.933C200.113 120.276 200.196 120.141 200.196 119.921C200.196 119.699 200.063 119.622 199.923 119.622H199.77V120.276ZM199.3 121.01V120.94C199.469 120.917 199.502 120.924 199.502 120.815V119.788C199.502 119.641 199.486 119.592 199.305 119.601V119.528H200.018C200.259 119.528 200.486 119.647 200.486 119.898C200.486 120.107 200.351 120.257 200.158 120.317L200.384 120.638C200.493 120.779 200.613 120.917 200.693 120.965V121.01H200.422C200.293 121.01 200.18 120.734 199.923 120.37H199.77V120.83C199.77 120.924 199.802 120.917 199.97 120.94V121.01H199.3ZM199.991 121.403C200.613 121.403 201.091 120.875 201.091 120.276C201.091 119.676 200.622 119.141 199.991 119.141C199.364 119.141 198.888 119.676 198.888 120.276C198.888 120.875 199.364 121.403 199.991 121.403ZM199.991 118.883C200.786 118.883 201.381 119.495 201.381 120.276C201.381 121.056 200.786 121.661 199.991 121.661C199.197 121.661 198.6 121.056 198.6 120.276C198.6 119.495 199.197 118.883 199.991 118.883Z" fill="white"/>
<path d="M117.56 72.2929C117.56 59.9413 127.572 49.9291 139.924 49.9291C152.276 49.9291 162.288 59.9413 162.288 72.2929C162.288 84.6449 152.276 94.657 139.924 94.657C127.572 94.657 117.56 84.6449 117.56 72.2929Z" fill="#006699"/>
<path d="M153.45 71.8524C153.44 66.1246 149.86 61.2416 144.816 59.3069V84.3981C149.86 82.4606 153.44 77.5819 153.45 71.8524ZM135.193 84.3923V59.3084C130.154 61.2504 126.578 66.1276 126.566 71.8524C126.578 77.5761 130.154 82.4547 135.193 84.3923ZM140.007 50.6451C128.295 50.6495 118.805 60.1402 118.804 71.8524C118.805 83.5634 128.295 93.0526 140.007 93.0541C151.719 93.0526 161.212 83.5634 161.214 71.8524C161.212 60.1402 151.719 50.6495 140.007 50.6451ZM139.955 95.0571C127.138 95.1167 116.589 84.7346 116.589 72.0943C116.589 58.2814 127.138 48.7267 139.955 48.7292H145.962C158.626 48.7267 170.185 58.2755 170.185 72.0943C170.185 84.7287 158.626 95.0571 145.962 95.0571H139.955Z" fill="white"/>
</g>
<defs>
<filter id="filter0_dd_1319_6957" x="0" y="0" width="290" height="216" filterUnits="userSpaceOnUse" color-interpolation-filters="sRGB">
<feFlood flood-opacity="0" result="BackgroundImageFix"/>
<feColorMatrix in="SourceAlpha" type="matrix" values="0 0 0 0 0 0 0 0 0 0 0 0 0 0 0 0 0 0 127 0" result="hardAlpha"/>
<feOffset dy="2"/>
<feGaussianBlur stdDeviation="10"/>
<feColorMatrix type="matrix" values="0 0 0 0 0.717647 0 0 0 0 0.717647 0 0 0 0 0.717647 0 0 0 0.08 0"/>
<feBlend mode="normal" in2="BackgroundImageFix" result="effect1_dropShadow_1319_6957"/>
<feColorMatrix in="SourceAlpha" type="matrix" values="0 0 0 0 0 0 0 0 0 0 0 0 0 0 0 0 0 0 127 0" result="hardAlpha"/>
<feOffset dy="20"/>
<feGaussianBlur stdDeviation="20"/>
<feColorMatrix type="matrix" values="0 0 0 0 0.717647 0 0 0 0 0.717647 0 0 0 0 0.717647 0 0 0 0.08 0"/>
<feBlend mode="normal" in2="effect1_dropShadow_1319_6957" result="effect2_dropShadow_1319_6957"/>
<feBlend mode="normal" in="SourceGraphic" in2="effect2_dropShadow_1319_6957" result="shape"/>
</filter>
</defs>
</svg>
