<?xml version="1.0" encoding="utf-8"?>
<!-- Generator: Adobe Illustrator 24.3.0, SVG Export Plug-In . SVG Version: 6.00 Build 0)  -->
<svg version="1.1" id="Layer_1" xmlns="http://www.w3.org/2000/svg" xmlns:xlink="http://www.w3.org/1999/xlink" x="0px" y="0px"
	 viewBox="0 0 512 512" style="enable-background:new 0 0 512 512;" xml:space="preserve">
<style type="text/css">
	.st0{fill:#0E0E11;}
	.st1{fill:#FFFFFF;}
	.st2{fill:#2091C3;}
	.st3{fill:#FAEC32;}
	.st4{fill:#D0352A;}
</style>
<g id="XMLID_1_">
	<path id="XMLID_2_" class="st0" d="M256,0c141.4,0,256,114.6,256,256S397.4,512,256,512S0,397.4,0,256S114.6,0,256,0"/>
	<path id="XMLID_3_" class="st1" d="M146.31,188.67c-43.34,0-78.55,35.21-78.55,78.55c0,16.13,4.91,31.14,13.19,43.63l77.71-33.95
		l32.4-14.31l0,0l31.7-13.89C214.48,214.34,183.34,188.67,146.31,188.67z M101.56,271.43c-0.14-1.4-0.14-2.67-0.14-4.07
		c0-24.83,20.2-45.03,45.03-45.03c13.47,0,25.53,5.89,33.81,15.29L101.56,271.43z"/>
	<path id="XMLID_6_" class="st1" d="M201.29,323.61c-28.2,26.65-65.37,29.32-98.05,9.54l18.52-28.05
		c18.66,11.08,37.31,9.26,56.11-5.47L201.29,323.61z"/>
	<path id="XMLID_7_" class="st1" d="M233.28,304.11l-0.14-148.69h28.2v144.62c0,1.4,0.14,2.67,1.96,3.37l24.55,9.54l-11.08,28.76
		L248,329.5C237.06,324.87,233.28,318.14,233.28,304.11z"/>
	<path id="XMLID_8_" class="st2" d="M339.32,301.59c-10.52-8.28-17.39-21.04-17.39-35.49c0-12.76,5.33-24.41,14.03-32.54
		l-18.24-29.46c-18.24,14.45-30.02,36.89-30.02,62c0,27.07,13.61,51.06,34.37,65.23L339.32,301.59"/>
	<path id="XMLID_9_" class="st3" d="M351.67,223.88c4.77-1.68,9.82-2.67,15.15-2.67c19.22,0,35.63,12.06,41.94,29.04l34.79-2.95
		c-8.42-34.65-39.56-60.32-76.87-60.32c-10.52,0-20.48,2.1-29.74,5.75L351.67,223.88"/>
	<path id="XMLID_10_" class="st4" d="M411.56,268.34c-1.12,23.71-20.76,42.64-44.75,42.64c-3.79,0-7.43-0.42-10.94-1.4l-13.61,31.7
		c7.72,2.52,15.99,3.93,24.55,3.93c42.64,0,77.29-33.67,78.97-75.89L411.56,268.34"/>
</g>
</svg>
