<svg width="290" height="216" viewBox="0 0 290 216" fill="none" xmlns="http://www.w3.org/2000/svg">
<g filter="url(#filter0_dd_1319_7005)">
<rect x="41" y="21" width="208" height="134" rx="24" fill="#FFFAE6"/>
<rect x="40.5" y="20.5" width="209" height="135" rx="24.5" stroke="#D6DCE5"/>
<path d="M95.8134 73.8458C97.3856 73.3208 99.0664 73.0384 100.816 73.0384C108.446 73.0384 114.816 78.4573 116.276 85.6621L127.092 83.4551C124.608 71.2139 113.791 62.0005 100.816 62.0005C97.843 62.0005 94.9875 62.4849 92.3154 63.3776L95.8134 73.8458Z" fill="#FFCB03"/>
<path d="M83.0493 108.899L90.3631 100.63C87.0989 97.737 85.0387 93.5161 85.0387 88.8128C85.0387 84.1135 87.096 79.8938 90.3583 77.0049L83.0429 68.7348C77.4988 73.6465 74 80.8227 74 88.8128C74 96.8085 77.5004 103.986 83.0493 108.899Z" fill="#00A4E0"/>
<path d="M116.271 91.9764C114.805 99.1763 108.441 104.586 100.814 104.586C99.0639 104.586 97.3783 104.304 95.8077 103.775L92.3041 114.247C94.9761 115.14 97.8381 115.622 100.814 115.622C113.776 115.622 124.593 106.424 127.086 94.1942L116.271 91.9764Z" fill="#EF4023"/>
<path d="M158.161 97.716C158.158 97.7185 158.154 97.7213 158.152 97.7249L157.845 97.5173C156.96 98.9543 155.576 100.119 153.833 100.875C150.514 102.318 147.439 101.947 145.23 100.01L145.027 100.319C145.025 100.316 145.024 100.313 145.021 100.313L141.255 105.947C142.189 106.597 143.194 107.147 144.248 107.587C148.408 109.315 152.666 109.236 156.859 107.411C159.892 106.098 162.273 104.093 163.899 101.552L158.161 97.716ZM146.404 83.8142C142.899 85.3204 141.092 88.6072 141.464 92.4624L156.309 86.0735C153.757 83.0736 150.435 82.0787 146.404 83.8142ZM136.547 100.978C136.193 100.404 135.711 99.4862 135.422 98.8103C133.709 94.8344 133.626 90.7189 135.073 86.7687C136.663 82.4367 139.701 79.1202 143.626 77.4309C148.561 75.3076 154.019 75.7264 158.749 78.5324C161.754 80.2558 163.884 82.9175 165.5 86.6806C165.707 87.1629 165.889 87.6771 166.065 88.1144L136.547 100.978Z" fill="#231F20"/>
<path d="M176.384 69.1319V100.457L181.256 102.432L178.488 108.889L173.113 106.65C171.906 106.127 171.085 105.328 170.463 104.426C169.868 103.506 169.423 102.243 169.423 100.543V69.1319H176.384Z" fill="#231F20"/>
<path d="M189 92.4785C189.002 89.8108 190.18 87.42 192.044 85.7931L187.048 80.2224C183.66 83.2171 181.525 87.5946 181.521 92.47C181.515 97.3491 183.647 101.731 187.032 104.734L192.022 99.1579C190.168 97.5245 188.999 95.1393 189 92.4785Z" fill="#231F20"/>
<path d="M197.877 101.367C196.893 101.365 195.946 101.202 195.061 100.907L192.676 108.003C194.306 108.55 196.054 108.848 197.869 108.851C205.78 108.859 212.387 103.245 213.917 95.783L206.584 94.2852C205.748 98.3312 202.167 101.371 197.877 101.367Z" fill="#231F20"/>
<path d="M197.9 76.1193C196.086 76.1173 194.34 76.4125 192.712 76.9548L195.076 84.0558C195.963 83.7626 196.91 83.6012 197.892 83.6012C202.193 83.6053 205.777 86.6635 206.591 90.7195L213.927 89.2314C212.418 81.7591 205.817 76.1241 197.9 76.1193Z" fill="#231F20"/>
</g>
<defs>
<filter id="filter0_dd_1319_7005" x="0" y="0" width="290" height="216" filterUnits="userSpaceOnUse" color-interpolation-filters="sRGB">
<feFlood flood-opacity="0" result="BackgroundImageFix"/>
<feColorMatrix in="SourceAlpha" type="matrix" values="0 0 0 0 0 0 0 0 0 0 0 0 0 0 0 0 0 0 127 0" result="hardAlpha"/>
<feOffset dy="2"/>
<feGaussianBlur stdDeviation="10"/>
<feColorMatrix type="matrix" values="0 0 0 0 0.717647 0 0 0 0 0.717647 0 0 0 0 0.717647 0 0 0 0.08 0"/>
<feBlend mode="normal" in2="BackgroundImageFix" result="effect1_dropShadow_1319_7005"/>
<feColorMatrix in="SourceAlpha" type="matrix" values="0 0 0 0 0 0 0 0 0 0 0 0 0 0 0 0 0 0 127 0" result="hardAlpha"/>
<feOffset dy="20"/>
<feGaussianBlur stdDeviation="20"/>
<feColorMatrix type="matrix" values="0 0 0 0 0.717647 0 0 0 0 0.717647 0 0 0 0 0.717647 0 0 0 0.08 0"/>
<feBlend mode="normal" in2="effect1_dropShadow_1319_7005" result="effect2_dropShadow_1319_7005"/>
<feBlend mode="normal" in="SourceGraphic" in2="effect2_dropShadow_1319_7005" result="shape"/>
</filter>
</defs>
</svg>
