<?xml version="1.0" encoding="utf-8"?>
<!-- Generator: Adobe Illustrator 26.5.0, SVG Export Plug-In . SVG Version: 6.00 Build 0)  -->
<svg version="1.1" id="Layer_1" xmlns="http://www.w3.org/2000/svg" xmlns:xlink="http://www.w3.org/1999/xlink" x="0px" y="0px"
	 viewBox="0 0 512 512" style="enable-background:new 0 0 512 512;" xml:space="preserve">
<style type="text/css">
	.st0{fill:#B3131B;}
</style>
<g id="XMLID_1_">
	<path id="XMLID_18_" class="st0" d="M213.94,367.61l-214.09,0.14v-0.56c0-0.28,0.28-2.11,0.7-4.07s1.12-5.05,1.4-6.88
		c0.42-1.83,0.98-5.05,1.4-7.02c0.42-1.97,1.12-5.33,1.54-7.44c0.42-2.11,1.12-5.33,1.4-7.3c0.42-1.97,0.98-5.05,1.4-7.02
		c0.42-1.97,1.12-5.19,1.54-7.44c0.42-2.11,1.12-5.33,1.4-7.3c0.28-1.97,0.98-4.77,1.26-6.32c0.42-1.68,0.84-3.79,0.98-4.91
		s0.84-4.21,1.4-7.02c0.56-2.81,1.26-5.9,1.4-7.02c0.14-1.12,0.84-4.21,1.4-7.02s1.26-5.9,1.4-7.02s0.84-4.21,1.4-7.02
		c0.56-2.81,1.26-5.9,1.4-6.88c0.14-0.98,0.7-3.51,1.12-5.76c0.42-2.11,1.26-6.18,1.83-8.98s1.54-7.58,2.25-10.81
		c0.56-3.09,1.4-6.88,1.68-8.28s0.84-3.93,1.12-5.76c0.42-1.68,0.98-4.77,1.4-6.88c0.42-2.11,1.12-5.48,1.54-7.58
		c0.42-2.11,1.12-5.33,1.4-7.16c0.28-1.83,0.98-4.91,1.4-6.88c0.42-1.97,1.12-5.33,1.54-7.58c0.42-2.25,1.26-5.62,1.68-7.58
		c0.42-1.97,1.12-4.21,1.54-5.19c0.28-0.98,1.26-2.95,2.11-4.49l1.54-2.81l1.4-1.83c0.7-0.98,2.11-2.53,2.95-3.37
		c0.84-0.84,2.39-2.25,3.23-2.95c0.98-0.7,2.25-1.83,2.95-2.25c0.7-0.42,2.11-1.4,3.09-1.97c0.98-0.56,2.39-1.26,3.09-1.68
		c0.7-0.28,2.11-0.98,3.23-1.4c1.12-0.42,3.09-1.12,4.49-1.54s4.07-1.12,5.9-1.4c1.83-0.42,4.77-0.84,6.46-1.12l3.09-0.42
		l214.23-0.14l214.23-0.14v0.56c0,0.28-0.28,2.11-0.7,4.07s-1.12,5.33-1.54,7.44s-1.12,5.19-1.4,6.88c-0.28,1.68-0.98,4.77-1.4,7.02
		c-0.42,2.25-1.12,5.62-1.54,7.58c-0.42,1.97-0.98,5.05-1.4,7.02s-0.98,5.05-1.4,7.02c-0.42,1.97-0.98,4.91-1.4,6.74
		c-0.42,1.83-0.98,5.05-1.4,7.16c-0.42,2.11-1.12,5.48-1.54,7.58c-0.42,1.97-1.12,5.05-1.4,6.88c-0.42,1.83-0.98,5.05-1.4,7.16
		c-0.42,2.11-1.12,5.48-1.54,7.58c-0.42,1.97-0.98,5.05-1.4,6.74c-0.28,1.68-0.98,4.91-1.4,7.16c-0.42,2.25-1.12,5.48-1.4,7.16
		c-0.28,1.68-0.98,4.77-1.4,6.74c-0.42,1.97-1.12,5.48-1.54,7.58c-0.42,2.25-1.12,5.33-1.4,7.02s-0.98,4.77-1.4,6.88
		c-0.42,2.11-1.12,5.48-1.54,7.58c-0.42,1.97-1.12,5.19-1.4,7.02c-0.42,1.83-0.98,5.05-1.4,7.16c-0.42,2.11-1.12,5.48-1.54,7.58
		c-0.42,2.11-1.12,5.19-1.4,6.88c-0.42,1.68-0.98,4.91-1.4,7.02c-0.42,2.11-1.12,5.48-1.54,7.44l-0.84,3.65l-0.98,2.53
		c-0.56,1.4-1.26,3.23-1.68,4.07s-1.26,2.39-1.97,3.37c-0.7,0.98-1.54,2.25-1.97,2.81c-0.42,0.56-1.83,1.97-2.95,3.23l-2.25,2.25
		l-2.11,1.54c-1.12,0.84-2.39,1.68-2.81,1.83c-0.42,0.14-1.83,0.84-3.09,1.54c-1.26,0.7-3.23,1.54-4.21,1.83
		c-0.98,0.42-2.95,0.98-4.21,1.4c-1.4,0.42-2.81,0.84-3.23,0.84c-0.42,0.14-1.97,0.42-3.23,0.7c-1.4,0.28-4.21,0.7-6.18,0.98
		l-3.65,0.42L213.94,367.61L213.94,367.61z M137.71,312.3h5.62l0.14-0.42c0.14-0.28,0.14-0.7,0.14-1.12c0-0.42,0.14-1.97,0.42-3.37
		s0.7-4.77,1.12-7.44s0.98-6.6,1.4-8.84c0.28-2.25,0.84-5.05,0.98-6.32c0.14-1.26,0.42-2.25,0.42-2.25c0.14,0,0.42,0.56,0.84,1.26
		l0.7,1.26l1.4,1.4l1.4,1.4l1.83,0.7l1.83,0.7l2.11,0.28l2.11,0.28l2.67-0.14l2.67-0.14l2.95-0.7l2.95-0.7l1.54-0.7
		c0.84-0.42,2.39-1.26,3.37-1.83l1.83-1.12l1.68-1.68c0.98-0.98,2.25-2.39,2.95-3.37c0.7-0.84,1.26-1.68,1.26-1.83
		s0.28-0.7,0.7-1.26s1.26-2.25,1.83-3.65c0.56-1.4,1.54-3.93,2.11-5.76l0.98-3.09l0.56-2.67c0.28-1.54,0.7-3.93,0.84-5.48l0.28-2.81
		l-0.14-2.39l-0.14-2.39l-0.56-2.39l-0.56-2.39l-0.84-1.68l-0.84-1.68l-1.68-1.83l-1.68-1.83l-1.97-0.98l-1.97-0.98l-2.25-0.56
		l-2.25-0.56l-2.25-0.14l-2.25-0.14l-2.39,0.28l-2.39,0.28l-1.97,0.56l-1.97,0.56l-1.68,0.84c-0.98,0.42-2.39,1.26-3.09,1.68
		s-1.54,0.98-1.68,1.26c-0.14,0.14-0.7,0.56-0.98,0.84l-0.7,0.42l0.42-2.25c0.28-1.26,0.42-2.39,0.42-2.67v-0.28h-5.19H146
		l-0.84,5.19c-0.42,2.95-1.12,7.3-1.54,9.97c-0.42,2.53-1.12,6.46-1.4,8.56c-0.42,2.11-0.98,5.9-1.4,8.42
		c-0.42,2.53-1.12,6.46-1.54,8.84c-0.42,2.39-1.12,5.76-1.4,7.58s-0.98,5.33-1.4,7.72c-0.42,2.39-1.12,6.32-1.54,8.56
		s-1.12,5.9-1.54,8c-0.42,2.11-0.84,4.21-0.84,4.49l-0.14,0.56h5.33V312.3z M161.72,282.25l-2.11,0.14l-1.4-0.28l-1.4-0.28l-1.4-0.7
		l-1.4-0.7l-0.98-0.98l-0.98-0.98l-0.56-1.26c-0.28-0.7-0.7-1.97-0.84-2.67l-0.28-1.4l0.14-2.25l0.14-2.25l0.7-3.51
		c0.42-1.97,0.98-5.48,1.4-8c0.42-2.53,1.12-6.18,1.54-8.14l0.7-3.65l1.54-1.26c0.84-0.7,2.11-1.54,2.81-1.97l1.4-0.84l1.83-0.56
		l1.83-0.56l2.39-0.14l2.39-0.14l1.97,0.42l1.97,0.42l1.4,0.56l1.4,0.56l1.12,1.12l1.12,1.12l0.56,1.26
		c0.28,0.7,0.84,1.97,0.98,2.81l0.42,1.68l-0.14,4.91l-0.14,4.91l-0.7,2.95c-0.42,1.54-1.12,4.07-1.54,5.48l-0.84,2.53l-1.12,2.11
		c-0.56,1.12-1.54,2.67-2.11,3.37c-0.56,0.7-1.4,1.68-1.83,2.11c-0.56,0.42-1.4,1.12-1.83,1.54l-0.98,0.7l-2.25,0.7l-2.25,0.7
		L161.72,282.25L161.72,282.25z M215.49,289.41h2.81l2.81-0.28c1.54-0.14,4.07-0.42,5.76-0.7c1.54-0.28,4.21-0.7,6.04-1.12l3.23-0.7
		l0.14-1.12c0.14-0.7,0.42-2.53,0.84-4.21l0.7-3.09l-0.14-0.14l-0.14-0.14l-0.98,0.42c-0.56,0.28-2.25,0.84-3.65,1.4l-2.67,0.84
		l-2.81,0.56l-2.81,0.56h-4.49h-4.49l-1.54-0.56c-0.84-0.28-2.11-0.84-2.81-1.12l-1.26-0.56l-0.98-0.98l-0.98-0.98l-0.84-1.4
		l-0.84-1.4l-0.56-1.68l-0.56-1.68v-3.23v-3.23l0.42-2.95l0.42-2.95l3.93-0.14l3.93-0.14l14.46,0.14l14.46,0.14l0.42-1.83
		c0.28-0.98,0.56-3.09,0.84-4.63l0.42-2.81v-2.39v-2.39l-0.42-1.83l-0.42-1.83l-0.7-1.12c-0.42-0.7-0.98-1.54-1.4-2.11
		c-0.42-0.56-1.26-1.26-1.68-1.54c-0.56-0.42-1.54-0.98-2.25-1.4l-1.26-0.7l-2.25-0.56l-2.25-0.56l-2.81-0.28l-2.81-0.28l-2.53,0.14
		l-2.53,0.14l-3.09,0.56l-3.09,0.56l-1.97,0.84c-1.12,0.42-2.67,1.26-3.65,1.68c-0.98,0.56-2.25,1.4-2.81,1.97
		c-0.7,0.56-1.68,1.54-2.53,2.25c-0.7,0.7-1.83,1.97-2.39,2.81c-0.56,0.84-1.4,2.39-1.97,3.37c-0.56,0.98-1.12,2.39-1.4,3.09
		c-0.28,0.7-0.84,2.11-1.26,3.23c-0.42,1.12-0.98,3.09-1.26,4.49c-0.28,1.4-0.84,3.79-0.98,5.19l-0.42,2.67v3.79v3.79l0.42,1.68
		c0.28,0.98,0.56,2.39,0.98,3.09c0.28,0.84,0.84,1.97,1.12,2.53c0.42,0.7,1.12,1.68,1.68,2.25c0.56,0.56,1.68,1.54,2.39,2.11
		s1.97,1.26,2.81,1.68l1.54,0.7l2.11,0.56c1.12,0.28,2.95,0.56,3.93,0.7C211.84,289.27,213.94,289.41,215.49,289.41L215.49,289.41z
		 M220.4,252.91c-7.16,0-13.06,0-13.06-0.14c0,0,0.28-0.98,0.7-1.97c0.42-0.98,0.98-2.53,1.4-3.51l0.84-1.54l1.68-1.68l1.68-1.68
		l1.68-0.84c0.98-0.42,2.11-0.98,2.67-1.12s2.25-0.28,3.65-0.42l2.53-0.14l1.97,0.28l1.97,0.28l1.4,0.7l1.4,0.7l0.84,0.84
		c0.42,0.42,0.98,1.12,1.12,1.54l0.42,0.7l0.28,1.54l0.28,1.54l-0.28,2.53l-0.28,2.53H220.4V252.91z M297.9,289.41h2.81l3.23-0.42
		c1.83-0.28,4.21-0.56,5.33-0.84c1.12-0.28,2.95-0.7,4.07-0.98s2.11-0.7,2.25-0.7c0.14-0.14,0.42-1.26,0.7-2.67
		c0.28-1.4,0.56-3.09,0.7-3.93c0.14-0.84,0.28-1.54,0.14-1.68c0,0-0.28,0-0.42,0.14c-0.14,0.14-1.4,0.7-2.81,1.12l-2.53,0.98
		l-3.51,0.7l-3.51,0.7l-3.09-0.14l-3.09-0.14l-1.68-0.56l-1.68-0.56l-1.26-1.12l-1.26-1.12l-0.84-1.54l-0.84-1.54l-0.42-2.11
		l-0.42-2.11v-2.81v-2.81l0.56-3.37l0.56-3.37l0.56-1.83c0.28-0.98,0.56-2.11,0.7-2.53c0.14-0.42,0.56-1.68,1.12-2.67
		c0.42-1.12,1.26-2.67,1.83-3.65l0.98-1.68l1.26-1.26l1.26-1.26l1.26-0.84l1.26-0.84l1.68-0.56c0.98-0.28,2.53-0.7,3.65-0.84
		l1.97-0.28l2.81,0.14l2.81,0.14l3.37,0.7l3.37,0.7l1.4,0.56c0.7,0.28,1.4,0.56,1.4,0.56s0.28-0.98,0.42-2.11
		c0.14-1.12,0.56-3.09,0.7-4.35c0.28-1.12,0.28-2.25,0.28-2.25s-1.12-0.28-2.25-0.42c-1.12-0.14-4.35-0.42-7.16-0.56l-4.91-0.28
		l-3.51,0.28l-3.51,0.28l-2.53,0.56l-2.53,0.56l-1.68,0.7c-0.98,0.42-2.25,0.98-2.95,1.4c-0.7,0.42-1.68,0.98-2.11,1.26
		c-0.42,0.28-1.68,1.4-2.67,2.53l-1.97,1.97l-1.12,1.68c-0.56,0.84-1.68,2.81-2.39,4.07l-1.26,2.53l-0.98,2.67
		c-0.56,1.54-1.26,3.93-1.54,5.48l-0.7,2.67l-0.28,2.53l-0.28,2.53v3.23v3.23l0.28,1.83l0.28,1.83l0.84,1.97l0.84,1.97l0.84,1.4
		l0.84,1.4l1.4,1.4l1.4,1.4l1.54,0.84l1.54,0.84l1.97,0.56c1.12,0.28,2.67,0.7,3.51,0.7C294.39,289.27,296.35,289.41,297.9,289.41
		L297.9,289.41z M340.58,289.27l3.51-0.14l2.25-0.56l2.25-0.56l1.4-0.7c0.84-0.42,2.11-1.12,2.81-1.68c0.7-0.56,1.97-1.54,2.67-2.25
		c0.7-0.7,1.68-1.83,2.25-2.67c0.56-0.7,1.12-1.26,1.12-1.26s-0.14,1.26-0.28,2.67c-0.14,1.4-0.42,3.37-0.42,4.21v1.68h4.77h4.77
		l0.14-3.65l0.14-3.65l0.7-4.77c0.42-2.67,0.98-6.6,1.4-8.7c0.42-2.11,0.98-5.76,1.4-8c0.42-2.25,1.12-5.9,1.4-7.86l0.7-3.79v-3.23
		v-3.23l-0.7-1.54l-0.7-1.54l-0.98-0.98l-0.98-0.98l-1.68-0.84l-1.68-0.84l-2.39-0.56l-2.39-0.56l-3.37-0.28l-3.37-0.28l-4.35,0.28
		c-2.39,0.14-5.76,0.42-7.44,0.7l-3.09,0.42h-2.11h-2.11l-0.28,1.54c-0.14,0.84-0.7,2.81-0.98,4.35c-0.42,1.54-0.7,2.81-0.7,2.95
		c0,0,1.12-0.28,2.53-0.56c1.4-0.28,4.21-0.98,6.32-1.26l3.93-0.7l3.51-0.14l3.51-0.14l2.25,0.42l2.25,0.42l1.54,0.7l1.54,0.7
		l0.84,1.26l0.84,1.26v1.97v1.97l-0.42,2.11l-0.42,2.11h-9.27h-9.27l-3.09,0.84c-1.68,0.42-3.51,1.12-4.07,1.4s-1.12,0.56-1.26,0.56
		c-0.14,0-1.12,0.56-2.25,1.26l-1.97,1.26l-1.54,1.54c-0.84,0.84-1.97,2.11-2.39,2.81c-0.42,0.7-1.26,2.25-1.68,3.37l-0.84,1.97
		l-0.42,2.25l-0.42,2.25v2.39v2.39l0.42,1.97l0.42,1.97l0.7,1.26c0.42,0.7,1.12,1.68,1.54,2.25l0.84,0.98l1.54,0.98l1.54,0.98
		l1.83,0.56c0.98,0.28,2.53,0.56,3.37,0.7l1.54,0.28L340.58,289.27L340.58,289.27z M343.8,282.11l-2.11,0.14l-1.4-0.28
		c-0.7-0.14-1.97-0.56-2.53-0.98l-1.12-0.56l-0.7-0.7c-0.42-0.42-0.84-1.26-1.26-1.83l-0.56-1.12l-0.14-2.53l-0.14-2.53l0.42-1.54
		c0.28-0.84,0.84-2.25,1.26-3.23l0.84-1.68l1.54-1.54l1.54-1.54l1.68-0.84l1.68-0.84l2.11-0.56l2.11-0.56h6.46h6.46l0.42,0.14
		l0.42,0.14l-0.28,1.97c-0.14,1.12-0.7,3.09-0.98,4.49c-0.42,1.4-0.98,3.37-1.4,4.35c-0.42,1.12-0.7,1.97-0.7,2.11
		c0,0.14-0.42,0.84-0.98,1.68l-0.98,1.54l-1.54,1.54c-0.84,0.84-1.68,1.54-1.83,1.54c-0.14,0-0.7,0.28-1.12,0.7l-0.98,0.7l-2.11,0.7
		l-2.11,0.7L343.8,282.11L343.8,282.11z M428.04,289.41h2.53l2.39-0.42c1.26-0.14,2.95-0.56,3.65-0.7c0.7-0.14,1.97-0.7,2.81-1.12
		l1.54-0.84l1.4-1.12l1.4-1.12l1.4-1.83c0.84-0.98,1.54-2.11,1.54-2.25l0.14-0.42l-0.14,1.26c-0.14,0.7-0.28,1.83-0.42,2.53
		c-0.14,0.7-0.28,2.11-0.42,3.09l-0.14,1.68h5.05h5.05v-1.68v-1.68l0.84-6.6c0.42-3.65,1.12-8.42,1.4-10.81
		c0.28-2.25,0.84-5.48,1.12-7.3c0.28-1.83,0.84-4.77,1.26-6.88c0.42-2.11,0.98-5.62,1.4-8c0.42-2.39,1.12-6.04,1.54-8.28
		c0.42-2.25,0.98-5.62,1.4-7.58c0.42-1.97,0.98-5.48,1.4-7.72c0.42-2.25,1.12-5.48,1.4-7.16c0.28-1.68,0.56-3.09,0.56-3.23v-0.14
		h-5.48h-5.48l-0.14,1.68c-0.14,0.84-0.56,3.79-0.98,6.6c-0.42,2.67-1.12,7.02-1.54,9.55s-0.84,5.05-0.84,5.48l-0.14,0.84
		l-0.42-0.14c-0.28-0.14-1.54-0.42-2.95-0.84l-2.53-0.56l-3.37-0.28l-3.37-0.28l-2.81,0.28l-2.81,0.28l-2.53,0.7l-2.53,0.7
		l-2.53,1.26l-2.53,1.26l-1.83,1.4l-1.83,1.4l-1.54,1.68c-0.84,0.98-2.11,2.39-2.81,3.37l-1.26,1.68l-1.4,2.95
		c-0.84,1.54-1.68,3.79-2.11,4.77c-0.42,0.98-0.98,3.23-1.54,4.91l-0.84,3.09l-0.42,4.07l-0.42,4.07l0.28,3.23l0.28,3.23l0.28,1.12
		c0.14,0.7,0.56,1.83,0.84,2.53l0.56,1.4l0.98,1.4l0.98,1.4l1.12,0.98l1.12,0.98l1.54,0.7c0.84,0.42,2.25,0.98,3.23,1.26
		c0.84,0.28,2.39,0.56,3.23,0.7C424.95,289.27,426.77,289.41,428.04,289.41L428.04,289.41z M432.53,282.11l-1.97,0.14l-1.26-0.28
		c-0.7-0.14-1.83-0.42-2.53-0.84l-1.26-0.56l-1.12-0.84l-1.12-0.84l-0.84-1.54l-0.7-1.54l-0.42-1.68l-0.42-1.68v-3.37v-3.37
		l0.42-2.95l0.42-2.95l0.7-2.11c0.42-1.12,0.7-2.25,0.7-2.39c0-0.14,0.42-1.12,0.84-2.11c0.42-0.98,1.12-2.39,1.54-3.37
		c0.42-0.84,1.26-2.25,1.83-2.95c0.56-0.84,1.54-1.97,2.25-2.53c0.7-0.7,1.68-1.54,2.39-1.97l1.12-0.7l2.11-0.7l2.11-0.7h4.21h4.21
		l2.53,0.7c1.4,0.42,2.81,0.84,3.23,0.98l0.7,0.28l-0.14,0.7c-0.14,0.42-0.42,2.11-0.7,3.79s-0.84,4.91-1.26,7.3
		c-0.42,2.25-1.12,5.76-1.4,7.58c-0.42,1.97-0.84,4.35-1.12,5.48c-0.28,1.12-0.7,2.53-0.84,3.23c-0.14,0.7-0.7,1.97-1.12,2.81
		c-0.42,0.84-1.12,1.97-1.54,2.67c-0.42,0.7-1.26,1.54-1.68,1.97c-0.42,0.42-1.54,1.26-2.25,1.83l-1.4,0.98l-2.11,0.7l-2.11,0.7
		L432.53,282.11L432.53,282.11z M51.23,288.15h6.32l0.42-2.81c0.28-1.54,0.7-4.49,1.12-6.6c0.28-2.11,0.98-5.9,1.4-8.56
		s1.12-6.6,1.4-8.7c0.42-2.11,0.98-5.48,1.26-7.3c0.28-1.97,0.7-3.51,0.7-3.65l0.14-0.14H81h16.99l0.14,0.14l0.14,0.14l-0.28,1.54
		c-0.14,0.84-0.7,3.37-1.12,5.62c-0.42,2.25-1.12,6.18-1.54,8.56c-0.42,2.39-1.12,5.9-1.4,7.58c-0.28,1.83-0.98,5.48-1.54,8.28
		c-0.56,2.81-0.98,5.19-0.98,5.33v0.28h6.32h6.32l0.28-1.68c0.14-0.84,0.42-2.53,0.56-3.51c0.14-1.12,0.56-3.37,0.84-5.05
		c0.28-1.68,0.84-5.05,1.26-7.58c0.42-2.39,1.12-6.6,1.54-9.27c0.42-2.67,1.12-6.46,1.4-8.56c0.42-2.11,0.98-5.62,1.4-7.72
		c0.42-2.25,1.12-5.9,1.54-8.28s1.12-5.9,1.4-7.86c0.28-1.97,0.98-5.62,1.4-8c0.42-2.39,0.98-5.19,1.26-6.32l0.42-1.83h-6.46h-6.46
		l-0.14,1.26c-0.14,0.7-0.42,2.53-0.7,4.21s-0.84,4.49-1.12,6.46c-0.28,1.97-0.98,5.62-1.4,8.14c-0.42,2.53-0.98,5.9-1.26,7.58
		l-0.42,2.95l-9.41,0.14l-9.41,0.14l-7.86-0.14c-4.35-0.14-7.86-0.14-7.86-0.28c0,0,0.14-0.98,0.28-2.25
		c0.14-1.26,0.56-3.37,0.84-4.63s0.84-4.07,1.12-5.9c0.42-1.97,0.84-4.35,0.84-5.33c0.14-0.98,0.42-2.67,0.7-3.65
		c0.28-0.98,0.56-3.23,0.98-4.77c0.28-1.68,0.56-3.09,0.7-3.37l0.14-0.42h-6.32h-6.32l-0.42,2.25c-0.28,1.26-0.56,3.09-0.7,3.93
		c-0.14,0.98-0.56,3.93-0.98,6.6c-0.42,2.67-1.12,6.74-1.4,8.98c-0.28,2.25-0.98,6.18-1.4,8.98c-0.42,2.67-1.12,6.88-1.54,9.27
		c-0.42,2.39-1.12,5.9-1.4,7.58c-0.28,1.83-0.98,5.19-1.4,7.58c-0.42,2.39-1.12,5.62-1.4,7.44c-0.28,1.68-0.7,3.65-0.84,4.35
		c-0.14,0.7-0.56,2.81-0.84,4.63s-0.7,3.51-0.7,3.65v0.42h6.46V288.15z M120.87,288.15h5.62l0.14-0.42
		c0.14-0.28,0.14-0.84,0.14-1.26c0-0.56,0.28-3.09,0.84-5.76c0.42-2.67,1.12-7.02,1.54-9.69c0.42-2.67,1.12-6.46,1.4-8.56
		c0.42-2.11,0.98-5.48,1.4-7.58c0.42-2.11,0.98-5.48,1.4-7.44s1.12-5.62,1.54-8.14c0.56-2.53,0.98-4.77,1.12-4.91l0.14-0.28h-5.62
		h-5.62l-0.42,3.37c-0.28,1.83-0.84,5.48-1.26,8.14c-0.42,2.67-1.12,6.6-1.4,8.98c-0.42,2.25-0.98,5.9-1.4,8.14
		c-0.42,2.25-0.98,5.62-1.4,7.58c-0.42,1.97-0.98,5.33-1.4,7.58s-0.98,5.05-1.26,6.46s-0.56,2.67-0.7,3.09l-0.14,0.56h5.33V288.15z
		 M251.29,288.15h5.48l0.14-2.39c0.14-1.26,0.42-3.93,0.7-5.76c0.28-1.83,0.84-5.62,1.26-8.28c0.42-2.67,1.26-7.16,1.83-9.97
		c0.56-2.81,1.12-5.62,1.4-6.18c0.28-0.56,0.42-1.26,0.42-1.4s0.42-1.26,0.98-2.39c0.56-1.12,1.4-2.81,2.11-3.79l1.12-1.68l1.54-1.4
		l1.54-1.4l1.97-0.98l1.97-0.98h2.95h2.95l1.4,0.42c0.84,0.28,1.54,0.42,1.68,0.42c0.14,0,0.14-0.28,0.14-0.56s0.28-2.11,0.7-3.79
		c0.42-1.68,0.7-3.23,0.7-3.37c0-0.14-0.84-0.42-1.83-0.7c-0.98-0.28-2.53-0.7-3.23-0.7l-1.26-0.14l-1.68,0.28
		c-0.98,0.14-2.25,0.56-3.09,0.84c-0.7,0.28-1.97,0.84-2.81,1.4c-0.7,0.56-1.97,1.4-2.67,2.11c-0.7,0.7-1.83,2.11-2.53,3.09
		c-0.7,0.98-1.54,2.11-1.68,2.39l-0.42,0.28l0.28-0.98c0.14-0.56,0.42-2.39,0.7-4.21c0.28-1.68,0.56-3.37,0.7-3.51l0.14-0.42h-4.91
		h-4.91v0.56c0,0.28-0.28,2.39-0.7,4.63c-0.42,2.25-0.98,5.9-1.26,8.14c-0.42,2.25-0.98,6.18-1.4,8.84
		c-0.42,2.53-1.12,6.18-1.4,8.14c-0.42,1.97-0.98,5.33-1.4,7.58c-0.42,2.25-1.12,5.76-1.54,8c-0.42,2.25-0.98,4.77-1.12,5.76
		c-0.14,0.98-0.42,1.83-0.42,1.97v0.28L251.29,288.15L251.29,288.15z M382.55,288.15h5.62v-1.68v-1.68l0.7-4.35
		c0.42-2.39,0.98-6.04,1.26-8.28c0.42-2.25,0.84-5.05,0.98-6.18c0.14-1.26,0.7-3.79,1.12-5.9c0.42-1.97,0.98-4.21,1.12-4.77
		c0.14-0.56,0.42-1.26,0.42-1.54c0-0.14,0.42-1.4,1.12-2.53l1.12-2.25l1.4-1.83l1.4-1.83l1.54-1.12c0.84-0.7,2.25-1.54,3.09-1.83
		l1.54-0.7h3.23h3.23l1.26,0.42l1.26,0.42l0.28-0.14l0.28-0.14v-0.84c0-0.42,0.28-2.11,0.56-3.79l0.56-2.95l-0.7-0.28
		c-0.42-0.14-1.26-0.42-1.97-0.7l-1.26-0.42h-2.39h-2.39l-1.97,0.7l-1.97,0.7l-1.4,0.84l-1.4,0.84l-1.83,1.97l-1.83,1.97l-0.98,1.54
		c-0.56,0.84-0.98,1.4-1.12,1.4c0,0,0.28-1.83,0.7-3.79c0.42-2.11,0.7-4.07,0.7-4.35v-0.56h-4.77h-4.77v0.14
		c0,0.14-0.28,1.68-0.56,3.65c-0.28,1.97-0.84,5.62-1.26,8.28c-0.42,2.67-1.12,6.88-1.54,9.41c-0.42,2.53-1.12,6.18-1.4,8.14
		s-0.98,5.33-1.4,7.58c-0.42,2.25-1.12,5.76-1.54,7.86c-0.42,2.11-0.98,4.91-1.26,6.32l-0.42,2.39L382.55,288.15L382.55,288.15z
		 M131.82,224.97h1.54l1.26-0.42l1.26-0.42l1.12-1.12l1.12-1.12l0.56-1.54l0.56-1.54v-2.25v-2.25l-0.56-0.84l-0.56-0.84l-0.84-0.56
		l-0.84-0.56h-1.97h-1.97l-1.26,0.56l-1.26,0.56l-0.7,0.84l-0.7,0.84l-0.56,1.4l-0.56,1.4l-0.14,2.25l-0.14,2.25l0.56,1.12
		l0.56,1.12l1.12,0.56l1.12,0.56L131.82,224.97L131.82,224.97z"/>
</g>
</svg>
