<svg width="290" height="216" viewBox="0 0 290 216" fill="none" xmlns="http://www.w3.org/2000/svg">
<g filter="url(#filter0_dd_1319_6927)">
<rect x="41" y="21" width="208" height="134" rx="24" fill="#0165B0"/>
<rect x="40.5" y="20.5" width="209" height="135" rx="24.5" stroke="#D6DCE5"/>
<path d="M195.488 112.422C195.488 121.234 188.313 128.41 179.5 128.41H92.5122V65.0885C92.5122 56.2764 99.6878 49.1008 108.5 49.1008H195.488V112.422Z" fill="white"/>
<path d="M173.018 54.4512C166.723 54.4512 161.562 59.5496 161.562 65.9069V77.8032H177.739C178.116 77.8032 178.557 77.8032 178.872 77.8662C182.522 78.055 185.229 79.9433 185.229 83.2164C185.229 85.7971 183.403 88.0001 180.004 88.4407V88.5666C183.718 88.8184 186.551 90.8955 186.551 94.1056C186.551 97.5675 183.403 99.8335 179.249 99.8335H161.499V123.123H178.305C184.599 123.123 189.761 118.024 189.761 111.667V54.4512H173.018Z" fill="url(#paint0_linear_1319_6927)"/>
<path d="M167.164 96.1828H173.773C173.868 96.1828 174.025 96.167 174.183 96.1513C174.34 96.1356 174.497 96.1198 174.592 96.1198C175.851 95.8681 176.921 94.7351 176.921 93.1615C176.921 91.6508 175.851 90.5179 174.592 90.2031C174.403 90.1402 174.025 90.1402 173.773 90.1402H167.164V96.1828Z" fill="url(#paint1_linear_1319_6927)"/>
<path d="M173.773 81.2652C175.032 81.454 176.102 82.4611 176.102 83.9718C176.102 85.4824 175.032 86.4895 173.773 86.6783C173.711 86.7413 173.333 86.7413 173.144 86.7413H167.164V81.2023H173.144C173.248 81.2023 173.39 81.2213 173.518 81.2385C173.622 81.2525 173.717 81.2652 173.773 81.2652Z" fill="url(#paint2_linear_1319_6927)"/>
<path d="M109.696 54.4512C103.402 54.4512 98.2402 59.5496 98.2402 65.9069V94.1686C101.45 95.7421 104.786 96.7492 108.122 96.7492C112.088 96.7492 114.228 94.3574 114.228 91.0843V77.7403H124.047V91.0214C124.047 96.1828 120.837 100.4 109.948 100.4C103.339 100.4 98.1772 98.9523 98.1772 98.9523V123.06H114.983C121.278 123.06 126.439 117.961 126.439 111.604V54.4512H109.696Z" fill="url(#paint3_linear_1319_6927)"/>
<path d="M141.357 54.4512C135.062 54.4512 129.901 59.5496 129.901 65.9069V80.8875C132.796 78.4327 137.832 76.8591 145.952 77.2367C150.295 77.4256 154.952 78.6215 154.952 78.6215V83.4682C152.624 82.2722 149.854 81.2022 146.266 80.9504C140.098 80.5098 136.384 83.5311 136.384 88.8184C136.384 94.1686 140.098 97.1899 146.266 96.6863C149.854 96.4345 152.624 95.3015 154.952 94.1686V99.0152C154.952 99.0152 150.358 100.211 145.952 100.4C137.832 100.778 132.796 99.204 129.901 96.7492V123.186H146.707C153.001 123.186 158.163 118.087 158.163 111.73V54.4512H141.357Z" fill="url(#paint4_linear_1319_6927)"/>
</g>
<defs>
<filter id="filter0_dd_1319_6927" x="0" y="0" width="290" height="216" filterUnits="userSpaceOnUse" color-interpolation-filters="sRGB">
<feFlood flood-opacity="0" result="BackgroundImageFix"/>
<feColorMatrix in="SourceAlpha" type="matrix" values="0 0 0 0 0 0 0 0 0 0 0 0 0 0 0 0 0 0 127 0" result="hardAlpha"/>
<feOffset dy="2"/>
<feGaussianBlur stdDeviation="10"/>
<feColorMatrix type="matrix" values="0 0 0 0 0.717647 0 0 0 0 0.717647 0 0 0 0 0.717647 0 0 0 0.08 0"/>
<feBlend mode="normal" in2="BackgroundImageFix" result="effect1_dropShadow_1319_6927"/>
<feColorMatrix in="SourceAlpha" type="matrix" values="0 0 0 0 0 0 0 0 0 0 0 0 0 0 0 0 0 0 127 0" result="hardAlpha"/>
<feOffset dy="20"/>
<feGaussianBlur stdDeviation="20"/>
<feColorMatrix type="matrix" values="0 0 0 0 0.717647 0 0 0 0 0.717647 0 0 0 0 0.717647 0 0 0 0.08 0"/>
<feBlend mode="normal" in2="effect1_dropShadow_1319_6927" result="effect2_dropShadow_1319_6927"/>
<feBlend mode="normal" in="SourceGraphic" in2="effect2_dropShadow_1319_6927" result="shape"/>
</filter>
<linearGradient id="paint0_linear_1319_6927" x1="161.551" y1="83.9639" x2="189.838" y2="83.9639" gradientUnits="userSpaceOnUse">
<stop stop-color="#007940"/>
<stop offset="0.2285" stop-color="#00873F"/>
<stop offset="0.7433" stop-color="#40A737"/>
<stop offset="1" stop-color="#5CB531"/>
</linearGradient>
<linearGradient id="paint1_linear_1319_6927" x1="161.551" y1="83.9639" x2="189.838" y2="83.9639" gradientUnits="userSpaceOnUse">
<stop stop-color="#007940"/>
<stop offset="0.2285" stop-color="#00873F"/>
<stop offset="0.7433" stop-color="#40A737"/>
<stop offset="1" stop-color="#5CB531"/>
</linearGradient>
<linearGradient id="paint2_linear_1319_6927" x1="161.551" y1="83.9639" x2="189.838" y2="83.9639" gradientUnits="userSpaceOnUse">
<stop stop-color="#007940"/>
<stop offset="0.2285" stop-color="#00873F"/>
<stop offset="0.7433" stop-color="#40A737"/>
<stop offset="1" stop-color="#5CB531"/>
</linearGradient>
<linearGradient id="paint3_linear_1319_6927" x1="98.2269" y1="88.7594" x2="126.95" y2="88.7594" gradientUnits="userSpaceOnUse">
<stop stop-color="#1F286F"/>
<stop offset="0.4751" stop-color="#004E94"/>
<stop offset="0.8261" stop-color="#0066B1"/>
<stop offset="1" stop-color="#006FBC"/>
</linearGradient>
<linearGradient id="paint4_linear_1319_6927" x1="129.738" y1="88.7594" x2="157.635" y2="88.7594" gradientUnits="userSpaceOnUse">
<stop stop-color="#6C2C2F"/>
<stop offset="0.1735" stop-color="#882730"/>
<stop offset="0.5731" stop-color="#BE1833"/>
<stop offset="0.8585" stop-color="#DC0436"/>
<stop offset="1" stop-color="#E60039"/>
</linearGradient>
</defs>
</svg>
