<svg width="290" height="216" viewBox="0 0 290 216" fill="none" xmlns="http://www.w3.org/2000/svg">
<g filter="url(#filter0_dd_1319_6941)">
<rect x="41" y="21" width="208" height="134" rx="24" fill="#000008"/>
<rect x="40.5" y="20.5" width="209" height="135" rx="24.5" stroke="#D6DCE5"/>
<path d="M124.118 128.559V123.261C124.149 122.817 124.085 122.371 123.93 121.953C123.775 121.536 123.533 121.156 123.219 120.839C122.906 120.523 122.529 120.276 122.113 120.117C121.697 119.958 121.252 119.889 120.807 119.915C120.224 119.877 119.64 119.996 119.119 120.26C118.597 120.524 118.155 120.923 117.841 121.416C117.554 120.938 117.143 120.546 116.652 120.282C116.161 120.018 115.608 119.891 115.051 119.915C114.565 119.89 114.081 119.993 113.648 120.213C113.214 120.433 112.845 120.762 112.578 121.169V120.127H110.742V128.559H112.596V123.888C112.555 123.599 112.579 123.305 112.665 123.026C112.752 122.747 112.9 122.491 113.097 122.277C113.295 122.062 113.538 121.894 113.809 121.785C114.079 121.676 114.371 121.628 114.662 121.645C115.88 121.645 116.498 122.44 116.498 123.87V128.559H118.353V123.888C118.315 123.6 118.341 123.306 118.429 123.029C118.517 122.752 118.664 122.497 118.861 122.284C119.058 122.07 119.3 121.902 119.569 121.791C119.838 121.681 120.128 121.631 120.419 121.645C121.672 121.645 122.273 122.44 122.273 123.87V128.559H124.118ZM134.448 124.347V120.136H132.594V121.16C132.283 120.758 131.88 120.436 131.419 120.221C130.959 120.006 130.453 119.904 129.945 119.924C128.774 119.924 127.652 120.389 126.824 121.217C125.996 122.045 125.531 123.167 125.531 124.338C125.531 125.509 125.996 126.632 126.824 127.46C127.652 128.288 128.774 128.753 129.945 128.753C130.453 128.772 130.959 128.67 131.419 128.455C131.88 128.24 132.283 127.919 132.594 127.517V128.541H134.43L134.448 124.347ZM127.623 124.347C127.652 123.85 127.826 123.373 128.124 122.974C128.421 122.574 128.828 122.271 129.296 122.1C129.763 121.93 130.271 121.899 130.755 122.013C131.24 122.127 131.68 122.381 132.022 122.742C132.365 123.103 132.594 123.557 132.682 124.047C132.77 124.536 132.713 125.041 132.517 125.499C132.322 125.957 131.997 126.347 131.582 126.623C131.167 126.898 130.681 127.046 130.184 127.049C129.832 127.057 129.483 126.992 129.158 126.857C128.833 126.723 128.54 126.522 128.298 126.268C128.055 126.013 127.868 125.711 127.749 125.38C127.63 125.05 127.581 124.698 127.606 124.347H127.623ZM173.685 119.932C174.289 119.931 174.889 120.045 175.451 120.268C175.987 120.483 176.476 120.801 176.89 121.204C177.298 121.603 177.622 122.081 177.843 122.608C178.305 123.74 178.305 125.007 177.843 126.139C177.623 126.666 177.298 127.144 176.89 127.543C176.476 127.946 175.987 128.264 175.451 128.479C174.286 128.931 172.995 128.931 171.831 128.479C171.297 128.264 170.811 127.946 170.4 127.543C169.996 127.142 169.675 126.665 169.456 126.139C168.995 125.007 168.995 123.74 169.456 122.608C169.675 122.082 169.996 121.605 170.4 121.204C170.811 120.801 171.297 120.483 171.831 120.268C172.413 120.027 173.037 119.904 173.667 119.906L173.685 119.932ZM173.685 121.698C173.325 121.693 172.968 121.759 172.634 121.893C172.319 122.019 172.034 122.208 171.795 122.449C171.552 122.702 171.363 123.003 171.239 123.332C170.969 124.037 170.969 124.816 171.239 125.521C171.362 125.85 171.552 126.151 171.795 126.404C172.034 126.645 172.319 126.835 172.634 126.96C173.307 127.224 174.054 127.224 174.727 126.96C175.056 126.839 175.357 126.649 175.61 126.404C175.854 126.151 176.043 125.851 176.166 125.521C176.435 124.816 176.435 124.037 176.166 123.332C176.043 123.002 175.854 122.702 175.61 122.449C175.357 122.204 175.056 122.014 174.727 121.893C174.394 121.74 174.033 121.656 173.667 121.645L173.685 121.698ZM144.425 124.347C144.425 121.698 142.783 119.932 140.425 119.932C139.255 119.949 138.138 120.43 137.322 121.269C136.506 122.109 136.056 123.238 136.073 124.409C136.089 125.58 136.57 126.696 137.409 127.512C138.249 128.329 139.378 128.778 140.549 128.762C141.806 128.805 143.035 128.383 144.001 127.578L143.118 126.219C142.421 126.778 141.557 127.089 140.664 127.102C140.057 127.154 139.453 126.967 138.982 126.581C138.51 126.196 138.208 125.641 138.139 125.036H144.399C144.425 124.815 144.425 124.594 144.425 124.347ZM138.148 123.605C138.182 123.045 138.431 122.519 138.845 122.139C139.258 121.759 139.802 121.553 140.364 121.566C140.638 121.56 140.912 121.608 141.168 121.708C141.424 121.808 141.658 121.957 141.856 122.147C142.055 122.338 142.214 122.565 142.324 122.817C142.435 123.068 142.495 123.339 142.5 123.614L138.148 123.605ZM152.151 122.281C151.344 121.817 150.432 121.567 149.502 121.557C148.495 121.557 147.895 121.928 147.895 122.546C147.895 123.164 148.531 123.27 149.325 123.376L150.208 123.499C152.045 123.764 153.157 124.541 153.157 126.025C153.157 127.508 151.744 128.779 149.316 128.779C148.015 128.814 146.737 128.43 145.67 127.684L146.553 126.254C147.363 126.855 148.352 127.166 149.361 127.137C150.614 127.137 151.285 126.766 151.285 126.113C151.285 125.636 150.808 125.371 149.802 125.23L148.919 125.106C147.03 124.841 146.005 123.994 146.005 122.617C146.005 120.939 147.383 119.915 149.537 119.915C150.743 119.874 151.935 120.181 152.972 120.798L152.151 122.281ZM160.98 121.804H157.987V125.61C157.987 126.493 158.287 127.022 159.205 127.022C159.778 127.003 160.337 126.839 160.83 126.546L161.359 128.117C160.671 128.547 159.875 128.773 159.064 128.77C156.892 128.77 156.132 127.605 156.132 125.645V121.804H154.42V120.127H156.132V117.566H157.987V120.127H160.98V121.804ZM167.328 119.915C167.773 119.917 168.215 119.994 168.635 120.144L168.069 121.91C167.705 121.765 167.314 121.693 166.922 121.698C165.721 121.698 165.156 122.475 165.156 123.87V128.594H163.319V120.162H165.138V121.186C165.364 120.799 165.689 120.48 166.081 120.262C166.472 120.045 166.915 119.937 167.363 119.95L167.328 119.915ZM180.024 127.331C180.139 127.33 180.253 127.351 180.36 127.393C180.461 127.434 180.554 127.494 180.633 127.57C180.711 127.646 180.774 127.736 180.819 127.835C180.863 127.938 180.886 128.049 180.886 128.161C180.886 128.274 180.863 128.385 180.819 128.488C180.774 128.587 180.711 128.677 180.633 128.753C180.554 128.828 180.461 128.888 180.36 128.929C180.254 128.976 180.14 129 180.024 129C179.857 128.999 179.693 128.95 179.552 128.859C179.412 128.769 179.3 128.64 179.229 128.488C179.185 128.385 179.162 128.274 179.162 128.161C179.162 128.049 179.185 127.938 179.229 127.835C179.274 127.736 179.337 127.646 179.415 127.57C179.494 127.494 179.587 127.434 179.689 127.393C179.781 127.356 179.88 127.335 179.98 127.331H180.024ZM180.024 128.823C180.112 128.824 180.199 128.806 180.28 128.77C180.356 128.737 180.425 128.689 180.483 128.629C180.558 128.554 180.613 128.461 180.644 128.36C180.675 128.258 180.681 128.15 180.661 128.046C180.641 127.941 180.596 127.844 180.53 127.761C180.463 127.678 180.378 127.612 180.28 127.57C180.199 127.534 180.112 127.516 180.024 127.517C179.936 127.517 179.849 127.535 179.768 127.57C179.689 127.602 179.617 127.65 179.556 127.711C179.446 127.831 179.384 127.989 179.384 128.152C179.384 128.316 179.446 128.473 179.556 128.594C179.617 128.656 179.69 128.705 179.771 128.738C179.851 128.772 179.937 128.788 180.024 128.788V128.823ZM180.077 127.773C180.159 127.769 180.241 127.794 180.307 127.843C180.334 127.866 180.355 127.894 180.369 127.926C180.383 127.959 180.389 127.994 180.386 128.029C180.387 128.058 180.382 128.087 180.372 128.115C180.361 128.142 180.345 128.167 180.324 128.188C180.273 128.234 180.208 128.262 180.139 128.267L180.395 128.559H180.192L179.953 128.267H179.874V128.559H179.706V127.746L180.077 127.773ZM179.883 127.923V128.135H180.077C180.112 128.145 180.148 128.145 180.183 128.135C180.189 128.122 180.192 128.109 180.192 128.095C180.192 128.081 180.189 128.068 180.183 128.055C180.189 128.043 180.192 128.029 180.192 128.016C180.192 128.002 180.189 127.988 180.183 127.976C180.148 127.966 180.112 127.966 180.077 127.976L179.883 127.923Z" fill="white"/>
<path d="M158.331 55.7977H130.519V105.779H158.331V55.7977Z" fill="#7673C0"/>
<path d="M132.285 80.793C132.28 75.9787 133.37 71.2264 135.474 66.8959C137.577 62.5654 140.638 58.7702 144.425 55.7978C139.736 52.1127 134.105 49.8211 128.175 49.1851C122.245 48.549 116.256 49.594 110.892 52.2007C105.528 54.8074 101.006 58.8706 97.8418 63.926C94.6779 68.9813 93 74.8248 93 80.7886C93 86.7524 94.6779 92.5959 97.8418 97.6513C101.006 102.707 105.528 106.77 110.892 109.377C116.256 111.983 122.245 113.028 128.175 112.392C134.105 111.756 139.736 109.465 144.425 105.779C140.639 102.808 137.579 99.0142 135.475 94.6853C133.372 90.3564 132.281 85.6058 132.285 80.793Z" fill="#EB001B"/>
<path d="M192.817 100.482V99.493H193.232V99.2812H192.182V99.493H192.597V100.517L192.817 100.482ZM194.857 100.482V99.2458H194.539L194.168 100.129L193.798 99.2458H193.471V100.482H193.7V99.5549L194.045 100.358H194.283L194.627 99.5549V100.491L194.857 100.482Z" fill="#00A1DF"/>
<path d="M195.846 80.793C195.844 86.7557 194.166 92.5977 191.002 97.6517C187.838 102.706 183.316 106.768 177.953 109.374C172.59 111.98 166.602 113.025 160.673 112.389C154.744 111.753 149.114 109.463 144.425 105.779C148.209 102.805 151.269 99.0104 153.373 94.6813C155.477 90.3522 156.57 85.6018 156.57 80.7885C156.57 75.9753 155.477 71.2249 153.373 66.8958C151.269 62.5666 148.209 58.7719 144.425 55.7978C149.114 52.1115 154.745 49.8188 160.675 49.1818C166.605 48.5448 172.595 49.5892 177.96 52.1955C183.324 54.8019 187.847 58.865 191.012 63.9205C194.176 68.976 195.855 74.8199 195.855 80.7841L195.846 80.793Z" fill="#00A1DF"/>
</g>
<defs>
<filter id="filter0_dd_1319_6941" x="0" y="0" width="290" height="216" filterUnits="userSpaceOnUse" color-interpolation-filters="sRGB">
<feFlood flood-opacity="0" result="BackgroundImageFix"/>
<feColorMatrix in="SourceAlpha" type="matrix" values="0 0 0 0 0 0 0 0 0 0 0 0 0 0 0 0 0 0 127 0" result="hardAlpha"/>
<feOffset dy="2"/>
<feGaussianBlur stdDeviation="10"/>
<feColorMatrix type="matrix" values="0 0 0 0 0.717647 0 0 0 0 0.717647 0 0 0 0 0.717647 0 0 0 0.08 0"/>
<feBlend mode="normal" in2="BackgroundImageFix" result="effect1_dropShadow_1319_6941"/>
<feColorMatrix in="SourceAlpha" type="matrix" values="0 0 0 0 0 0 0 0 0 0 0 0 0 0 0 0 0 0 127 0" result="hardAlpha"/>
<feOffset dy="20"/>
<feGaussianBlur stdDeviation="20"/>
<feColorMatrix type="matrix" values="0 0 0 0 0.717647 0 0 0 0 0.717647 0 0 0 0 0.717647 0 0 0 0.08 0"/>
<feBlend mode="normal" in2="effect1_dropShadow_1319_6941" result="effect2_dropShadow_1319_6941"/>
<feBlend mode="normal" in="SourceGraphic" in2="effect2_dropShadow_1319_6941" result="shape"/>
</filter>
</defs>
</svg>
