<?xml version="1.0" encoding="utf-8"?>
<!-- Generator: Adobe Illustrator 19.0.0, SVG Export Plug-In . SVG Version: 6.00 Build 0)  -->
<svg version="1.1" id="Layer_1" xmlns="http://www.w3.org/2000/svg" xmlns:xlink="http://www.w3.org/1999/xlink" x="0px" y="0px"
	 viewBox="0 0 500 500" style="enable-background:new 0 0 500 500;" xml:space="preserve">
<style type="text/css">
	.st0{fill:#6C6BBD;}
	.st1{fill:#D32011;}
	.st2{fill:#0099DF;}
	.st3{fill:#110F0D;}
</style>
<g id="XMLID_1_">
	<rect id="XMLID_2_" x="200.7" y="132.5" class="st0" width="98.7" height="177.4"/>
	<path id="XMLID_3_" class="st1" d="M206.9,221.2c0-36,16.8-68,43.1-88.7c-19.2-15.1-43.4-24.1-69.7-24.1
		c-62.3,0-112.8,50.5-112.8,112.8S118,334,180.3,334c26.3,0,50.5-9,69.7-24.1C223.8,289.2,206.9,257.2,206.9,221.2"/>
	<path id="XMLID_4_" class="st2" d="M432.5,221.2c0,62.3-50.5,112.8-112.8,112.8c-26.3,0-50.5-9-69.7-24.1
		c26.2-20.7,43.1-52.7,43.1-88.7c0-36-16.8-68-43.1-88.7c19.2-15.1,43.4-24.1,69.7-24.1C382,108.4,432.5,158.9,432.5,221.2"/>
	<path id="XMLID_5_" class="st3" d="M332.7,360c1.3,0,3.2,0.3,4.6,0.8l-2,6.1c-1.4-0.6-2.8-0.8-4.1-0.8c-4.3,0-6.4,2.8-6.4,7.7v16.8
		h-6.5v-29.9h6.5v3.6C326.5,361.7,329,360,332.7,360z M308.7,366.7H298v13.5c0,3,1.1,5,4.3,5c1.7,0,3.8-0.6,5.8-1.7l1.9,5.6
		c-2.1,1.4-5.3,2.3-8.1,2.3c-7.7,0-10.4-4.1-10.4-11.1v-13.7h-6.1v-6h6.1v-9.1h6.6v9.1h10.6V366.7z M225.3,373.1
		c0.7-4.3,3.3-7.3,8-7.3c4.2,0,6.9,2.6,7.6,7.3H225.3z M247.6,375.7c-0.1-9.3-5.8-15.7-14.2-15.7c-8.8,0-14.9,6.4-14.9,15.7
		c0,9.5,6.4,15.7,15.4,15.7c4.5,0,8.6-1.1,12.3-4.2l-3.2-4.8c-2.5,2-5.7,3.1-8.7,3.1c-4.2,0-8-1.9-9-7.3h22.2
		C247.5,377.4,247.6,376.6,247.6,375.7z M276.2,368.4c-1.8-1.1-5.5-2.6-9.3-2.6c-3.6,0-5.7,1.3-5.7,3.5c0,2,2.3,2.6,5.1,2.9l3.1,0.4
		c6.5,0.9,10.5,3.7,10.5,9c0,5.7-5,9.8-13.7,9.8c-4.9,0-9.4-1.3-13-3.9l3.1-5.1c2.2,1.7,5.5,3.1,10,3.1c4.4,0,6.8-1.3,6.8-3.6
		c0-1.7-1.7-2.6-5.3-3.1l-3.1-0.4c-6.7-0.9-10.3-4-10.3-8.8c0-6,4.9-9.6,12.5-9.6c4.8,0,9.1,1.1,12.2,3.1L276.2,368.4z M356.6,366.2
		c-1.3,0-2.6,0.2-3.7,0.7c-1.1,0.5-2.1,1.1-3,2c-0.8,0.8-1.5,1.9-2,3c-0.5,1.2-0.7,2.5-0.7,3.9c0,1.4,0.2,2.7,0.7,3.9
		c0.5,1.2,1.1,2.2,2,3c0.8,0.8,1.8,1.5,3,2c1.2,0.5,2.4,0.7,3.7,0.7s2.6-0.2,3.7-0.7c1.2-0.5,2.2-1.1,3-2c0.9-0.8,1.5-1.9,2-3
		c0.5-1.2,0.7-2.5,0.7-3.9c0-1.4-0.2-2.7-0.7-3.9c-0.5-1.2-1.1-2.2-2-3c-0.8-0.8-1.8-1.5-3-2C359.1,366.4,357.9,366.2,356.6,366.2z
		 M356.6,360c2.3,0,4.5,0.4,6.5,1.2c2,0.8,3.7,1.9,5.1,3.3c1.4,1.4,2.6,3.1,3.4,5c0.8,1.9,1.2,4,1.2,6.3s-0.4,4.4-1.2,6.3
		c-0.8,1.9-1.9,3.6-3.4,5c-1.4,1.4-3.2,2.5-5.1,3.3c-2,0.8-4.1,1.2-6.5,1.2c-2.3,0-4.5-0.4-6.5-1.2c-2-0.8-3.7-1.9-5.1-3.3
		c-1.4-1.4-2.6-3.1-3.4-5c-0.8-1.9-1.2-4-1.2-6.3s0.4-4.4,1.2-6.3c0.8-1.9,1.9-3.6,3.4-5c1.4-1.4,3.1-2.5,5.1-3.3
		C352.1,360.4,354.2,360,356.6,360z M187.2,375.7c0-5.3,3.4-9.6,9.1-9.6c5.4,0,9,4.1,9,9.6c0,5.5-3.6,9.6-9,9.6
		C190.6,385.3,187.2,381,187.2,375.7z M211.4,375.7v-15h-6.5v3.6c-2.1-2.7-5.2-4.4-9.5-4.4c-8.4,0-15,6.6-15,15.7
		c0,9.1,6.6,15.7,15,15.7c4.3,0,7.4-1.7,9.5-4.4v3.6h6.5V375.7z M174.7,390.7v-18.8c0-7.1-4.5-11.8-11.8-11.9
		c-3.8-0.1-7.8,1.1-10.5,5.3c-2.1-3.3-5.3-5.3-9.9-5.3c-3.2,0-6.3,0.9-8.8,4.4v-3.7h-6.5v29.9h6.6v-16.6c0-5.2,2.9-8,7.3-8
		c4.3,0,6.5,2.8,6.5,7.9v16.7h6.6v-16.6c0-5.2,3-8,7.3-8c4.5,0,6.6,2.8,6.6,7.9v16.7H174.7z"/>
</g>
</svg>
