<?xml version="1.0" encoding="utf-8"?>
<!-- Generator: Adobe Illustrator 21.0.0, SVG Export Plug-In . SVG Version: 6.00 Build 0)  -->
<svg version="1.1" id="Layer_1" xmlns="http://www.w3.org/2000/svg" xmlns:xlink="http://www.w3.org/1999/xlink" x="0px" y="0px"
	 viewBox="0 0 512 512" style="enable-background:new 0 0 512 512;" xml:space="preserve">
<style type="text/css">
	.st0{fill:#FF9800;}
	.st1{fill:#FFD54F;}
</style>
<g>
	<path class="st0" d="M0,404.2V107.8c0-29.6,24.3-53.9,53.9-53.9h404.2c29.6,0,53.9,24.3,53.9,53.9v296.4
		c0,29.6-24.3,53.9-53.9,53.9H53.9C24.3,458.1,0,433.9,0,404.2z"/>
	<path class="st1" d="M512,215.6v-26.9H350.3c-14.8,0-26.9-12.1-26.9-26.9c0-14.8,12.1-26.9,26.9-26.9h13.5v-26.9h-13.5
		c-29.6,0-53.9,24.3-53.9,53.9s24.3,53.9,53.9,53.9h40.4v80.8h-40.4c-37.7,0-67.4,29.6-67.4,67.4s29.6,67.4,67.4,67.4h26.9v-26.9
		h-26.9c-22.9,0-40.4-17.5-40.4-40.4c0-22.9,17.5-40.4,40.4-40.4H512v-26.9h-94.3v-80.8H512z"/>
	<path class="st1" d="M161.7,296.4h-40.4v-80.8h40.4c29.6,0,53.9-24.3,53.9-53.9s-24.3-53.9-53.9-53.9h-40.4v26.9h40.4
		c14.8,0,26.9,12.1,26.9,26.9c0,14.8-12.1,26.9-26.9,26.9H0v26.9h94.3v80.8H0v26.9h161.7c22.9,0,40.4,17.5,40.4,40.4
		c0,22.9-17.5,40.4-40.4,40.4h-26.9v26.9h26.9c37.7,0,67.4-29.6,67.4-67.4S199.4,296.4,161.7,296.4z"/>
</g>
</svg>
