<svg width="290" height="216" viewBox="0 0 290 216" fill="none" xmlns="http://www.w3.org/2000/svg">
<g filter="url(#filter0_dd_1319_7021)">
<rect x="41" y="21" width="208" height="134" rx="24" fill="#E5F0F0"/>
<rect x="40.5" y="20.5" width="209" height="135" rx="24.5" stroke="#D6DCE5"/>
<path d="M105.805 49H137.461C141.881 49 144.632 52.603 143.601 57.04L128.86 120.316C127.818 124.739 123.396 128.342 118.976 128.342H87.3178C82.8971 128.342 80.1489 124.739 81.18 120.316L95.9282 57.04C96.9563 52.603 101.376 49 105.805 49Z" fill="#ED171F"/>
<path d="M134.829 49H171.236C175.654 49 173.661 52.603 172.623 57.04L157.883 120.316C156.854 124.739 157.177 128.342 152.747 128.342H116.343C111.918 128.342 109.177 124.739 110.217 120.316L124.95 57.04C125.992 52.603 130.409 49 134.829 49Z" fill="#082F67"/>
<path d="M169.796 49H201.447C205.87 49 208.618 52.603 207.582 57.04L192.844 120.316C191.809 124.739 187.388 128.342 182.953 128.342H151.31C146.88 128.342 144.136 124.739 145.175 120.316L159.908 57.04C160.945 52.603 165.365 49 169.796 49Z" fill="#006A65"/>
<path fill-rule="evenodd" clip-rule="evenodd" d="M166.487 69.2302H167.811L168.063 69.2357C170.661 69.2919 172.843 69.3391 173.951 70.8555C174.372 71.4575 174.553 72.24 174.553 73.0226C174.553 73.6848 174.433 74.2868 174.312 74.7683C173.831 76.815 172.807 78.5607 171.242 79.7045C168.955 81.39 166.005 81.39 163.416 81.39H163.176C162.995 81.5104 162.815 81.7512 162.815 81.7512C162.815 81.8716 162.213 84.3397 162.213 84.3397C162.213 84.3397 161.49 87.7709 161.37 88.3127C160.888 88.2525 159.624 88.2525 156.674 88.3127C156.795 87.7107 159.744 75.6111 159.744 75.6111L160.948 69.8924L161.129 69.17C161.671 69.2302 163.055 69.2904 166.487 69.2302ZM167.389 78.019C168.473 77.5374 169.256 76.4538 169.557 75.1897C169.858 73.8052 169.436 72.7216 168.413 72.3003C168.353 72.3003 165.644 72.0595 165.644 72.0595L165.102 71.9993V72.2401L165.042 72.541L163.717 78.1996L163.657 78.5005H164.38C165.463 78.5005 166.547 78.4404 167.389 78.019Z" fill="white"/>
<path d="M109.42 69.2901C109.299 69.8319 107.132 79.945 107.132 79.945C106.651 81.9917 106.289 83.4364 105.146 84.3996C104.483 84.9414 103.701 85.1821 102.798 85.1821C101.353 85.1821 100.51 84.4598 100.39 83.1354L100.33 82.6539L100.751 79.8848C100.751 79.8848 103.039 70.6746 103.46 69.4707C103.46 69.4105 103.52 69.3503 103.52 69.3503C99.0658 69.4105 98.223 69.3503 98.223 69.2901C98.223 69.4105 98.1026 69.9523 98.1026 69.9523L95.7549 80.3062L95.5743 81.2091L95.2131 84.0986C95.2131 84.9414 95.3937 85.6637 95.6947 86.2657C96.7783 88.1318 99.7881 88.4328 101.534 88.4328C103.761 88.4328 105.808 87.9512 107.253 87.1084C109.619 85.723 110.27 83.5624 110.85 81.6355L110.925 81.3897L111.165 80.3664C111.165 80.3664 113.513 70.795 113.934 69.5309V69.4105C113.189 69.3967 112.563 69.386 112.039 69.3771C110.277 69.3471 109.652 69.3365 109.42 69.2901Z" fill="white"/>
<path fill-rule="evenodd" clip-rule="evenodd" d="M174.673 95.7168L170.821 108.418H171.844L171.463 109.71L171.543 109.442H172.627C172.928 109.442 173.168 109.321 173.409 109.201C173.59 109.141 173.77 109.02 174.011 108.719L176.84 104.746H173.048L173.71 102.579H178.044L178.646 100.593H174.372L175.095 98.1245H187.014L186.291 100.593H182.318L181.656 102.579H185.689L185.027 104.746H180.693L179.91 105.649H181.656L182.078 108.418C182.098 108.519 182.111 108.599 182.122 108.666C182.144 108.799 182.158 108.88 182.198 108.96C182.258 109.08 182.8 109.141 183.101 109.141H183.643L182.86 111.789H180.573C180.3 111.75 180.103 111.636 179.916 111.527C179.814 111.468 179.716 111.41 179.609 111.368C179.369 111.247 179.007 110.947 178.887 110.405L178.466 107.636L176.479 110.345C175.877 111.187 175.034 111.849 173.59 111.849H170.821L171.055 111.067H170.038L169.797 111.91H166.125L166.366 111.067H158.902L159.684 108.659H160.407L165.102 93.1283H168.834L168.413 94.4526C168.413 94.4526 169.436 93.7303 170.339 93.4895C171.139 93.2896 175.007 93.1727 176.299 93.1388L176.299 93.1283H180.272L180.332 94.6333C180.332 94.874 180.512 94.9944 180.994 94.9944H181.837L181.114 97.4625H178.947C177.081 97.5829 176.359 96.8003 176.419 95.8974L176.352 94.3475L175.938 95.7168H174.673ZM164.199 108.479H167.149L168.052 105.649H165.042L164.199 108.479ZM166.607 100.533L165.584 103.904C165.584 103.904 166.727 103.302 167.329 103.121C167.931 103.001 168.894 102.88 168.894 102.88L169.617 100.533H166.607ZM168.052 95.7168L167.089 98.9674C167.089 98.9674 168.172 98.4859 168.774 98.3053C169.376 98.1247 170.279 98.0645 170.279 98.0645L171.001 95.7168H168.052Z" fill="white"/>
<path d="M135.244 98.7869H145.297L144.575 101.195H140.542L139.94 103.241H144.033L143.311 105.71H139.217L138.194 109.02C138.074 109.382 139.157 109.442 139.579 109.442L141.625 109.141L140.782 111.91H136.147C135.861 111.91 135.613 111.872 135.313 111.827C135.234 111.815 135.152 111.802 135.064 111.789C134.703 111.729 134.522 111.489 134.341 111.248C134.311 111.197 134.279 111.151 134.248 111.104C134.092 110.875 133.95 110.666 134.101 110.164L135.425 105.77H133.137L133.86 103.241H136.147L136.749 101.195H134.462L135.244 98.7869Z" fill="white"/>
<path d="M146.08 94.4526H141.986L142.588 93.1283H138.495L137.471 94.9944C137.231 95.4158 137.05 95.6566 136.869 95.777C136.749 95.8372 136.448 95.8974 135.967 95.8974H135.425L134.702 98.3053H136.508C137.411 98.3053 138.073 98.0043 138.374 97.8237C138.489 97.7855 138.579 97.7655 138.657 97.7483C138.824 97.7112 138.932 97.6872 139.097 97.5227L139.699 96.9809H145.357L146.08 94.4526Z" fill="white"/>
<path fill-rule="evenodd" clip-rule="evenodd" d="M147.886 93.1283H151.377L150.896 94.874C150.896 94.874 151.979 93.9711 152.762 93.6701C153.544 93.3691 155.29 93.1283 155.29 93.1283H160.948L159.022 99.5694C158.661 100.653 158.3 101.375 158.059 101.736C157.818 102.098 157.577 102.338 157.096 102.639C156.614 102.88 156.193 103.061 155.772 103.061C155.41 103.121 154.809 103.121 154.026 103.121H148.548L146.983 108.238C146.955 108.35 146.927 108.449 146.902 108.538C146.819 108.828 146.77 109.002 146.862 109.141C146.923 109.261 147.103 109.382 147.404 109.382L149.812 109.141L148.969 111.97H146.26C145.418 111.97 144.755 111.97 144.334 111.91C144.216 111.893 144.098 111.885 143.982 111.878C143.686 111.86 143.407 111.842 143.19 111.669C143.157 111.636 143.121 111.601 143.085 111.566C142.857 111.345 142.588 111.085 142.588 110.826C142.588 110.543 142.695 110.154 142.857 109.558L142.889 109.442L147.886 93.1283ZM149.932 98.6062C149.932 98.6062 151.076 97.5829 153.002 97.2217C153.424 97.1615 156.193 97.1615 156.193 97.1615L156.614 95.777H150.775L149.932 98.6062ZM155.35 99.6296H149.571L149.21 100.773H154.206C154.688 100.725 154.861 100.754 154.942 100.768C154.962 100.771 154.977 100.773 154.989 100.773L155.35 99.6296Z" fill="white"/>
<path d="M157.818 105.107L158.119 103.542H155.47L155.109 104.626C155.049 104.806 154.989 104.927 154.868 104.987C154.748 105.047 154.507 105.107 154.266 105.107H153.423L153.484 103.723H150.052L149.932 110.525C149.932 111.007 149.992 111.308 150.353 111.548C150.715 111.849 151.798 111.91 153.303 111.91H155.47L156.253 109.321L154.387 109.441L153.785 109.502C153.76 109.477 153.735 109.462 153.706 109.445C153.664 109.421 153.614 109.392 153.544 109.321C153.528 109.289 153.508 109.27 153.486 109.25C153.428 109.194 153.363 109.133 153.363 108.779V107.034L155.29 106.913C156.313 106.913 156.795 106.552 157.156 106.251C157.577 105.95 157.697 105.589 157.818 105.107Z" fill="white"/>
<path d="M118.509 88.3126C120.376 88.2524 120.978 88.2524 122.543 88.2524L122.723 88.0718C122.914 86.7812 123.03 86.2118 123.31 84.8263C123.383 84.4671 123.467 84.0529 123.566 83.5571L123.807 82.4735L123.823 82.3972C124.294 80.2213 124.525 79.1523 124.168 78.2597C123.747 77.2364 122.783 76.9956 121.941 76.9956C121.339 76.9956 120.315 77.116 119.352 77.5975C119.202 77.6878 119.036 77.7781 118.871 77.8684C118.705 77.9587 118.54 78.049 118.389 78.1393L118.69 77.0558L118.509 76.8752C116.572 77.2861 116.066 77.3535 114.368 77.5799L114.235 77.5975L114.115 77.7179L114.11 77.7536C113.872 79.4818 113.688 80.8118 112.911 84.2794C112.761 84.9115 112.61 85.5586 112.46 86.2057C112.309 86.8526 112.159 87.5002 112.008 88.132L112.068 88.3126C113.934 88.2524 114.536 88.2524 116.162 88.2524L116.282 88.132C116.382 87.6832 116.44 87.379 116.509 87.0226C116.606 86.5186 116.722 85.91 117.005 84.6406C117.082 84.2941 117.177 83.8306 117.279 83.3348C117.496 82.2803 117.744 81.0795 117.907 80.5472C118.329 80.3666 118.75 80.186 119.111 80.186C120.014 80.186 119.954 81.0288 119.894 81.3298C119.834 81.8715 119.533 83.6173 119.172 85.1222L118.931 86.0853C118.831 86.6861 118.689 87.2453 118.54 87.8321C118.51 87.9508 118.48 88.0707 118.449 88.1922L118.509 88.3126Z" fill="white"/>
<path d="M128.984 88.2523H126.816C126.541 88.2523 126.265 88.265 125.966 88.2787C125.613 88.2949 125.226 88.3125 124.77 88.3125L124.649 88.1921C124.89 87.2892 125.011 86.928 125.131 86.627C125.251 86.326 125.372 85.9648 125.552 85.0619C125.853 83.858 126.034 83.0152 126.154 82.2326C126.214 81.8715 126.26 81.5404 126.305 81.2093C126.35 80.8782 126.395 80.5471 126.455 80.1859L126.576 80.0655C127.035 80.0081 127.413 79.9506 127.747 79.8997C128.114 79.8439 128.428 79.796 128.743 79.7646C129.345 79.7044 130.007 79.584 130.97 79.3432L131.03 79.4034V79.4636C130.94 79.8549 130.85 80.2312 130.759 80.6074C130.669 80.9836 130.579 81.3598 130.488 81.7511C130.398 82.1424 130.308 82.5187 130.218 82.8949C130.127 83.2711 130.037 83.6473 129.947 84.0386C129.585 85.6639 129.465 86.2056 129.345 86.6872C129.317 86.8846 129.288 87.0423 129.254 87.2347C129.215 87.453 129.168 87.7159 129.104 88.1319L128.984 88.2523Z" fill="white"/>
<path fill-rule="evenodd" clip-rule="evenodd" d="M142.829 78.5003C143.371 79.2227 143.792 80.3665 143.251 82.7743C143.07 83.4967 142.588 85.3026 141.565 86.4464C140.18 87.9513 138.314 88.4329 136.508 88.4329C135.786 88.4329 134.703 88.3125 133.92 88.0115C131.452 86.9881 131.813 84.3395 132.174 82.8345C132.475 81.3898 133.077 79.8849 134.281 78.7411C135.967 77.176 138.134 77.1158 139.037 77.1158C140.542 77.1158 141.986 77.4168 142.829 78.5003ZM139.021 82.946C139.052 82.8245 139.077 82.7242 139.097 82.6539C139.518 80.7878 139.458 79.5839 138.435 79.7043C137.171 79.7043 136.689 81.2092 136.268 83.0753C136.25 83.1718 136.233 83.2658 136.215 83.3577C136.115 83.8965 136.027 84.3671 136.027 84.8812C136.027 86.025 136.809 86.025 136.93 86.025C137.411 86.025 137.773 85.724 138.134 85.2424C138.585 84.6906 138.87 83.5536 139.021 82.946Z" fill="white"/>
<path fill-rule="evenodd" clip-rule="evenodd" d="M182.017 88.433C180.091 88.433 179.549 88.433 177.743 88.4932L177.623 88.3728L177.815 87.6519C177.16 88.1999 176.454 88.5766 175.697 88.6135C175.035 88.6135 174.312 88.4931 173.53 88.1922C171.062 87.229 171.423 84.5201 171.784 83.0754C172.085 81.6307 172.687 80.1258 173.891 78.982C175.637 77.4771 177.623 77.0557 178.466 77.3567C179.091 77.5996 179.51 77.9825 179.804 78.4349L179.85 78.0791L179.971 77.9587C180.367 77.8968 180.702 77.8451 181.001 77.7989C182.158 77.6203 182.787 77.5232 184.365 77.2363L184.425 77.4169L183.342 81.9317C182.777 84.3773 182.507 85.9043 182.272 87.2304L182.271 87.2344C182.206 87.6042 182.143 87.9584 182.077 88.3126L182.017 88.433ZM179.315 81.4557C179.3 80.4213 178.844 79.8248 178.105 79.8248C176.841 79.8248 176.359 81.3899 175.938 83.1958L175.905 83.3765C175.796 83.9679 175.697 84.5096 175.697 85.0017C175.697 86.1455 176.479 86.1455 176.6 86.1455C177.081 86.1455 177.864 85.9047 178.165 85.4231C178.347 85.1726 178.512 84.7929 178.653 84.398C178.775 83.9006 178.893 83.3999 179.007 82.8949C179.13 82.3513 179.231 81.8782 179.315 81.4557Z" fill="white"/>
<path d="M154.086 88.2524C152.461 88.2524 151.919 88.2524 150.113 88.3126L150.053 88.1922C150.083 88.0707 150.113 87.9509 150.143 87.8323C150.292 87.2454 150.434 86.6862 150.534 86.0853L150.775 85.1222C151.136 83.6173 151.437 81.8715 151.497 81.3298C151.558 81.0288 151.618 80.186 150.715 80.186C150.354 80.186 149.932 80.3666 149.511 80.5472C149.347 81.0795 149.1 82.2802 148.883 83.3347C148.78 83.8305 148.685 84.2941 148.608 84.6406C148.228 86.3483 148.148 86.8598 148.043 87.5301C148.014 87.7104 147.984 87.9023 147.946 88.132L147.825 88.2524C146.2 88.2524 145.598 88.2524 143.732 88.3126L143.672 88.132C143.822 87.5 143.973 86.8528 144.123 86.2057C144.274 85.5586 144.424 84.9115 144.575 84.2794C145.352 80.8118 145.535 79.4818 145.774 77.7536L145.779 77.7179L145.899 77.5975L146.031 77.5799C147.73 77.3535 148.236 77.2861 150.173 76.8752L150.354 77.0558L150.053 78.1393C150.203 78.049 150.369 77.9587 150.534 77.8684C150.7 77.7781 150.865 77.6878 151.016 77.5975C151.979 77.116 153.002 76.9956 153.544 76.9956C154.387 76.9956 155.35 77.2364 155.771 78.2597C156.128 79.1523 155.897 80.2213 155.427 82.3971L155.41 82.4735L155.169 83.5571C154.737 85.4769 154.612 86.1722 154.426 87.1989C154.379 87.46 154.327 87.7424 154.266 88.0718L154.086 88.2524Z" fill="white"/>
<path d="M197.729 77.2361L197.548 77.0556C195.562 77.4769 195.261 77.5371 193.455 77.7779L193.334 77.8983V77.9585C192.627 79.5984 192.297 80.1734 191.979 80.7294C191.701 81.2143 191.431 81.6848 190.926 82.8345V82.5335L190.686 77.2361L190.505 77.0556C190.029 77.1535 189.661 77.2319 189.352 77.2976C188.333 77.5147 187.964 77.5931 186.532 77.7779L186.412 77.8983C186.412 77.9585 186.412 78.0187 186.351 78.0789C186.532 78.9835 186.543 79.0725 186.64 79.8524C186.672 80.1105 186.713 80.4442 186.773 80.9082C186.833 81.3897 186.893 81.8563 186.953 82.3228C187.014 82.7893 187.074 83.2559 187.134 83.7374C187.198 84.2896 187.254 84.7369 187.311 85.1877C187.415 86.0146 187.52 86.8532 187.676 88.3726C187.194 89.1748 186.853 89.7938 186.544 90.3524C186.043 91.2609 185.629 92.0099 184.846 93.1282L184.907 93.3088C186.773 93.2486 187.194 93.2486 188.579 93.2486L188.88 92.8874C189.843 90.7805 197.729 77.2361 197.729 77.2361Z" fill="white"/>
<path d="M131.03 76.2729C131.933 76.7545 131.813 77.7778 130.73 78.5002C129.646 79.2226 128.081 79.4032 127.178 78.9216C126.275 78.3798 126.395 77.3565 127.479 76.6341C128.562 75.9117 130.128 75.7312 131.03 76.2729Z" fill="white"/>
</g>
<defs>
<filter id="filter0_dd_1319_7021" x="0" y="0" width="290" height="216" filterUnits="userSpaceOnUse" color-interpolation-filters="sRGB">
<feFlood flood-opacity="0" result="BackgroundImageFix"/>
<feColorMatrix in="SourceAlpha" type="matrix" values="0 0 0 0 0 0 0 0 0 0 0 0 0 0 0 0 0 0 127 0" result="hardAlpha"/>
<feOffset dy="2"/>
<feGaussianBlur stdDeviation="10"/>
<feColorMatrix type="matrix" values="0 0 0 0 0.717647 0 0 0 0 0.717647 0 0 0 0 0.717647 0 0 0 0.08 0"/>
<feBlend mode="normal" in2="BackgroundImageFix" result="effect1_dropShadow_1319_7021"/>
<feColorMatrix in="SourceAlpha" type="matrix" values="0 0 0 0 0 0 0 0 0 0 0 0 0 0 0 0 0 0 127 0" result="hardAlpha"/>
<feOffset dy="20"/>
<feGaussianBlur stdDeviation="20"/>
<feColorMatrix type="matrix" values="0 0 0 0 0.717647 0 0 0 0 0.717647 0 0 0 0 0.717647 0 0 0 0.08 0"/>
<feBlend mode="normal" in2="effect1_dropShadow_1319_7021" result="effect2_dropShadow_1319_7021"/>
<feBlend mode="normal" in="SourceGraphic" in2="effect2_dropShadow_1319_7021" result="shape"/>
</filter>
</defs>
</svg>
