<?xml version="1.0" encoding="utf-8"?>
<!-- Generator: Adobe Illustrator 24.1.1, SVG Export Plug-In . SVG Version: 6.00 Build 0)  -->
<svg version="1.1" id="Layer_1" xmlns="http://www.w3.org/2000/svg" xmlns:xlink="http://www.w3.org/1999/xlink" x="0px" y="0px"
	 viewBox="0 0 512 512" style="enable-background:new 0 0 512 512;" xml:space="preserve">
<style type="text/css">
	.st0{fill:#E21836;}
	.st1{fill:#00447C;}
	.st2{fill:#007B84;}
	.st3{fill:#FEFEFE;}
</style>
<g>
	<path class="st0" d="M100.3,95.9h127.8c17.8,0,28.9,14.5,24.8,32.4l-59.5,255.4c-4.2,17.8-22.1,32.4-39.9,32.4H25.6
		c-17.8,0-28.9-14.6-24.8-32.4l59.5-255.4C64.6,110.4,82.4,95.9,100.3,95.9"/>
	<path class="st1" d="M217.4,95.9h147c17.8,0,9.8,14.5,5.6,32.4l-59.5,255.4c-4.2,17.8-2.9,32.4-20.7,32.4h-147
		c-17.9,0-28.9-14.6-24.7-32.4l59.5-255.4C181.8,110.4,199.6,95.9,217.4,95.9"/>
	<path class="st2" d="M358.6,95.9h127.8c17.9,0,29,14.5,24.8,32.4l-59.5,255.4c-4.2,17.8-22.1,32.4-39.9,32.4H284
		c-17.9,0-29-14.6-24.8-32.4l59.5-255.4C322.8,110.4,340.7,95.9,358.6,95.9"/>
	<path class="st3" d="M133.6,177.7c-13.1,0.1-17,0-18.3-0.3c-0.5,2.3-9.3,43.2-9.4,43.2c-1.9,8.3-3.3,14.2-8,18
		c-2.7,2.2-5.8,3.3-9.4,3.3c-5.8,0-9.2-2.9-9.8-8.4l-0.1-1.9l1.8-11.1c0,0,9.3-37.3,11-42.2c0.1-0.3,0.1-0.4,0.1-0.6
		c-18.1,0.2-21.3,0-21.5-0.3c-0.1,0.4-0.6,2.7-0.6,2.7l-9.5,42l-0.8,3.6l-1.6,11.7c0,3.5,0.7,6.3,2,8.7c4.3,7.6,16.7,8.7,23.7,8.7
		c9,0,17.4-1.9,23.2-5.4c9.9-5.9,12.5-15,14.8-23.1l1.1-4.2c0,0,9.6-38.7,11.2-43.8C133.5,178,133.6,177.9,133.6,177.7z M166.3,209
		c-2.3,0-6.5,0.6-10.3,2.4c-1.4,0.7-2.7,1.5-4.1,2.3l1.2-4.5l-0.7-0.8c-8,1.6-9.8,1.8-17.3,2.9l-0.6,0.4c-0.9,7.2-1.6,12.5-4.8,26.6
		c-1.2,5.2-2.5,10.4-3.8,15.6l0.3,0.7c7.6-0.4,9.9-0.4,16.5-0.3l0.5-0.6c0.8-4.3,0.9-5.3,2.8-14c0.9-4.1,2.7-13.2,3.6-16.5
		c1.7-0.8,3.3-1.5,4.8-1.5c3.7,0,3.3,3.2,3.1,4.5c-0.2,2.2-1.5,9.2-2.9,15.3l-0.9,3.9c-0.6,2.9-1.4,5.7-2,8.6l0.3,0.6
		c7.5-0.4,9.8-0.4,16.2-0.3l0.8-0.6c1.2-6.7,1.5-8.5,3.6-18.3l1-4.5c2-8.8,3-13.3,1.5-16.9C173.7,209.9,169.8,209,166.3,209z
		 M202.7,218.2c-4,0.8-6.5,1.3-9.1,1.6c-2.5,0.4-5,0.8-8.8,1.3l-0.3,0.3l-0.3,0.2c-0.4,2.9-0.7,5.4-1.2,8.3c-0.5,3-1.1,6.4-2.3,11.4
		c-0.9,3.8-1.3,5.1-1.8,6.4c-0.5,1.3-1,2.6-2,6.3l0.2,0.3l0.2,0.3c3.6-0.2,6-0.3,8.4-0.3c2.4-0.1,4.9,0,8.8,0l0.3-0.3l0.4-0.3
		c0.6-3.3,0.6-4.2,1-5.9c0.3-1.8,0.9-4.2,2.4-10.6c0.7-3,1.4-6.1,2.1-9.2c0.7-3.1,1.5-6.1,2.2-9.2l-0.1-0.4L202.7,218.2z
		 M202.8,205.7c-3.6-2.1-10-1.5-14.3,1.5c-4.3,2.9-4.8,7-1.1,9.2c3.6,2.1,10,1.5,14.2-1.5C205.8,211.9,206.4,207.9,202.8,205.7z
		 M224.7,255.3c7.3,0,14.9-2,20.5-8c4.4-4.9,6.4-12.1,7-15.1c2.3-9.9,0.5-14.5-1.7-17.3c-3.3-4.3-9.3-5.7-15.4-5.7
		c-3.7,0-12.5,0.4-19.3,6.7c-4.9,4.6-7.2,10.8-8.6,16.7c-1.4,6-3,16.9,7,21C217.4,254.9,221.8,255.3,224.7,255.3z M224.1,233.1
		c1.7-7.5,3.7-13.8,8.8-13.8c4,0,4.3,4.7,2.5,12.2c-0.3,1.7-1.8,7.9-3.7,10.5c-1.4,1.9-3,3.1-4.8,3.1c-0.5,0-3.7,0-3.8-4.7
		C223.1,238.1,223.6,235.7,224.1,233.1z M270.6,254.3l0.6-0.6c0.8-4.3,0.9-5.3,2.7-14c0.9-4.1,2.8-13.2,3.6-16.5
		c1.7-0.8,3.3-1.5,4.9-1.5c3.7,0,3.2,3.2,3.1,4.5c-0.1,2.2-1.5,9.2-2.9,15.3l-0.9,3.9c-0.7,2.9-1.4,5.7-2,8.6l0.3,0.6
		c7.5-0.4,9.7-0.4,16.2-0.3l0.8-0.6c1.1-6.7,1.4-8.5,3.6-18.3l1-4.5c2-8.8,3-13.3,1.5-16.9c-1.7-4.1-5.5-5.1-9-5.1
		c-2.3,0-6.6,0.6-10.3,2.4c-1.3,0.7-2.7,1.5-4,2.3l1.2-4.5l-0.6-0.8c-8,1.6-9.9,1.9-17.3,2.9l-0.6,0.4c-0.9,7.2-1.6,12.5-4.8,26.6
		c-1.2,5.2-2.5,10.4-3.7,15.6l0.3,0.7C261.7,254.2,264,254.2,270.6,254.3z M325.9,254.6c0.5-2.3,3.3-16,3.3-16
		c0,0,2.4-10.1,2.5-10.4c0,0,0.8-1,1.5-1.5h1.1c10.5,0,22.3,0,31.5-6.8c6.3-4.7,10.6-11.6,12.5-20c0.5-2.1,0.9-4.5,0.9-6.9
		c0-3.2-0.6-6.4-2.5-8.9c-4.7-6.6-14.1-6.7-25-6.8l-5.4,0c-13.9,0.2-19.5,0.1-21.8-0.2c-0.2,1-0.6,2.8-0.6,2.8l-5,23.1
		c0,0-11.9,49-12.5,51.4C318.9,254.4,323.9,254.4,325.9,254.6z M335.2,213.7l5.3-22.9l0.2-1.2l0.1-0.9l2.1,0.2c0,0,10.9,0.9,11.2,1
		c4.3,1.7,6.1,6,4.8,11.6c-1.1,5.1-4.5,9.4-8.7,11.5c-3.5,1.8-7.8,1.9-12.3,1.9H335L335.2,213.7z M368.1,233.5c-1.4,6-3,16.9,7,20.7
		c3.2,1.4,6,1.8,8.9,1.6c3.1-0.2,5.9-1.7,8.5-3.9c-0.2,0.9-0.5,1.8-0.7,2.7l0.5,0.6c7.2-0.3,9.4-0.3,17.2-0.2l0.7-0.5
		c1.1-6.7,2.2-13.1,5.1-25.9c1.4-6.1,2.9-12.2,4.3-18.2l-0.2-0.7c-8,1.5-10.2,1.8-17.9,2.9l-0.6,0.5c-0.1,0.6-0.2,1.2-0.2,1.8
		c-1.2-1.9-2.9-3.6-5.6-4.6c-3.4-1.3-11.5,0.4-18.4,6.7C371.8,221.4,369.4,227.6,368.1,233.5z M385,233.9c1.7-7.3,3.7-13.6,8.8-13.6
		c3.2,0,4.9,3,4.6,8.1c-0.3,1.3-0.6,2.6-0.9,4.1c-0.5,2.2-1.1,4.3-1.6,6.5c-0.5,1.5-1.2,2.9-1.9,3.8c-1.3,1.9-4.4,3-6.2,3
		c-0.5,0-3.7,0-3.8-4.6C383.9,238.9,384.4,236.5,385,233.9z M472.9,209.6l-0.6-0.7c-7.9,1.6-9.4,1.9-16.7,2.8l-0.5,0.5l-0.1,0.3
		l0-0.1c-5.4,12.5-5.3,9.8-9.7,19.7c0-0.4,0-0.7,0-1.2l-1.1-21.4l-0.7-0.7c-8.3,1.6-8.5,1.9-16.2,2.8l-0.6,0.5
		c-0.1,0.3-0.1,0.5-0.1,0.8l0,0.1c1,4.9,0.7,3.8,1.7,11.5c0.4,3.8,1,7.6,1.5,11.4c0.8,6.3,1.2,9.4,2.1,18.9
		c-5.2,8.6-6.4,11.8-11.4,19.3l0,0.1L417,280c-0.4,0.6-0.8,1-1.3,1.2c-0.6,0.3-1.3,0.3-2.3,0.3h-1.9l-2.9,9.6l9.9,0.2
		c5.8,0,9.5-2.8,11.5-6.4l6.2-10.7h-0.1l0.7-0.8C441,264.4,472.9,209.6,472.9,209.6z M368.1,336h-4.2l15.6-51.6h5.2l1.6-5.3l0.2,5.9
		c-0.2,3.7,2.7,6.9,10.2,6.4h8.7l3-9.9h-3.3c-1.9,0-2.8-0.5-2.7-1.5l-0.2-6h-16.2v0c-5.2,0.1-20.8,0.5-24,1.3
		c-3.8,1-7.8,3.9-7.8,3.9l1.6-5.3h-15.1l-3.1,10.5l-15.8,52.3h-3.1l-3,9.9h30.1l-1,3.3h14.8l1-3.3h4.2L368.1,336z M355.8,294.9
		c-2.4,0.7-6.9,2.7-6.9,2.7l4-13.2h12l-2.9,9.6C362,294.1,358.3,294.3,355.8,294.9z M356,313.8c0,0-3.8,0.5-6.3,1
		c-2.4,0.7-7,3.1-7,3.1l4.1-13.7h12.1L356,313.8z M349.3,336.1h-12l3.5-11.6h12L349.3,336.1z M378.3,304.2h17.4l-2.5,8.1h-17.6
		l-2.6,8.8h15.4l-11.7,16.4c-0.8,1.2-1.5,1.6-2.4,2c-0.8,0.4-1.9,0.9-3.1,0.9h-4.3L364,350h11.2c5.8,0,9.2-2.6,11.8-6.1l8-10.9
		l1.7,11.1c0.4,2.1,1.9,3.3,2.9,3.8c1.1,0.6,2.3,1.5,3.9,1.7c1.8,0.1,3,0.1,3.9,0.1h5.5l3.3-10.8h-2.2c-1.2,0-3.4-0.2-3.7-0.6
		c-0.4-0.5-0.4-1.2-0.6-2.3l-1.7-11.1h-7.1l3.1-3.7h17.6l2.7-8.8h-16.3l2.5-8.1h16.2l3-10h-48.3L378.3,304.2z M231.6,338.4l4.1-13.5
		h16.7l3-10h-16.7l2.5-8.3h16.3l3-9.7h-40.8l-3,9.7h9.3l-2.5,8.3h-9.3l-3.1,10.2h9.3l-5.4,17.8c-0.7,2.4,0.3,3.3,1,4.4
		c0.7,1.1,1.4,1.8,3,2.2c1.6,0.4,2.8,0.6,4.3,0.6h18.8l3.3-11.1l-8.3,1.1C235.6,340.1,231.2,339.9,231.6,338.4z M233.5,273.8
		l-4.2,7.6c-0.9,1.7-1.7,2.7-2.4,3.2c-0.6,0.4-1.9,0.6-3.8,0.6h-2.2L218,295h7.3c3.5,0,6.2-1.3,7.5-1.9c1.4-0.7,1.8-0.3,2.8-1.4
		l2.5-2.1h22.8l3-10.2h-16.7l2.9-5.5H233.5z M267.3,338.6c-0.4-0.6-0.1-1.5,0.5-3.6l6.2-20.7h22.2c3.2,0,5.6-0.1,7.1-0.2
		c1.6-0.2,3.4-0.8,5.3-1.8c2-1.1,3-2.3,3.9-3.6c1-1.3,2.5-4.2,3.8-8.7l7.8-26.1l-23,0.1c0,0-7.1,1-10.2,2.2
		c-3.2,1.3-7.7,4.9-7.7,4.9l2.1-7.2h-14.2l-19.9,66.1c-0.7,2.6-1.2,4.4-1.3,5.5c0,1.2,1.5,2.4,2.5,3.3c1.2,0.9,3,0.8,4.6,0.9
		c1.8,0.1,4.3,0.2,7.8,0.2h10.9l3.4-11.3l-9.8,0.9C268.3,339.6,267.6,339.1,267.3,338.6z M278,300.4h23.3l-1.5,4.6
		c-0.2,0.1-0.7-0.2-3.1,0h-20.2L278,300.4z M282.7,284.8h23.5l-1.7,5.6c0,0-11.1-0.1-12.9,0.2c-7.8,1.4-12.4,5.5-12.4,5.5
		L282.7,284.8z M300.4,320.6c-0.2,0.7-0.5,1.1-0.9,1.4c-0.5,0.3-1.2,0.4-2.4,0.4h-3.3l0.2-5.7h-13.8l-0.6,27.7c0,2,0.2,3.2,1.6,4.1
		c1.5,1.2,6,1.3,12,1.3h8.7l3.1-10.4l-7.5,0.4L295,340c-0.3-0.1-0.7-0.3-1-0.6c-0.3-0.3-0.9-0.1-0.8-2.1l0.1-7.1l7.9-0.3
		c4.3,0,6.1-1.4,7.7-2.7c1.5-1.3,2-2.7,2.5-4.7l1.3-6.3h-10.9L300.4,320.6z"/>
</g>
</svg>
