<svg width="668" height="206" viewBox="0 0 668 206" fill="none" xmlns="http://www.w3.org/2000/svg">
<path d="M485.3 9.20001C469.804 3.55369 453.425 0.720329 436.933 0.833362C383.6 0.833362 345.933 27.7 345.667 66.2667C345.333 94.6 372.433 110.567 392.933 120.033C413.967 129.767 421 135.9 420.933 144.6C420.8 157.833 404.133 163.833 388.633 163.833C367.333 163.833 355.7 160.867 337.8 153.433L331.167 150.333L323.6 194.733C336.567 200.133 359.933 204.767 384.067 205.167C440.767 205.167 477.833 178.467 478.267 137.433C478.733 114.8 464.067 97.7 433.2 83.5667C414.433 74.4 402.8 68.2667 402.8 58.9667C402.8 50.7333 412.767 41.9334 433.6 41.9334C447.465 41.5979 461.245 44.1993 474.033 49.5667L479.033 51.8L486.6 8.90002L485.3 9.20001ZM623.7 4.43336H582.033C569.067 4.43336 559.3 8.00002 553.633 20.8667L473.5 202.4H530.2L541.533 172.633L610.733 172.7C612.367 179.667 617.367 202.4 617.367 202.4H667.367L623.7 4.43336ZM268.967 2.76668H323L289.2 200.833H235.233L268.967 2.70002V2.76668ZM131.8 111.933L137.4 139.433L190.2 4.43336H247.433L162.4 202.133H105.3L58.6333 34.7333C57.8775 31.9731 56.1025 29.6024 53.6667 28.1C36.8467 19.4113 19.0249 12.8176 0.600006 8.46667L1.33334 4.3H88.3C100.1 4.76667 109.6 8.46667 112.767 21.0667L131.767 112.033L131.8 111.933ZM557.033 132.133L578.567 76.7333C578.3 77.3333 583 65.3 585.733 57.8667L589.433 74.9667L601.933 132.1H557L557.033 132.133Z" fill="white"/>
</svg>
